STARTFONT 2.1
COMMENT
COMMENT Converted from OpenType font "ArialMT.otf" by "otf2bdf 3.0".
COMMENT
FONT -FreeType-Arial-Medium-R-Normal--42-300-100-100-P-199-ISO10646-1
SIZE 30 100 100
FONTBOUNDINGBOX 74 56 -28 -14
STARTPROPERTIES 19
FOUNDRY "FreeType"
FAMILY_NAME "Arial"
WEIGHT_NAME "Medium"
SLANT "R"
SETWIDTH_NAME "Normal"
ADD_STYLE_NAME ""
PIXEL_SIZE 42
POINT_SIZE 300
RESOLUTION_X 100
RESOLUTION_Y 100
SPACING "P"
AVERAGE_WIDTH 199
CHARSET_REGISTRY "ISO10646"
CHARSET_ENCODING "1"
FONT_ASCENT 38
FONT_DESCENT 8
COPYRIGHT "© 2006 The Monotype Corporation. All Rights Reserved."
_OTF_FONTFILE "ArialMT.otf"
_OTF_PSNAME "ArialMT"
ENDPROPERTIES
CHARS 1425
STARTCHAR 0020
ENCODING 32
SWIDTH 288 0
DWIDTH 12 0
BBX 0 0 0 0
BITMAP
ENDCHAR
STARTCHAR 0021
ENCODING 33
SWIDTH 288 0
DWIDTH 12 0
BBX 4 30 4 0
BITMAP
F0
F0
F0
F0
F0
F0
F0
F0
F0
F0
F0
F0
F0
F0
F0
F0
E0
E0
E0
E0
60
60
60
00
00
00
F0
F0
F0
F0
ENDCHAR
STARTCHAR 0022
ENCODING 34
SWIDTH 360 0
DWIDTH 15 0
BBX 11 11 2 19
BITMAP
F1E0
F1E0
F1E0
F1E0
F1E0
F1E0
F1E0
F1C0
71C0
61C0
60C0
ENDCHAR
STARTCHAR 0023
ENCODING 35
SWIDTH 552 0
DWIDTH 23 0
BBX 23 31 0 -1
BITMAP
00E038
00E078
00E070
00E070
01C070
01C070
01C0F0
01C0E0
FFFFFE
FFFFFE
FFFFFE
0381C0
0381C0
0381C0
0701C0
0701C0
070380
070380
070380
FFFFFE
FFFFFE
FFFFFE
0E0700
0E0700
1C0700
1C0700
1C0E00
1C0E00
3C0E00
380E00
380E00
ENDCHAR
STARTCHAR 0024
ENCODING 36
SWIDTH 552 0
DWIDTH 23 0
BBX 19 37 2 -4
BITMAP
00E000
00E000
01F000
0FFE00
1FFF00
3EFF80
78E7C0
78E3C0
F0E3C0
F0E1C0
F0E000
F0E000
F0E000
78E000
7CE000
3FE000
1FF800
0FFE00
01FF80
00FFC0
00E7C0
00E3E0
00E1E0
00E1E0
60E1E0
E0E1E0
F0E1E0
F0E1E0
F8E3C0
7CE7C0
3FFF80
1FFF00
0FFE00
00E000
00E000
00E000
00E000
ENDCHAR
STARTCHAR 0025
ENCODING 37
SWIDTH 888 0
DWIDTH 37 0
BBX 33 31 2 -1
BITMAP
0FC001C000
3FE0038000
3CF0038000
7078070000
7038070000
70380E0000
F0380E0000
F0381C0000
F0381C0000
7038380000
7038300000
7070700000
38F0E00000
3FE0E00000
1FC1C00000
0001C0E000
000383FC00
000387FE00
0007070F00
00070F0700
000E0E0700
000E0E0700
001C0E0780
001C0E0780
00380E0700
00380E0700
00700E0700
0070070F00
00E007FE00
00E003FC00
01C001F800
ENDCHAR
STARTCHAR 0026
ENCODING 38
SWIDTH 672 0
DWIDTH 28 0
BBX 25 31 2 -1
BITMAP
01FE0000
03FF0000
07FF8000
0F078000
0F03C000
0E03C000
0E03C000
0F03C000
0F078000
0F8F8000
07DF0000
03FE0000
01FC0000
03F00000
0FF80000
1F7C0000
3E3E1C00
7C1F1E00
781F3C00
F00FBC00
F007FC00
F003F800
F001F800
F001F000
F801F800
7803FC00
7C0FFE00
3FFF9F80
1FFF0F00
07FC0600
00000200
ENDCHAR
STARTCHAR 0027
ENCODING 39
SWIDTH 192 0
DWIDTH 8 0
BBX 4 11 2 19
BITMAP
F0
F0
F0
F0
F0
F0
F0
F0
E0
60
60
ENDCHAR
STARTCHAR 0028
ENCODING 40
SWIDTH 336 0
DWIDTH 14 0
BBX 9 39 3 -9
BITMAP
0380
0700
0700
0E00
0E00
1C00
1C00
3800
3800
7800
7000
7000
F000
F000
F000
F000
E000
E000
E000
E000
E000
E000
F000
F000
F000
F000
7000
7000
7800
7800
3800
3C00
1C00
1E00
0E00
0F00
0700
0380
0180
ENDCHAR
STARTCHAR 0029
ENCODING 41
SWIDTH 336 0
DWIDTH 14 0
BBX 9 39 3 -9
BITMAP
E000
7000
7000
3800
3800
1C00
1C00
0E00
0E00
0F00
0F00
0700
0780
0780
0780
0780
0380
0380
0380
0380
0380
0380
0780
0780
0780
0780
0700
0700
0F00
0E00
0E00
1E00
1C00
3C00
3800
7000
7000
E000
C000
ENDCHAR
STARTCHAR 002A
ENCODING 42
SWIDTH 384 0
DWIDTH 16 0
BBX 14 12 1 18
BITMAP
0300
0300
0300
6318
7F78
FFFC
0FC0
0780
0FC0
1CE0
3CF0
1860
ENDCHAR
STARTCHAR 002B
ENCODING 43
SWIDTH 576 0
DWIDTH 24 0
BBX 20 20 2 5
BITMAP
00F000
00F000
00F000
00F000
00F000
00F000
00F000
00F000
00F000
FFFFF0
FFFFF0
FFFFF0
00F000
00F000
00F000
00F000
00F000
00F000
00F000
00F000
ENDCHAR
STARTCHAR 002C
ENCODING 44
SWIDTH 288 0
DWIDTH 12 0
BBX 4 10 4 -6
BITMAP
F0
F0
F0
F0
30
30
70
60
C0
80
ENDCHAR
STARTCHAR 002D
ENCODING 45
SWIDTH 336 0
DWIDTH 14 0
BBX 12 4 1 9
BITMAP
FFF0
FFF0
FFF0
FFF0
ENDCHAR
STARTCHAR 002E
ENCODING 46
SWIDTH 288 0
DWIDTH 12 0
BBX 4 4 4 0
BITMAP
F0
F0
F0
F0
ENDCHAR
STARTCHAR 002F
ENCODING 47
SWIDTH 288 0
DWIDTH 12 0
BBX 11 31 0 -1
BITMAP
00E0
00E0
00E0
00C0
01C0
01C0
01C0
0380
0380
0380
0380
0700
0700
0700
0E00
0E00
0E00
0E00
1C00
1C00
1C00
1800
3800
3800
3800
7000
7000
7000
6000
E000
E000
ENDCHAR
STARTCHAR 0030
ENCODING 48
SWIDTH 552 0
DWIDTH 23 0
BBX 19 31 2 -1
BITMAP
03F000
0FFE00
1FFF00
1E1F00
3C0780
7803C0
7803C0
7001C0
F001E0
F001E0
F001E0
F001E0
F001E0
F001E0
F001E0
F001E0
F001E0
F001E0
F001E0
F001E0
F001E0
F001E0
F001C0
7003C0
7803C0
3C0780
3E0F80
1FFF00
0FFE00
07FC00
004000
ENDCHAR
STARTCHAR 0031
ENCODING 49
SWIDTH 552 0
DWIDTH 23 0
BBX 11 30 5 0
BITMAP
00E0
01E0
03E0
03E0
0FE0
1FE0
3FE0
FDE0
F1E0
E1E0
81E0
01E0
01E0
01E0
01E0
01E0
01E0
01E0
01E0
01E0
01E0
01E0
01E0
01E0
01E0
01E0
01E0
01E0
01E0
01E0
ENDCHAR
STARTCHAR 0032
ENCODING 50
SWIDTH 552 0
DWIDTH 23 0
BBX 20 30 1 0
BITMAP
01FC00
07FF00
0FFFC0
1F07C0
3E01E0
3C01F0
7800F0
7800F0
7800F0
0000F0
0000F0
0001E0
0001E0
0003C0
0007C0
000F80
001F00
003E00
00FC00
01F800
03E000
07C000
0F8000
1F0000
3E0000
3C0000
7FFFF0
7FFFF0
FFFFF0
FFFFF0
ENDCHAR
STARTCHAR 0033
ENCODING 51
SWIDTH 552 0
DWIDTH 23 0
BBX 19 31 2 -1
BITMAP
03F000
0FFC00
1FFF00
3E1F00
7C0780
780380
F003C0
F003C0
0003C0
0003C0
000780
000F80
007F00
01FC00
01FF00
01BF80
0007C0
0003E0
0001E0
0001E0
0001E0
0001E0
F001E0
F001E0
F001E0
7803C0
7C07C0
3FFF80
1FFF00
07FC00
004000
ENDCHAR
STARTCHAR 0034
ENCODING 52
SWIDTH 552 0
DWIDTH 23 0
BBX 20 30 1 0
BITMAP
000700
000F00
001F00
001F00
003F00
007F00
007F00
00EF00
01EF00
01CF00
038F00
078F00
0F0F00
0E0F00
1E0F00
3C0F00
380F00
780F00
F00F00
E00F00
FFFFF0
FFFFF0
FFFFF0
000F00
000F00
000F00
000F00
000F00
000F00
000F00
ENDCHAR
STARTCHAR 0035
ENCODING 53
SWIDTH 552 0
DWIDTH 23 0
BBX 20 29 2 -1
BITMAP
1FFFC0
1FFFC0
1FFFC0
1C0000
3C0000
3C0000
3C0000
380000
380000
787800
7BFE00
7FFF00
7FFF80
7C07C0
F003E0
0001E0
0001E0
0001E0
0000F0
0000F0
0000E0
F001E0
F001E0
F001E0
7803C0
7C0780
3FFF80
1FFF00
07FC00
ENDCHAR
STARTCHAR 0036
ENCODING 54
SWIDTH 552 0
DWIDTH 23 0
BBX 19 30 2 -1
BITMAP
01F800
07FE00
0FFF80
1F0F80
3C03C0
3803C0
7801E0
7001C0
F00000
F00000
F00000
E1FC00
E7FF00
EFFF80
FE0FC0
FC03C0
F801E0
F001E0
F001E0
F001E0
F000E0
F001E0
F001E0
7001E0
7801E0
7C03C0
3E07C0
1FFF80
0FFF00
07FC00
ENDCHAR
STARTCHAR 0037
ENCODING 55
SWIDTH 552 0
DWIDTH 23 0
BBX 19 29 2 0
BITMAP
FFFFE0
FFFFE0
FFFFE0
0003C0
0007C0
000780
000F00
001E00
001E00
003C00
003C00
007800
007800
00F000
00F000
01E000
01E000
03C000
03C000
03C000
038000
078000
078000
078000
070000
070000
0F0000
0F0000
0F0000
ENDCHAR
STARTCHAR 0038
ENCODING 56
SWIDTH 552 0
DWIDTH 23 0
BBX 19 31 2 -1
BITMAP
03F800
0FFE00
1FFF00
3E0F80
3C0780
7803C0
7803C0
7803C0
7803C0
7803C0
7C03C0
3E0780
1FFF00
07FC00
0FFE00
3FBF80
7C07C0
7803C0
F001E0
F001E0
F000E0
E000E0
F000E0
F001E0
F001E0
7803C0
7C07C0
3FFF80
1FFF00
07FC00
004000
ENDCHAR
STARTCHAR 0039
ENCODING 57
SWIDTH 552 0
DWIDTH 23 0
BBX 19 30 2 -1
BITMAP
03F000
0FFC00
1FFF00
3F0F80
7C0780
7803C0
F001C0
F001E0
F001E0
F001E0
F001E0
F001E0
F001E0
F001E0
7803E0
7C07E0
3FBEE0
1FFCE0
0FF8E0
03E0E0
0001E0
0001E0
0001C0
F003C0
7003C0
780780
7C0F80
3FFF00
1FFE00
0FF800
ENDCHAR
STARTCHAR 003A
ENCODING 58
SWIDTH 288 0
DWIDTH 12 0
BBX 4 22 4 0
BITMAP
F0
F0
F0
F0
F0
00
00
00
00
00
00
00
00
00
00
00
00
00
F0
F0
F0
F0
ENDCHAR
STARTCHAR 003B
ENCODING 59
SWIDTH 288 0
DWIDTH 12 0
BBX 4 28 4 -6
BITMAP
F0
F0
F0
F0
F0
00
00
00
00
00
00
00
00
00
00
00
00
00
F0
F0
F0
F0
30
30
70
60
C0
80
ENDCHAR
STARTCHAR 003C
ENCODING 60
SWIDTH 576 0
DWIDTH 24 0
BBX 20 20 2 5
BITMAP
000010
000070
0001F0
000FF0
003FC0
01FF00
07FC00
1FE000
FF8000
FC0000
F80000
FE0000
3FC000
0FF000
03FE00
007F80
001FE0
0007F0
0000F0
000030
ENDCHAR
STARTCHAR 003D
ENCODING 61
SWIDTH 576 0
DWIDTH 24 0
BBX 20 13 2 8
BITMAP
FFFFF0
FFFFF0
FFFFF0
000000
000000
000000
000000
000000
000000
FFFFF0
FFFFF0
FFFFF0
FFFFF0
ENDCHAR
STARTCHAR 003E
ENCODING 62
SWIDTH 576 0
DWIDTH 24 0
BBX 20 20 2 5
BITMAP
800000
E00000
FC0000
FF0000
3FC000
0FF800
01FE00
007FC0
000FF0
0003F0
0001F0
0007F0
001FE0
00FF00
03FC00
1FF000
7F8000
FE0000
F80000
C00000
ENDCHAR
STARTCHAR 003F
ENCODING 63
SWIDTH 552 0
DWIDTH 23 0
BBX 19 30 2 0
BITMAP
07FC00
1FFF00
3FFF80
7C07C0
7803C0
F801E0
F001E0
F001E0
3001E0
0001E0
0001E0
0003C0
000780
000F80
001F00
003C00
007800
00F000
00F000
00E000
00E000
00E000
00E000
000000
000000
000000
01F000
01F000
01F000
01F000
ENDCHAR
STARTCHAR 0040
ENCODING 64
SWIDTH 1008 0
DWIDTH 42 0
BBX 38 39 2 -9
BITMAP
0003FFE000
001FFFF800
007FFFFE00
00FC003F00
01F0000F80
03C00003C0
07800001E0
0F000000F0
0E00F80070
1C03FE7878
1C07FF7838
380F87F038
381E03F03C
703C01F01C
703C01F01C
707801F01C
707800E01C
E0F000E01C
E0F001E03C
E0F001E038
E0F001C038
E0F001C078
E0F003C070
F0F003C0F0
707007C1E0
70780FC3C0
707C3FCF80
783FFBFF00
381FF3FE00
3C07C1F800
1E0000003C
0F0000003C
0F800000F8
07E00001F0
03F80007E0
00FFC0FF80
003FFFFE00
000FFFF800
00007F8000
ENDCHAR
STARTCHAR 0041
ENCODING 65
SWIDTH 672 0
DWIDTH 28 0
BBX 28 30 0 0
BITMAP
001F0000
001F0000
003F8000
003F8000
003B8000
007BC000
007BC000
0071E000
00F1E000
00F0E000
01E0F000
01E0F000
01E07800
03C07800
03C07C00
03803C00
07803C00
07801E00
0FFFFE00
0FFFFF00
0FFFFF00
1E000F00
1E000F80
3C000780
3C0007C0
3C0003C0
780003C0
780003E0
780001E0
F00001F0
ENDCHAR
STARTCHAR 0042
ENCODING 66
SWIDTH 672 0
DWIDTH 28 0
BBX 23 30 3 0
BITMAP
FFFE00
FFFFC0
FFFFE0
FFFFF0
F001F0
F000F8
F00078
F00078
F00078
F00078
F00078
F000F0
F007E0
FFFFC0
FFFFC0
FFFFF0
F007F8
F0007C
F0003C
F0003C
F0003E
F0003E
F0003E
F0003C
F0003C
F000FC
FFFFF8
FFFFF0
FFFFE0
FFFF00
ENDCHAR
STARTCHAR 0043
ENCODING 67
SWIDTH 720 0
DWIDTH 30 0
BBX 26 30 2 -1
BITMAP
007FE000
01FFF800
07FFFC00
0FE07E00
1F801F00
1E000F80
3C000780
3C0007C0
78000380
78000000
78000000
F0000000
F0000000
F0000000
F0000000
F0000000
F0000000
F0000000
F0000000
78000000
780003C0
780003C0
3C0003C0
3C000780
3E000F80
1F001F00
0FC07E00
07FFFE00
03FFF800
00FFE000
ENDCHAR
STARTCHAR 0044
ENCODING 68
SWIDTH 720 0
DWIDTH 30 0
BBX 25 30 3 0
BITMAP
FFFE0000
FFFFC000
FFFFF000
FFFFF800
F000FC00
F0007E00
F0003E00
F0001F00
F0000F00
F0000F00
F0000F80
F0000780
F0000780
F0000780
F0000780
F0000780
F0000780
F0000780
F0000780
F0000F00
F0000F00
F0000F00
F0001F00
F0001E00
F0003E00
F000FC00
FFFFF800
FFFFF000
FFFFC000
FFFF0000
ENDCHAR
STARTCHAR 0045
ENCODING 69
SWIDTH 672 0
DWIDTH 28 0
BBX 23 30 3 0
BITMAP
FFFFFC
FFFFFC
FFFFFC
FFFFFC
F00000
F00000
F00000
F00000
F00000
F00000
F00000
F00000
F00000
FFFFF8
FFFFF8
FFFFF8
F00000
F00000
F00000
F00000
F00000
F00000
F00000
F00000
F00000
F00000
FFFFFE
FFFFFE
FFFFFE
FFFFFE
ENDCHAR
STARTCHAR 0046
ENCODING 70
SWIDTH 600 0
DWIDTH 25 0
BBX 21 30 3 0
BITMAP
FFFFF8
FFFFF8
FFFFF8
FFFFF8
F00000
F00000
F00000
F00000
F00000
F00000
F00000
F00000
F00000
FFFFC0
FFFFC0
FFFFC0
F00000
F00000
F00000
F00000
F00000
F00000
F00000
F00000
F00000
F00000
F00000
F00000
F00000
F00000
ENDCHAR
STARTCHAR 0047
ENCODING 71
SWIDTH 768 0
DWIDTH 32 0
BBX 28 31 2 -1
BITMAP
003FF000
01FFFE00
03FFFF00
07E03F80
0F8007C0
1F0003C0
3E0001E0
3C0001E0
7C0001E0
78000000
78000000
78000000
F0000000
F0000000
F0000000
F001FFF0
F001FFF0
F001FFF0
F80000F0
780000F0
780000F0
7C0000F0
3C0000F0
3E0000F0
1F0001F0
0F8007F0
0FF01FE0
03FFFF80
01FFFF00
007FF800
00010000
ENDCHAR
STARTCHAR 0048
ENCODING 72
SWIDTH 720 0
DWIDTH 30 0
BBX 24 30 3 0
BITMAP
F0000F
F0000F
F0000F
F0000F
F0000F
F0000F
F0000F
F0000F
F0000F
F0000F
F0000F
F0000F
FFFFFF
FFFFFF
FFFFFF
FFFFFF
F0000F
F0000F
F0000F
F0000F
F0000F
F0000F
F0000F
F0000F
F0000F
F0000F
F0000F
F0000F
F0000F
F0000F
ENDCHAR
STARTCHAR 0049
ENCODING 73
SWIDTH 288 0
DWIDTH 12 0
BBX 4 30 4 0
BITMAP
F0
F0
F0
F0
F0
F0
F0
F0
F0
F0
F0
F0
F0
F0
F0
F0
F0
F0
F0
F0
F0
F0
F0
F0
F0
F0
F0
F0
F0
F0
ENDCHAR
STARTCHAR 004A
ENCODING 74
SWIDTH 504 0
DWIDTH 21 0
BBX 17 30 1 -1
BITMAP
000780
000780
000780
000780
000780
000780
000780
000780
000780
000780
000780
000780
000780
000780
000780
000780
000780
000780
000780
000780
000780
700780
F00780
F00700
F00F00
780F00
7C3F00
3FFE00
3FFC00
0FF800
ENDCHAR
STARTCHAR 004B
ENCODING 75
SWIDTH 672 0
DWIDTH 28 0
BBX 24 30 3 0
BITMAP
F0003F
F0007E
F000FC
F001F8
F003F0
F007E0
F00FC0
F01F80
F03F00
F07E00
F0F800
F1F000
F3F000
F7F800
FFF800
FF7C00
FE3E00
FC1F00
F81F00
F00F80
F007C0
F003C0
F003E0
F001F0
F000F8
F000F8
F0007C
F0003E
F0003F
F0001F
ENDCHAR
STARTCHAR 004C
ENCODING 76
SWIDTH 552 0
DWIDTH 23 0
BBX 19 30 3 0
BITMAP
F00000
F00000
F00000
F00000
F00000
F00000
F00000
F00000
F00000
F00000
F00000
F00000
F00000
F00000
F00000
F00000
F00000
F00000
F00000
F00000
F00000
F00000
F00000
F00000
F00000
F00000
FFFFE0
FFFFE0
FFFFE0
FFFFE0
ENDCHAR
STARTCHAR 004D
ENCODING 77
SWIDTH 840 0
DWIDTH 35 0
BBX 29 30 3 0
BITMAP
FC0001F8
FC0001F8
FE0003F8
FE0003F8
FE0003F8
FF0007F8
F7000778
F7000778
F7800F78
F3800E78
F3C00E78
F3C01E78
F1C01C78
F1E01C78
F1E03878
F0E03878
F0F03878
F0F07078
F0707078
F0787078
F078E078
F038E078
F03CE078
F03DC078
F01DC078
F01DC078
F01F8078
F00F8078
F00F8078
F00F0078
ENDCHAR
STARTCHAR 004E
ENCODING 78
SWIDTH 720 0
DWIDTH 30 0
BBX 24 30 3 0
BITMAP
F0000F
F8000F
FC000F
FC000F
FE000F
FF000F
FF000F
F7800F
F7C00F
F3C00F
F1E00F
F1F00F
F0F00F
F0780F
F07C0F
F03C0F
F01E0F
F01F0F
F00F0F
F0078F
F007CF
F003EF
F001EF
F001FF
F000FF
F0007F
F0007F
F0003F
F0001F
F0001F
ENDCHAR
STARTCHAR 004F
ENCODING 79
SWIDTH 768 0
DWIDTH 32 0
BBX 29 30 2 -1
BITMAP
007FE000
01FFFC00
03FFFE00
0FE07F00
1F800F80
1F0007C0
3E0003E0
3C0001E0
780001E0
780000F0
780000F0
F00000F0
F00000F0
F00000F8
F00000F8
F00000F8
F00000F8
F00000F0
F00000F0
F80000F0
780000F0
780001E0
3C0001E0
3E0003E0
1F0007C0
1F800F80
0FE03F00
07FFFE00
01FFFC00
007FF000
ENDCHAR
STARTCHAR 0050
ENCODING 80
SWIDTH 672 0
DWIDTH 28 0
BBX 23 30 3 0
BITMAP
FFFF00
FFFFE0
FFFFF8
FFFFF8
F0007C
F0003C
F0003E
F0001E
F0001E
F0001E
F0001E
F0003E
F0003C
F0007C
FFFFF8
FFFFF0
FFFFE0
FFFF00
F00000
F00000
F00000
F00000
F00000
F00000
F00000
F00000
F00000
F00000
F00000
F00000
ENDCHAR
STARTCHAR 0051
ENCODING 81
SWIDTH 768 0
DWIDTH 32 0
BBX 29 32 2 -2
BITMAP
007FE000
01FFF800
07FFFE00
0FE07F00
1F801F80
1E0007C0
3C0003C0
7C0003E0
780001E0
780001F0
F00000F0
F00000F0
F00000F0
F00000F0
F00000F0
F00000F0
F00000F0
F00000F0
F00000F0
F00000F0
780001F0
780001E0
7C0181E0
3C01E3C0
3E03FFC0
1F807F80
0FE03F00
07FFFF80
01FFFFE0
007FE3F8
000000F0
00000030
ENDCHAR
STARTCHAR 0052
ENCODING 82
SWIDTH 720 0
DWIDTH 30 0
BBX 26 30 3 0
BITMAP
FFFFC000
FFFFF800
FFFFFC00
F003FE00
F0003E00
F0001F00
F0000F00
F0000F00
F0000F00
F0000F00
F0000F00
F0001E00
F0003E00
FFFFFC00
FFFFF800
FFFFE000
FFFF0000
F00FC000
F003E000
F001F000
F001F000
F000F800
F0007C00
F0007C00
F0003E00
F0001F00
F0001F00
F0000F80
F00007C0
F00007C0
ENDCHAR
STARTCHAR 0053
ENCODING 83
SWIDTH 672 0
DWIDTH 28 0
BBX 24 31 2 -1
BITMAP
01FF80
07FFE0
1FFFF0
3F01F8
3C007C
78003C
78003C
78001E
78001E
780000
3C0000
3F8000
1FF000
0FFF00
07FFE0
00FFF8
000FFC
0000FC
00003E
00001E
F0000F
F0000F
F0000F
F8000E
78001E
7E003E
3F80FC
1FFFF8
0FFFF0
03FFC0
000800
ENDCHAR
STARTCHAR 0054
ENCODING 84
SWIDTH 600 0
DWIDTH 25 0
BBX 24 30 1 0
BITMAP
FFFFFF
FFFFFF
FFFFFF
FFFFFF
003C00
003C00
003C00
003C00
003C00
003C00
003C00
003C00
003C00
003C00
003C00
003C00
003C00
003C00
003C00
003C00
003C00
003C00
003C00
003C00
003C00
003C00
003C00
003C00
003C00
003C00
ENDCHAR
STARTCHAR 0055
ENCODING 85
SWIDTH 720 0
DWIDTH 30 0
BBX 24 30 3 -1
BITMAP
F0000F
F0000F
F0000F
F0000F
F0000F
F0000F
F0000F
F0000F
F0000F
F0000F
F0000F
F0000F
F0000F
F0000F
F0000F
F0000F
F0000F
F0000F
F0000F
F0000F
F0000F
78001E
78001E
78001E
7C003E
3E007C
3F81FC
1FFFF8
0FFFF0
03FFC0
ENDCHAR
STARTCHAR 0056
ENCODING 86
SWIDTH 672 0
DWIDTH 28 0
BBX 27 30 0 0
BITMAP
F80001E0
780001E0
780001E0
7C0003C0
3C0003C0
3C000780
1E000780
1E000780
1E000F00
0F000F00
0F000E00
07801E00
07801E00
07803C00
03C03C00
03C03800
03C07800
01E07800
01E07000
00E0F000
00F0F000
00F1E000
0071E000
0079C000
003BC000
003BC000
003F8000
001F8000
001F0000
000F0000
ENDCHAR
STARTCHAR 0057
ENCODING 87
SWIDTH 936 0
DWIDTH 39 0
BBX 38 30 1 0
BITMAP
F000F8003C
F000FC003C
F000FC0078
F001FC0078
7801FC0078
7801DE0070
7801DE00F0
7803CE00F0
3C038F00F0
3C038F00E0
3C078F01E0
3C078701E0
1C070781C0
1E070781C0
1E0F0383C0
0E0E03C3C0
0E0E03C380
0F1E03C380
0F1E01C780
071C01E780
071C01E700
07BC00E700
07BC00EF00
03B800EE00
03B800FE00
03F8007E00
03F0007E00
01F0007C00
01F0007C00
01F0003C00
ENDCHAR
STARTCHAR 0058
ENCODING 88
SWIDTH 672 0
DWIDTH 28 0
BBX 26 30 1 0
BITMAP
78000780
7C000F80
3E000F00
1F001E00
0F003C00
0F807C00
07C07800
03C0F000
03E1F000
01F3E000
00FBC000
007F8000
007F8000
003F0000
001E0000
003F0000
007F8000
00FFC000
00F3C000
01E3E000
03E1F000
07C0F000
0780F800
0F807C00
1F003E00
1E003E00
3C001F00
7C000F80
F8000780
F00007C0
ENDCHAR
STARTCHAR 0059
ENCODING 89
SWIDTH 672 0
DWIDTH 28 0
BBX 27 30 0 0
BITMAP
F80001E0
7C0003E0
3C0007C0
3E000780
1F000F00
0F001F00
0F801E00
07C03C00
03C07C00
03E07800
01F0F000
00F1F000
00F9E000
007BC000
003FC000
003F8000
001F0000
000F0000
000F0000
000F0000
000F0000
000F0000
000F0000
000F0000
000F0000
000F0000
000F0000
000F0000
000F0000
000F0000
ENDCHAR
STARTCHAR 005A
ENCODING 90
SWIDTH 600 0
DWIDTH 25 0
BBX 23 30 1 0
BITMAP
3FFFFE
3FFFFE
3FFFFE
3FFFFE
00007C
000078
0000F8
0001F0
0003E0
0007C0
000F80
000F80
001F00
003E00
007C00
00F800
00F800
01F000
03E000
07C000
0F8000
0F8000
1F0000
3E0000
7C0000
F80000
FFFFFE
FFFFFE
FFFFFE
FFFFFE
ENDCHAR
STARTCHAR 005B
ENCODING 91
SWIDTH 288 0
DWIDTH 12 0
BBX 8 38 3 -8
BITMAP
FF
FF
FF
E0
E0
E0
E0
E0
E0
E0
E0
E0
E0
E0
E0
E0
E0
E0
E0
E0
E0
E0
E0
E0
E0
E0
E0
E0
E0
E0
E0
E0
E0
E0
E0
FF
FF
FF
ENDCHAR
STARTCHAR 005C
ENCODING 92
SWIDTH 288 0
DWIDTH 12 0
BBX 12 31 0 -1
BITMAP
E000
E000
7000
7000
7000
3800
3800
3800
3800
1C00
1C00
1C00
0E00
0E00
0E00
0E00
0700
0700
0700
0380
0380
0380
0380
01C0
01C0
01C0
01C0
00E0
00E0
00E0
0070
ENDCHAR
STARTCHAR 005D
ENCODING 93
SWIDTH 288 0
DWIDTH 12 0
BBX 8 38 1 -8
BITMAP
FF
FF
FF
0F
0F
0F
0F
0F
0F
0F
0F
0F
0F
0F
0F
0F
0F
0F
0F
0F
0F
0F
0F
0F
0F
0F
0F
0F
0F
0F
0F
0F
0F
0F
0F
FF
FF
FF
ENDCHAR
STARTCHAR 005E
ENCODING 94
SWIDTH 480 0
DWIDTH 20 0
BBX 17 16 1 14
BITMAP
01E000
03E000
03F000
03F000
077000
077800
0F3800
0E3C00
1E1C00
1C1E00
1C1E00
3C0E00
380F00
780700
700780
F00380
ENDCHAR
STARTCHAR 005F
ENCODING 95
SWIDTH 552 0
DWIDTH 23 0
BBX 25 2 -1 -8
BITMAP
FFFFFF80
FFFFFF80
ENDCHAR
STARTCHAR 0060
ENCODING 96
SWIDTH 336 0
DWIDTH 14 0
BBX 7 6 2 24
BITMAP
F8
78
3C
1C
1E
0E
ENDCHAR
STARTCHAR 0061
ENCODING 97
SWIDTH 552 0
DWIDTH 23 0
BBX 19 22 2 0
BITMAP
03FC00
1FFF00
3FFF80
7C0FC0
7803C0
F003C0
F001C0
0001C0
0003C0
00FFC0
0FFFC0
3FFDC0
7F81C0
F801C0
F003C0
E003C0
E003C0
F007C0
F00FC0
FE7FE0
7FF9E0
3FF1E0
ENDCHAR
STARTCHAR 0062
ENCODING 98
SWIDTH 552 0
DWIDTH 23 0
BBX 18 30 3 0
BITMAP
E00000
E00000
E00000
E00000
E00000
E00000
E00000
E00000
E3F800
E7FE00
EFFF00
FE1F00
F80780
F00780
F003C0
F003C0
E001C0
E001C0
E001C0
E001C0
E001C0
E001C0
E003C0
F003C0
F003C0
F80780
FC0F00
FFFF00
EFFE00
E7F800
ENDCHAR
STARTCHAR 0063
ENCODING 99
SWIDTH 504 0
DWIDTH 21 0
BBX 18 22 2 0
BITMAP
03F800
0FFE00
1FFF00
3E0F80
780780
7803C0
F003C0
F00000
F00000
E00000
E00000
E00000
E00000
F00000
F001C0
F001C0
F003C0
7803C0
7C0780
3FFF00
1FFE00
07FC00
ENDCHAR
STARTCHAR 0064
ENCODING 100
SWIDTH 552 0
DWIDTH 23 0
BBX 19 30 1 0
BITMAP
0000E0
0000E0
0000E0
0000E0
0000E0
0000E0
0000E0
0000E0
03F8E0
0FFCE0
1FFEE0
1F0FE0
3C03E0
7803E0
7801E0
7801E0
7000E0
7000E0
F000E0
F000E0
F000E0
7000E0
7800E0
7801E0
7801E0
3C03E0
3E07E0
1FFFE0
0FFEE0
03FCE0
ENDCHAR
STARTCHAR 0065
ENCODING 101
SWIDTH 552 0
DWIDTH 23 0
BBX 19 22 2 0
BITMAP
03F800
0FFE00
1FFF00
3E0F80
7C03C0
7801C0
F001E0
F001E0
F000E0
FFFFE0
FFFFE0
FFFFE0
E00000
F00000
F00000
F001E0
F801E0
7803E0
7C07C0
3FFF80
1FFF00
07FE00
ENDCHAR
STARTCHAR 0066
ENCODING 102
SWIDTH 288 0
DWIDTH 12 0
BBX 13 30 0 0
BITMAP
03F8
07F8
0FF8
0F00
0F00
0E00
0E00
0E00
FFE0
FFE0
FFE0
0E00
0E00
0E00
0E00
0E00
0E00
0E00
0E00
0E00
0E00
0E00
0E00
0E00
0E00
0E00
0E00
0E00
0E00
0E00
ENDCHAR
STARTCHAR 0067
ENCODING 103
SWIDTH 552 0
DWIDTH 23 0
BBX 19 31 1 -9
BITMAP
03F8E0
0FFEE0
1FFFE0
1F0FE0
3C03E0
7801E0
7801E0
7800E0
7000E0
F000E0
F000E0
F000E0
F000E0
7000E0
7800E0
7801E0
7801E0
3C03E0
1F0FE0
1FFEE0
0FFCE0
03F0E0
0000E0
0000E0
7801E0
7801E0
7C03C0
3F0FC0
1FFF80
0FFE00
01F000
ENDCHAR
STARTCHAR 0068
ENCODING 104
SWIDTH 552 0
DWIDTH 23 0
BBX 17 30 3 0
BITMAP
E00000
E00000
E00000
E00000
E00000
E00000
E00000
E00000
E1F800
E7FE00
EFFF00
FE1F80
F80780
F00780
F00380
F00380
F00380
E00380
E00380
E00380
E00380
E00380
E00380
E00380
E00380
E00380
E00380
E00380
E00380
E00380
ENDCHAR
STARTCHAR 0069
ENCODING 105
SWIDTH 216 0
DWIDTH 9 0
BBX 3 30 3 0
BITMAP
E0
E0
E0
E0
00
00
00
00
E0
E0
E0
E0
E0
E0
E0
E0
E0
E0
E0
E0
E0
E0
E0
E0
E0
E0
E0
E0
E0
E0
ENDCHAR
STARTCHAR 006A
ENCODING 106
SWIDTH 216 0
DWIDTH 9 0
BBX 8 39 -2 -9
BITMAP
07
07
07
07
00
00
00
00
07
07
07
07
07
07
07
07
07
07
07
07
07
07
07
07
07
07
07
07
07
07
07
07
07
07
0F
5F
FE
FE
78
ENDCHAR
STARTCHAR 006B
ENCODING 107
SWIDTH 504 0
DWIDTH 21 0
BBX 17 30 3 0
BITMAP
E00000
E00000
E00000
E00000
E00000
E00000
E00000
E00000
E00F80
E01F00
E03E00
E07C00
E0F800
E1F000
E3E000
E7C000
EF8000
FF8000
FFC000
FBE000
F1E000
E0F000
E0F800
E07800
E03C00
E03E00
E01E00
E00F00
E00F80
E00780
ENDCHAR
STARTCHAR 006C
ENCODING 108
SWIDTH 216 0
DWIDTH 9 0
BBX 3 30 3 0
BITMAP
E0
E0
E0
E0
E0
E0
E0
E0
E0
E0
E0
E0
E0
E0
E0
E0
E0
E0
E0
E0
E0
E0
E0
E0
E0
E0
E0
E0
E0
E0
ENDCHAR
STARTCHAR 006D
ENCODING 109
SWIDTH 840 0
DWIDTH 35 0
BBX 29 22 3 0
BITMAP
E1F81FC0
E7FC3FE0
EFFE7FF0
FE1FE1F0
F80FC078
F00F8078
F00F8078
F0070078
F0070078
E0070078
E0070078
E0070078
E0070078
E0070078
E0070078
E0070078
E0070078
E0070078
E0070078
E0070078
E0070078
E0070078
ENDCHAR
STARTCHAR 006E
ENCODING 110
SWIDTH 552 0
DWIDTH 23 0
BBX 17 22 3 0
BITMAP
E1F800
E7FE00
EFFF00
FE1F80
F80780
F00780
F00780
F00380
F00380
E00380
E00380
E00380
E00380
E00380
E00380
E00380
E00380
E00380
E00380
E00380
E00380
E00380
ENDCHAR
STARTCHAR 006F
ENCODING 111
SWIDTH 552 0
DWIDTH 23 0
BBX 21 22 1 0
BITMAP
01FC00
07FF00
0FFFC0
1F07C0
3C01E0
7C01F0
7800F0
7800F0
700070
F00078
F00078
F00078
F00078
700078
780070
7800F0
7800F0
3C01E0
3E03E0
1FFFC0
0FFF80
03FE00
ENDCHAR
STARTCHAR 0070
ENCODING 112
SWIDTH 552 0
DWIDTH 23 0
BBX 19 30 3 -8
BITMAP
E3F800
E7FE00
EFFF00
FC0F00
F80780
F003C0
F003C0
F003C0
E001C0
E001C0
E001E0
E001E0
E001C0
E001C0
E003C0
F003C0
F003C0
F80780
FC0F00
FFFF00
EFFE00
E7F800
E00000
E00000
E00000
E00000
E00000
E00000
E00000
E00000
ENDCHAR
STARTCHAR 0071
ENCODING 113
SWIDTH 552 0
DWIDTH 23 0
BBX 19 30 1 -8
BITMAP
03F8E0
07FCE0
1FFEE0
1E0FE0
3C03E0
7803E0
7801E0
7801E0
7000E0
7000E0
F000E0
F000E0
7000E0
7000E0
7800E0
7801E0
7801E0
3C03E0
3E07E0
1FFFE0
0FFEE0
03F8E0
0000E0
0000E0
0000E0
0000E0
0000E0
0000E0
0000E0
0000E0
ENDCHAR
STARTCHAR 0072
ENCODING 114
SWIDTH 336 0
DWIDTH 14 0
BBX 11 22 3 0
BITMAP
E3C0
EFE0
EFE0
FFE0
F800
F000
F000
F000
F000
E000
E000
E000
E000
E000
E000
E000
E000
E000
E000
E000
E000
E000
ENDCHAR
STARTCHAR 0073
ENCODING 115
SWIDTH 504 0
DWIDTH 21 0
BBX 18 22 1 0
BITMAP
07F800
1FFE00
3FFF00
3C0F80
780780
700380
780000
780000
7F0000
3FF000
1FFE00
07FF00
00FF80
000FC0
0003C0
7003C0
F003C0
7803C0
7C07C0
3FFF80
1FFF00
0FFC00
ENDCHAR
STARTCHAR 0074
ENCODING 116
SWIDTH 288 0
DWIDTH 12 0
BBX 10 29 1 0
BITMAP
0400
1C00
3C00
3C00
3C00
3C00
3C00
FFC0
FFC0
FFC0
3C00
3C00
3C00
3C00
3C00
3C00
3C00
3C00
3C00
3C00
3C00
3C00
3C00
3C00
3C00
1E00
1FC0
1FC0
0FC0
ENDCHAR
STARTCHAR 0075
ENCODING 117
SWIDTH 552 0
DWIDTH 23 0
BBX 17 22 3 0
BITMAP
E00380
E00380
E00380
E00380
E00380
E00380
E00380
E00380
E00380
E00380
E00380
E00380
E00380
E00780
E00780
E00780
F00780
F00F80
F81F80
7FFB80
3FF380
1FE380
ENDCHAR
STARTCHAR 0076
ENCODING 118
SWIDTH 504 0
DWIDTH 21 0
BBX 19 22 1 0
BITMAP
E000E0
F001E0
F001E0
7803C0
7803C0
780380
3C0780
3C0780
1C0700
1E0F00
1E0F00
0E0E00
0F1E00
071C00
073C00
07BC00
03B800
03F800
03F000
01F000
01F000
00E000
ENDCHAR
STARTCHAR 0077
ENCODING 119
SWIDTH 720 0
DWIDTH 30 0
BBX 30 22 0 0
BITMAP
F007803C
F0078038
7007C038
780FC078
780FC070
380FC070
3C0FE0F0
3C1DE0F0
1C1CE0E0
1C1CE0E0
1E3CF1E0
1E38F1C0
0E3871C0
0F3873C0
0F787B80
07707B80
07703F80
07F03F00
03E03F00
03E01F00
03E01E00
01E01E00
ENDCHAR
STARTCHAR 0078
ENCODING 120
SWIDTH 504 0
DWIDTH 21 0
BBX 19 22 1 0
BITMAP
F803E0
7803C0
7C0780
3E0F80
1E0F00
1F1E00
0F3C00
07BC00
03F800
03F000
01F000
01F000
03F800
07FC00
07BC00
0F1E00
1E1F00
3E0F00
3C0780
7807C0
F803C0
F001E0
ENDCHAR
STARTCHAR 0079
ENCODING 121
SWIDTH 504 0
DWIDTH 21 0
BBX 19 31 1 -9
BITMAP
F000E0
F001E0
F001E0
7801C0
7803C0
3803C0
3C0380
3C0780
1E0700
1E0F00
1E0F00
0F0E00
0F1E00
071E00
079C00
07BC00
03B800
03F800
01F800
01F000
01F000
00F000
00E000
01E000
01C000
01C000
03C000
7F8000
7F0000
7F0000
3C0000
ENDCHAR
STARTCHAR 007A
ENCODING 122
SWIDTH 504 0
DWIDTH 21 0
BBX 19 22 1 0
BITMAP
7FFFC0
7FFFC0
7FFFC0
0007C0
000F80
000F00
001E00
003C00
007800
00F800
01F000
03E000
07C000
078000
0F0000
1E0000
3E0000
7C0000
F80000
FFFFE0
FFFFE0
FFFFE0
ENDCHAR
STARTCHAR 007B
ENCODING 123
SWIDTH 336 0
DWIDTH 14 0
BBX 12 39 1 -9
BITMAP
01F0
03F0
07F0
0780
0700
0F00
0F00
0F00
0F00
0F00
0F00
0F00
0F00
0F00
0E00
0E00
1E00
FC00
F800
F000
FC00
3C00
1E00
0E00
0F00
0F00
0F00
0F00
0F00
0F00
0F00
0F00
0F00
0700
0700
07C0
07F0
03F0
00F0
ENDCHAR
STARTCHAR 007C
ENCODING 124
SWIDTH 264 0
DWIDTH 11 0
BBX 3 39 4 -9
BITMAP
E0
E0
E0
E0
E0
E0
E0
E0
E0
E0
E0
E0
E0
E0
E0
E0
E0
E0
E0
E0
E0
E0
E0
E0
E0
E0
E0
E0
E0
E0
E0
E0
E0
E0
E0
E0
E0
E0
E0
ENDCHAR
STARTCHAR 007D
ENCODING 125
SWIDTH 336 0
DWIDTH 14 0
BBX 12 39 1 -9
BITMAP
F800
FC00
FE00
1E00
0E00
0E00
0F00
0F00
0F00
0F00
0F00
0F00
0F00
0F00
0F00
0700
0780
03E0
01F0
00F0
03F0
0780
0700
0700
0F00
0F00
0F00
0F00
0F00
0F00
0F00
0E00
0E00
0E00
0E00
7E00
FC00
FC00
F000
ENDCHAR
STARTCHAR 007E
ENCODING 126
SWIDTH 576 0
DWIDTH 24 0
BBX 21 7 2 11
BITMAP
1F0008
7FE018
FFFC78
FFFFF8
E0FFF0
803FE0
000300
ENDCHAR
STARTCHAR 00A0
ENCODING 160
SWIDTH 288 0
DWIDTH 12 0
BBX 0 0 0 0
BITMAP
ENDCHAR
STARTCHAR 00A1
ENCODING 161
SWIDTH 336 0
DWIDTH 14 0
BBX 4 30 5 -8
BITMAP
F0
F0
F0
F0
F0
00
00
00
60
60
60
60
E0
F0
F0
F0
F0
F0
F0
F0
F0
F0
F0
F0
F0
F0
F0
F0
F0
F0
ENDCHAR
STARTCHAR 00A2
ENCODING 162
SWIDTH 552 0
DWIDTH 23 0
BBX 19 38 2 -8
BITMAP
000200
000300
000700
000700
000600
000600
000E00
000C00
03FC00
0FFF00
1FFF80
3E1F80
3C1BC0
783BC0
7831E0
703000
F07000
F06000
F06000
F0E000
F0E000
F0C000
F0C1E0
79C1E0
7981E0
7D83C0
3F87C0
1FBF80
0FFF00
07FC00
076000
060000
060000
0E0000
0E0000
0C0000
1C0000
1C0000
ENDCHAR
STARTCHAR 00A3
ENCODING 163
SWIDTH 552 0
DWIDTH 23 0
BBX 21 30 1 -1
BITMAP
01FF00
07FF80
0FFFC0
1F03E0
1E01E0
3C00F0
3C00F0
3C0060
3C0000
3C0000
3C0000
3E0000
1E0000
1E0000
FFF800
FFF800
FFF800
0F0000
0F0000
0F0000
0F0000
0E0000
0E0000
1E0000
1C0000
380000
FFF830
FFFFF0
FFFFF8
601FF0
ENDCHAR
STARTCHAR 00A4
ENCODING 164
SWIDTH 552 0
DWIDTH 23 0
BBX 19 19 2 6
BITMAP
6000C0
F3F9E0
FFFFE0
7FFFC0
3E0F80
3C0780
7803C0
7803C0
7001C0
7001C0
7001C0
7803C0
380380
3C0780
3FBF80
7FFFC0
FFFFE0
F1F1E0
6000C0
ENDCHAR
STARTCHAR 00A5
ENCODING 165
SWIDTH 552 0
DWIDTH 23 0
BBX 23 30 0 0
BITMAP
F0001E
78003C
78007C
3C0078
3C00F8
1E00F0
0F01E0
0F01E0
0783C0
0783C0
03C780
03C780
01EF00
00EE00
00FE00
7FFFFC
7FFFFC
7FFFFC
003800
003800
003800
7FFFFC
7FFFFC
003800
003800
003800
003800
003800
003800
003800
ENDCHAR
STARTCHAR 00A6
ENCODING 166
SWIDTH 264 0
DWIDTH 11 0
BBX 3 39 4 -9
BITMAP
E0
E0
E0
E0
E0
E0
E0
E0
E0
E0
E0
E0
E0
E0
E0
E0
00
00
00
00
00
00
00
E0
E0
E0
E0
E0
E0
E0
E0
E0
E0
E0
E0
E0
E0
E0
E0
ENDCHAR
STARTCHAR 00A7
ENCODING 167
SWIDTH 552 0
DWIDTH 23 0
BBX 19 39 2 -9
BITMAP
07FC00
0FFE00
1FFF00
3E0F80
3C0780
380780
3803C0
3C0000
3E0000
1F0000
0F8000
1FE000
3FF000
79FC00
F07F00
E03F80
E00FC0
E007C0
F003E0
F001E0
7C00E0
3E00E0
1F80E0
0FE1E0
07F3C0
01FF00
007E00
003F00
001F80
000780
0003C0
7803C0
7803C0
7C03C0
3C0780
3F9F80
1FFF00
07FE00
00F000
ENDCHAR
STARTCHAR 00A8
ENCODING 168
SWIDTH 336 0
DWIDTH 14 0
BBX 12 4 1 26
BITMAP
F0F0
F0F0
F0F0
F0F0
ENDCHAR
STARTCHAR 00A9
ENCODING 169
SWIDTH 744 0
DWIDTH 31 0
BBX 31 30 0 0
BITMAP
001FF800
00FFFE00
01F83F00
07C007C0
0F0001E0
1E0000F0
1C010070
381FF038
303FF838
70783C1C
60F01C1C
60E0080C
E0E0000E
E1C0000E
E1C0000E
E1C0000E
E1C0000E
E0C0000E
E0E00E0C
60E01C1C
70703C1C
303FF838
381FF038
1C07C070
1E0000F0
0F0001E0
07C007C0
03F83F00
00FFFE00
003FF000
ENDCHAR
STARTCHAR 00AA
ENCODING 170
SWIDTH 360 0
DWIDTH 15 0
BBX 13 15 1 15
BITMAP
1FE0
3FF0
7878
7038
0038
00F8
1FF8
7FF8
F838
E038
E078
E0F8
FFF8
7FB8
1E00
ENDCHAR
STARTCHAR 00AB
ENCODING 171
SWIDTH 552 0
DWIDTH 23 0
BBX 17 19 3 1
BITMAP
038380
070700
0F0F00
0E0E00
1E1E00
3C3C00
383800
787800
F0F000
F0F000
787800
787800
3C3C00
1C1C00
1E1E00
0E0E00
070700
078780
038380
ENDCHAR
STARTCHAR 00AC
ENCODING 172
SWIDTH 576 0
DWIDTH 24 0
BBX 20 12 2 9
BITMAP
FFFFF0
FFFFF0
FFFFF0
000070
000070
000070
000070
000070
000070
000070
000070
000070
ENDCHAR
STARTCHAR 00AD
ENCODING 173
SWIDTH 336 0
DWIDTH 14 0
BBX 12 4 1 9
BITMAP
FFF0
FFF0
FFF0
FFF0
ENDCHAR
STARTCHAR 00AE
ENCODING 174
SWIDTH 744 0
DWIDTH 31 0
BBX 31 30 0 0
BITMAP
001FF800
00FFFE00
01F83F00
07C007C0
0F0001E0
1E0000F0
1C000070
387FE038
307FF038
7060781C
6060381C
6060180C
E060380E
E060380E
E07FF00E
E07FE00E
E067800E
E060E00E
E060E00C
6060701C
7060381C
30603838
38601C38
1C601E70
1E0000F0
0F0001E0
07C007C0
03F83F00
00FFFE00
003FF000
ENDCHAR
STARTCHAR 00AF
ENCODING 175
SWIDTH 552 0
DWIDTH 23 0
BBX 25 3 -1 32
BITMAP
FFFFFF80
FFFFFF80
FFFFFF80
ENDCHAR
STARTCHAR 00B0
ENCODING 176
SWIDTH 408 0
DWIDTH 17 0
BBX 11 11 3 19
BITMAP
3F00
7F80
E1C0
C0E0
C060
C060
C0E0
E0C0
71C0
7F80
1E00
ENDCHAR
STARTCHAR 00B1
ENCODING 177
SWIDTH 552 0
DWIDTH 23 0
BBX 19 25 2 0
BITMAP
00E000
00E000
00E000
00E000
00E000
00E000
00E000
00E000
FFFFE0
FFFFE0
FFFFE0
FFFFE0
00E000
00E000
00E000
00E000
00E000
00E000
00E000
00E000
000000
000000
FFFFE0
FFFFE0
FFFFE0
ENDCHAR
STARTCHAR 00B2
ENCODING 178
SWIDTH 336 0
DWIDTH 14 0
BBX 12 15 1 15
BITMAP
1FC0
7FE0
78F0
E070
0070
0070
00E0
01E0
07C0
0F00
1E00
3C00
7000
FFF0
FFF0
ENDCHAR
STARTCHAR 00B3
ENCODING 179
SWIDTH 336 0
DWIDTH 14 0
BBX 12 15 1 15
BITMAP
3FC0
7FE0
71E0
E0E0
00E0
01E0
07C0
07C0
00E0
0070
0070
E070
F0F0
7FE0
3FC0
ENDCHAR
STARTCHAR 00B4
ENCODING 180
SWIDTH 336 0
DWIDTH 14 0
BBX 7 6 5 24
BITMAP
3E
3C
78
70
E0
E0
ENDCHAR
STARTCHAR 00B5
ENCODING 181
SWIDTH 576 0
DWIDTH 24 0
BBX 18 30 3 -8
BITMAP
F003C0
F003C0
F003C0
F003C0
F003C0
F003C0
F003C0
F003C0
F003C0
F003C0
F003C0
F003C0
F003C0
F003C0
F003C0
F003C0
F807C0
F807C0
FC1FC0
FFFFC0
FFFFC0
F7FBC0
F00000
F00000
F00000
F00000
F00000
F00000
F00000
F00000
ENDCHAR
STARTCHAR 00B6
ENCODING 182
SWIDTH 528 0
DWIDTH 22 0
BBX 23 38 0 -8
BITMAP
01FFFE
0FFFFE
3FFFFE
3FFFFE
7FF0F0
7FF0F0
FFF0F0
FFF0F0
FFF0F0
FFF0F0
FFF0F0
FFF0F0
7FF0F0
7FF0F0
3FF0F0
1FF0F0
07F0F0
00F0F0
00F0F0
00F0F0
00F0F0
00F0F0
00F0F0
00F0F0
00F0F0
00F0F0
00F0F0
00F0F0
00F0F0
00F0F0
00F0F0
00F0F0
00F0F0
00F0F0
00F0F0
00F0F0
00F0F0
00F0F0
ENDCHAR
STARTCHAR 00B7
ENCODING 183
SWIDTH 288 0
DWIDTH 12 0
BBX 4 4 4 13
BITMAP
F0
F0
F0
F0
ENDCHAR
STARTCHAR 00B8
ENCODING 184
SWIDTH 336 0
DWIDTH 14 0
BBX 9 9 2 -9
BITMAP
1C00
1C00
1F00
0780
0380
0780
FF00
FE00
3000
ENDCHAR
STARTCHAR 00B9
ENCODING 185
SWIDTH 336 0
DWIDTH 14 0
BBX 8 15 2 15
BITMAP
07
0F
3F
FF
F7
C7
07
07
07
07
07
07
07
07
07
ENDCHAR
STARTCHAR 00BA
ENCODING 186
SWIDTH 360 0
DWIDTH 15 0
BBX 13 15 1 15
BITMAP
1FC0
3FE0
7DF0
7078
E038
E038
E038
E038
E038
E038
F038
7070
7FF0
3FE0
0F80
ENDCHAR
STARTCHAR 00BB
ENCODING 187
SWIDTH 552 0
DWIDTH 23 0
BBX 17 19 3 1
BITMAP
E0E000
707000
787800
383800
3C3C00
1E1E00
0E1E00
0F0F00
078780
078780
0F0F00
0F0F00
1E1E00
1C1C00
3C3C00
383800
707000
F0F000
E0E000
ENDCHAR
STARTCHAR 00BC
ENCODING 188
SWIDTH 840 0
DWIDTH 35 0
BBX 32 31 2 -1
BITMAP
07000070
0F0000E0
3F0000E0
FF0001C0
F7000380
C7000780
07000700
07000E00
07001C00
07001C00
07003800
07007000
0700F000
0700E000
0701C000
0003801C
0003801C
0007003C
000E007C
001E00FC
001C01FC
003803DC
0070079C
0070071C
00E00E1C
01C01FFF
03C01FFF
0380001F
0700001C
0F00001C
0E00001C
ENDCHAR
STARTCHAR 00BD
ENCODING 189
SWIDTH 840 0
DWIDTH 35 0
BBX 32 31 2 -1
BITMAP
070000F0
0F0000E0
3F0001C0
FF0003C0
F7000380
C7000700
07000E00
07001E00
07001C00
07003800
07007800
07007000
0700E000
0701C000
0703C000
00038060
000703FC
000F07FE
000E0F0F
001C0E07
00380007
0038000F
0070001E
00E0003C
01E000F8
01C001F0
038003C0
07000780
07000FFF
0E000FFF
1C001FFF
ENDCHAR
STARTCHAR 00BE
ENCODING 190
SWIDTH 840 0
DWIDTH 35 0
BBX 33 31 1 -1
BITMAP
3FC0003800
7FE0007000
71E0007000
E0E000E000
00E001C000
01E003C000
07C0038000
07C0070000
00E00E0000
00700E0000
00701C0000
E070380000
F0F0780000
7FE0700000
3FC0E00000
0001C00E00
0001C00E00
0003801E00
0007003E00
000F007E00
000E00FE00
001C01EE00
003803CE00
0038038E00
0070070E00
00E00FFF80
01E00FFF80
01C0000F80
0380000E00
0780000E00
0700000E00
ENDCHAR
STARTCHAR 00BF
ENCODING 191
SWIDTH 600 0
DWIDTH 25 0
BBX 19 31 3 -9
BITMAP
00F000
00F000
00F000
00F000
00F000
000000
000000
000000
00F000
00F000
00F000
00E000
01E000
03E000
07C000
0F8000
1F0000
3E0000
7C0000
780000
700000
F00000
F000E0
F001E0
F001E0
7803E0
7C07C0
3F9F80
1FFF00
0FFE00
01F000
ENDCHAR
STARTCHAR 00C0
ENCODING 192
SWIDTH 672 0
DWIDTH 28 0
BBX 28 37 0 0
BITMAP
003C0000
001E0000
001E0000
000F0000
00070000
00000000
00000000
001F0000
001F0000
003F8000
003F8000
003B8000
007BC000
007BC000
0071E000
00F1E000
00F0E000
01E0F000
01E0F000
01E07800
03C07800
03C07C00
03803C00
07803C00
07801E00
0FFFFE00
0FFFFF00
0FFFFF00
1E000F00
1E000F80
3C000780
3C0007C0
3C0003C0
780003C0
780003E0
780001E0
F00001F0
ENDCHAR
STARTCHAR 00C1
ENCODING 193
SWIDTH 672 0
DWIDTH 28 0
BBX 28 37 0 0
BITMAP
0007C000
00078000
000F0000
000E0000
001E0000
00000000
00000000
001F0000
001F0000
003F8000
003F8000
003B8000
007BC000
007BC000
0071E000
00F1E000
00F0E000
01E0F000
01E0F000
01E07800
03C07800
03C07C00
03803C00
07803C00
07801E00
0FFFFE00
0FFFFF00
0FFFFF00
1E000F00
1E000F80
3C000780
3C0007C0
3C0003C0
780003C0
780003E0
780001E0
F00001F0
ENDCHAR
STARTCHAR 00C2
ENCODING 194
SWIDTH 672 0
DWIDTH 28 0
BBX 28 37 0 0
BITMAP
001F0000
003F8000
007BC000
00F1C000
00F1E000
00000000
00000000
001F0000
001F0000
003F8000
003F8000
003B8000
007BC000
007BC000
0071E000
00F1E000
00F0E000
01E0F000
01E0F000
01E07800
03C07800
03C07C00
03803C00
07803C00
07801E00
0FFFFE00
0FFFFF00
0FFFFF00
1E000F00
1E000F80
3C000780
3C0007C0
3C0003C0
780003C0
780003E0
780001E0
F00001F0
ENDCHAR
STARTCHAR 00C3
ENCODING 195
SWIDTH 672 0
DWIDTH 28 0
BBX 28 36 0 0
BITMAP
007C3800
00FFF000
01EFF000
01C3E000
00000000
00000000
001F0000
001F0000
003F8000
003F8000
003B8000
007BC000
007BC000
0071E000
00F1E000
00F0E000
01E0F000
01E0F000
01E07800
03C07800
03C07C00
03803C00
07803C00
07801E00
0FFFFE00
0FFFFF00
0FFFFF00
1E000F00
1E000F80
3C000780
3C0007C0
3C0003C0
780003C0
780003E0
780001E0
F00001F0
ENDCHAR
STARTCHAR 00C4
ENCODING 196
SWIDTH 672 0
DWIDTH 28 0
BBX 28 36 0 0
BITMAP
00F1E000
00F1E000
00F1E000
00F1E000
00000000
00000000
001F0000
001F0000
003F8000
003F8000
003B8000
007BC000
007BC000
0071E000
00F1E000
00F0E000
01E0F000
01E0F000
01E07800
03C07800
03C07C00
03803C00
07803C00
07801E00
0FFFFE00
0FFFFF00
0FFFFF00
1E000F00
1E000F80
3C000780
3C0007C0
3C0003C0
780003C0
780003E0
780001E0
F00001F0
ENDCHAR
STARTCHAR 00C5
ENCODING 197
SWIDTH 672 0
DWIDTH 28 0
BBX 28 36 0 0
BITMAP
001F0000
003B8000
00318000
00208000
00318000
003B8000
001F0000
001F0000
003F8000
003F8000
003B8000
007BC000
007BC000
0071E000
00F1E000
00F0E000
01E0F000
01E0F000
01E07800
03C07800
03C07C00
03803C00
07803C00
07801E00
0FFFFE00
0FFFFF00
0FFFFF00
1E000F00
1E000F80
3C000780
3C0007C0
3C0003C0
780003C0
780003E0
780001E0
F00001F0
ENDCHAR
STARTCHAR 00C6
ENCODING 198
SWIDTH 1008 0
DWIDTH 42 0
BBX 39 30 0 0
BITMAP
0003FFFFFE
0003FFFFFE
0007FFFFFE
0007FFFFFE
000F8F0000
000F0F0000
001F0F0000
001E0F0000
003E0F0000
003C0F0000
007C0F0000
00780F0000
00F80F0000
00F00FFFFC
01F00FFFFC
01E00FFFFC
01E00F0000
03C00F0000
03FFFF0000
07FFFF0000
07FFFF0000
0F000F0000
0F000F0000
1E000F0000
1E000F0000
3C000F0000
3C000FFFFE
78000FFFFE
78000FFFFE
F8000FFFFE
ENDCHAR
STARTCHAR 00C7
ENCODING 199
SWIDTH 720 0
DWIDTH 30 0
BBX 26 39 2 -9
BITMAP
007FE000
01FFF800
07FFFC00
0FE07E00
1F801F00
1E000F80
3C000780
3C0007C0
78000380
78000000
78000000
F0000000
F0000000
F0000000
F0000000
F0000000
F0000000
F0000000
F0000000
78000000
780003C0
780003C0
3C0003C0
3C000780
3E000F80
1F001F00
0FC07E00
07FFFE00
03FFF800
00FFE000
001C0000
001C0000
001F0000
00078000
00038000
00078000
007F8000
00FF0000
00300000
ENDCHAR
STARTCHAR 00C8
ENCODING 200
SWIDTH 672 0
DWIDTH 28 0
BBX 23 37 3 0
BITMAP
01F000
00F000
007800
003800
001C00
000000
000000
FFFFFC
FFFFFC
FFFFFC
FFFFFC
F00000
F00000
F00000
F00000
F00000
F00000
F00000
F00000
F00000
FFFFF8
FFFFF8
FFFFF8
F00000
F00000
F00000
F00000
F00000
F00000
F00000
F00000
F00000
F00000
FFFFFE
FFFFFE
FFFFFE
FFFFFE
ENDCHAR
STARTCHAR 00C9
ENCODING 201
SWIDTH 672 0
DWIDTH 28 0
BBX 23 37 3 0
BITMAP
001E00
003C00
003C00
007800
007000
000000
000000
FFFFFC
FFFFFC
FFFFFC
FFFFFC
F00000
F00000
F00000
F00000
F00000
F00000
F00000
F00000
F00000
FFFFF8
FFFFF8
FFFFF8
F00000
F00000
F00000
F00000
F00000
F00000
F00000
F00000
F00000
F00000
FFFFFE
FFFFFE
FFFFFE
FFFFFE
ENDCHAR
STARTCHAR 00CA
ENCODING 202
SWIDTH 672 0
DWIDTH 28 0
BBX 23 37 3 0
BITMAP
007C00
00FE00
01EF00
03CF00
03C780
040000
000000
FFFFFC
FFFFFC
FFFFFC
FFFFFC
F00000
F00000
F00000
F00000
F00000
F00000
F00000
F00000
F00000
FFFFF8
FFFFF8
FFFFF8
F00000
F00000
F00000
F00000
F00000
F00000
F00000
F00000
F00000
F00000
FFFFFE
FFFFFE
FFFFFE
FFFFFE
ENDCHAR
STARTCHAR 00CB
ENCODING 203
SWIDTH 672 0
DWIDTH 28 0
BBX 23 36 3 0
BITMAP
038780
038780
038780
038780
000000
000000
FFFFFC
FFFFFC
FFFFFC
FFFFFC
F00000
F00000
F00000
F00000
F00000
F00000
F00000
F00000
F00000
FFFFF8
FFFFF8
FFFFF8
F00000
F00000
F00000
F00000
F00000
F00000
F00000
F00000
F00000
F00000
FFFFFE
FFFFFE
FFFFFE
FFFFFE
ENDCHAR
STARTCHAR 00CC
ENCODING 204
SWIDTH 288 0
DWIDTH 12 0
BBX 6 37 2 0
BITMAP
F0
78
78
3C
1C
00
00
3C
3C
3C
3C
3C
3C
3C
3C
3C
3C
3C
3C
3C
3C
3C
3C
3C
3C
3C
3C
3C
3C
3C
3C
3C
3C
3C
3C
3C
3C
ENDCHAR
STARTCHAR 00CD
ENCODING 205
SWIDTH 288 0
DWIDTH 12 0
BBX 7 37 3 0
BITMAP
3E
3C
78
70
F0
00
00
78
78
78
78
78
78
78
78
78
78
78
78
78
78
78
78
78
78
78
78
78
78
78
78
78
78
78
78
78
78
ENDCHAR
STARTCHAR 00CE
ENCODING 206
SWIDTH 288 0
DWIDTH 12 0
BBX 12 37 0 0
BITMAP
1F00
3F80
3BC0
79E0
F0F0
0000
0000
0F00
0F00
0F00
0F00
0F00
0F00
0F00
0F00
0F00
0F00
0F00
0F00
0F00
0F00
0F00
0F00
0F00
0F00
0F00
0F00
0F00
0F00
0F00
0F00
0F00
0F00
0F00
0F00
0F00
0F00
ENDCHAR
STARTCHAR 00CF
ENCODING 207
SWIDTH 288 0
DWIDTH 12 0
BBX 12 36 0 0
BITMAP
F0F0
F0F0
F0F0
F0F0
0000
0000
0F00
0F00
0F00
0F00
0F00
0F00
0F00
0F00
0F00
0F00
0F00
0F00
0F00
0F00
0F00
0F00
0F00
0F00
0F00
0F00
0F00
0F00
0F00
0F00
0F00
0F00
0F00
0F00
0F00
0F00
ENDCHAR
STARTCHAR 00D0
ENCODING 208
SWIDTH 720 0
DWIDTH 30 0
BBX 28 30 0 0
BITMAP
1FFFC000
1FFFF800
1FFFFE00
1FFFFF00
1E001F80
1E000FC0
1E0007C0
1E0003E0
1E0001E0
1E0001E0
1E0001F0
1E0000F0
1E0000F0
1E0000F0
FFFE00F0
FFFE00F0
1E0000F0
1E0000F0
1E0000F0
1E0001E0
1E0001E0
1E0001E0
1E0003E0
1E0003C0
1E0007C0
1E001F80
1FFFFF00
1FFFFE00
1FFFF800
1FFFE000
ENDCHAR
STARTCHAR 00D1
ENCODING 209
SWIDTH 720 0
DWIDTH 30 0
BBX 24 36 3 0
BITMAP
01F860
01FFE0
03FFE0
0387C0
000000
000000
F0000F
F8000F
FC000F
FC000F
FE000F
FF000F
FF000F
F7800F
F7C00F
F3C00F
F1E00F
F1F00F
F0F00F
F0780F
F07C0F
F03C0F
F01E0F
F01F0F
F00F0F
F0078F
F007CF
F003EF
F001EF
F001FF
F000FF
F0007F
F0007F
F0003F
F0001F
F0001F
ENDCHAR
STARTCHAR 00D2
ENCODING 210
SWIDTH 768 0
DWIDTH 32 0
BBX 29 37 2 -1
BITMAP
007C0000
003E0000
001E0000
000F0000
00070000
00000000
00000000
007FE000
01FFFC00
03FFFE00
0FE07F00
1F800F80
1F0007C0
3E0003E0
3C0001E0
780001E0
780000F0
780000F0
F00000F0
F00000F0
F00000F8
F00000F8
F00000F8
F00000F8
F00000F0
F00000F0
F80000F0
780000F0
780001E0
3C0001E0
3E0003E0
1F0007C0
1F800F80
0FE03F00
07FFFE00
01FFFC00
007FF000
ENDCHAR
STARTCHAR 00D3
ENCODING 211
SWIDTH 768 0
DWIDTH 32 0
BBX 29 37 2 -1
BITMAP
0003E000
0003C000
00078000
00070000
000E0000
00000000
00000000
007FE000
01FFFC00
03FFFE00
0FE07F00
1F800F80
1F0007C0
3E0003E0
3C0001E0
780001E0
780000F0
780000F0
F00000F0
F00000F0
F00000F8
F00000F8
F00000F8
F00000F8
F00000F0
F00000F0
F80000F0
780000F0
780001E0
3C0001E0
3E0003E0
1F0007C0
1F800F80
0FE03F00
07FFFE00
01FFFC00
007FF000
ENDCHAR
STARTCHAR 00D4
ENCODING 212
SWIDTH 768 0
DWIDTH 32 0
BBX 29 37 2 -1
BITMAP
001F8000
001FC000
003DC000
0079E000
00F0F000
00000000
00000000
007FE000
01FFFC00
03FFFE00
0FE07F00
1F800F80
1F0007C0
3E0003E0
3C0001E0
780001E0
780000F0
780000F0
F00000F0
F00000F0
F00000F8
F00000F8
F00000F8
F00000F8
F00000F0
F00000F0
F80000F0
780000F0
780001E0
3C0001E0
3E0003E0
1F0007C0
1F800F80
0FE03F00
07FFFE00
01FFFC00
007FF000
ENDCHAR
STARTCHAR 00D5
ENCODING 213
SWIDTH 768 0
DWIDTH 32 0
BBX 29 36 2 -1
BITMAP
007E3800
00FFF800
00FFF000
00C3E000
00000000
00000000
007FE000
01FFFC00
03FFFE00
0FE07F00
1F800F80
1F0007C0
3E0003E0
3C0001E0
780001E0
780000F0
780000F0
F00000F0
F00000F0
F00000F8
F00000F8
F00000F8
F00000F8
F00000F0
F00000F0
F80000F0
780000F0
780001E0
3C0001E0
3E0003E0
1F0007C0
1F800F80
0FE03F00
07FFFE00
01FFFC00
007FF000
ENDCHAR
STARTCHAR 00D6
ENCODING 214
SWIDTH 768 0
DWIDTH 32 0
BBX 29 36 2 -1
BITMAP
00F0F000
00F0F000
00F0F000
00F0F000
00000000
00000000
007FE000
01FFFC00
03FFFE00
0FE07F00
1F800F80
1F0007C0
3E0003E0
3C0001E0
780001E0
780000F0
780000F0
F00000F0
F00000F0
F00000F8
F00000F8
F00000F8
F00000F8
F00000F0
F00000F0
F80000F0
780000F0
780001E0
3C0001E0
3E0003E0
1F0007C0
1F800F80
0FE03F00
07FFFE00
01FFFC00
007FF000
ENDCHAR
STARTCHAR 00D7
ENCODING 215
SWIDTH 576 0
DWIDTH 24 0
BBX 18 18 3 6
BITMAP
000100
300380
7807C0
7C0F80
3E1F00
1F3E00
0FFC00
07F800
03F000
03F000
07F800
0FFC00
1F3E00
3E1F00
7C0F80
F807C0
700380
200100
ENDCHAR
STARTCHAR 00D8
ENCODING 216
SWIDTH 768 0
DWIDTH 32 0
BBX 29 32 2 -1
BITMAP
00000020
007FE038
01FFF870
07FFFEE0
0FE07FC0
1F801FC0
1E0007C0
3E000FC0
3C001FE0
78003DE0
780039F0
F80070F0
F000E0F0
F001C0F0
F003C0F0
F00780F0
F00F00F0
F01E00F0
F03C00F0
F03800F0
F87000F0
78E000F0
79C001E0
3F8001E0
3F8003C0
1F0007C0
1F800F80
3FE03F00
7FFFFE00
71FFFC00
E07FF000
40000000
ENDCHAR
STARTCHAR 00D9
ENCODING 217
SWIDTH 720 0
DWIDTH 30 0
BBX 24 37 3 -1
BITMAP
01F000
00F800
007800
003C00
001C00
000000
000000
F0000F
F0000F
F0000F
F0000F
F0000F
F0000F
F0000F
F0000F
F0000F
F0000F
F0000F
F0000F
F0000F
F0000F
F0000F
F0000F
F0000F
F0000F
F0000F
F0000F
F0000F
78001E
78001E
78001E
7C003E
3E007C
3F81FC
1FFFF8
0FFFF0
03FFC0
ENDCHAR
STARTCHAR 00DA
ENCODING 218
SWIDTH 720 0
DWIDTH 30 0
BBX 24 37 3 -1
BITMAP
000F80
001F00
001E00
003C00
003800
000000
000000
F0000F
F0000F
F0000F
F0000F
F0000F
F0000F
F0000F
F0000F
F0000F
F0000F
F0000F
F0000F
F0000F
F0000F
F0000F
F0000F
F0000F
F0000F
F0000F
F0000F
F0000F
78001E
78001E
78001E
7C003E
3E007C
3F81FC
1FFFF8
0FFFF0
03FFC0
ENDCHAR
STARTCHAR 00DB
ENCODING 219
SWIDTH 720 0
DWIDTH 30 0
BBX 24 37 3 -1
BITMAP
007C00
00FE00
00FF00
01E780
03C3C0
000000
000000
F0000F
F0000F
F0000F
F0000F
F0000F
F0000F
F0000F
F0000F
F0000F
F0000F
F0000F
F0000F
F0000F
F0000F
F0000F
F0000F
F0000F
F0000F
F0000F
F0000F
F0000F
78001E
78001E
78001E
7C003E
3E007C
3F81FC
1FFFF8
0FFFF0
03FFC0
ENDCHAR
STARTCHAR 00DC
ENCODING 220
SWIDTH 720 0
DWIDTH 30 0
BBX 24 36 3 -1
BITMAP
03C3C0
03C3C0
03C3C0
03C3C0
000000
000000
F0000F
F0000F
F0000F
F0000F
F0000F
F0000F
F0000F
F0000F
F0000F
F0000F
F0000F
F0000F
F0000F
F0000F
F0000F
F0000F
F0000F
F0000F
F0000F
F0000F
F0000F
78001E
78001E
78001E
7C003E
3E007C
3F81FC
1FFFF8
0FFFF0
03FFC0
ENDCHAR
STARTCHAR 00DD
ENCODING 221
SWIDTH 672 0
DWIDTH 28 0
BBX 27 37 0 0
BITMAP
0003C000
00078000
00078000
000F0000
000E0000
00000000
00000000
F80001E0
7C0003E0
3C0007C0
3E000780
1F000F00
0F001F00
0F801E00
07C03C00
03C07C00
03E07800
01F0F000
00F1F000
00F9E000
007BC000
003FC000
003F8000
001F0000
000F0000
000F0000
000F0000
000F0000
000F0000
000F0000
000F0000
000F0000
000F0000
000F0000
000F0000
000F0000
000F0000
ENDCHAR
STARTCHAR 00DE
ENCODING 222
SWIDTH 672 0
DWIDTH 28 0
BBX 23 30 3 0
BITMAP
F00000
F00000
F00000
F00000
F00000
F00000
FFFF00
FFFFE0
FFFFF0
FFFFF8
F0007C
F0003C
F0003E
F0001E
F0001E
F0001E
F0001E
F0003E
F0003C
F0007C
FFFFF8
FFFFF0
FFFFE0
FFFF00
F00000
F00000
F00000
F00000
F00000
F00000
ENDCHAR
STARTCHAR 00DF
ENCODING 223
SWIDTH 600 0
DWIDTH 25 0
BBX 21 30 3 -1
BITMAP
07F800
1FFC00
3FFE00
7C1F00
780F00
700700
F00700
F00F00
F00F00
F01E00
F01E00
F03C00
F03C00
F03800
F07800
F03C00
F03E00
F01F80
F00FC0
F007E0
F001F0
F000F8
F00078
F00078
F04078
F1C078
F1E0F8
F1FFF0
F0FFE0
F03FC0
ENDCHAR
STARTCHAR 00E0
ENCODING 224
SWIDTH 552 0
DWIDTH 23 0
BBX 19 30 2 0
BITMAP
07C000
03E000
01E000
00F000
007000
007000
000000
000000
03FC00
1FFF00
3FFF80
7C0FC0
7803C0
F003C0
F001C0
0001C0
0003C0
00FFC0
0FFFC0
3FFDC0
7F81C0
F801C0
F003C0
E003C0
E003C0
F007C0
F00FC0
FE7FE0
7FF9E0
3FF1E0
ENDCHAR
STARTCHAR 00E1
ENCODING 225
SWIDTH 552 0
DWIDTH 23 0
BBX 19 30 2 0
BITMAP
003E00
007C00
007800
00F000
00E000
00E000
000000
000000
03FC00
1FFF00
3FFF80
7C0FC0
7803C0
F003C0
F001C0
0001C0
0003C0
00FFC0
0FFFC0
3FFDC0
7F81C0
F801C0
F003C0
E003C0
E003C0
F007C0
F00FC0
FE7FE0
7FF9E0
3FF1E0
ENDCHAR
STARTCHAR 00E2
ENCODING 226
SWIDTH 552 0
DWIDTH 23 0
BBX 19 30 2 0
BITMAP
01F000
03F800
07B800
07BC00
0F1E00
1E0F00
000000
000000
03FC00
1FFF00
3FFF80
7C0FC0
7803C0
F003C0
F001C0
0001C0
0003C0
00FFC0
0FFFC0
3FFDC0
7F81C0
F801C0
F003C0
E003C0
E003C0
F007C0
F00FC0
FE7FE0
7FF9E0
3FF1E0
ENDCHAR
STARTCHAR 00E3
ENCODING 227
SWIDTH 552 0
DWIDTH 23 0
BBX 19 30 2 0
BITMAP
000300
0FC700
1FFF00
1CFE00
183C00
000000
000000
000000
03FC00
1FFF00
3FFF80
7C0FC0
7803C0
F003C0
F001C0
0001C0
0003C0
00FFC0
0FFFC0
3FFDC0
7F81C0
F801C0
F003C0
E003C0
E003C0
F007C0
F00FC0
FE7FE0
7FF9E0
3FF1E0
ENDCHAR
STARTCHAR 00E4
ENCODING 228
SWIDTH 552 0
DWIDTH 23 0
BBX 19 30 2 0
BITMAP
0F1E00
0F1E00
0F1E00
0F1E00
000000
000000
000000
000000
03FC00
1FFF00
3FFF80
7C0FC0
7803C0
F003C0
F001C0
0001C0
0003C0
00FFC0
0FFFC0
3FFDC0
7F81C0
F801C0
F003C0
E003C0
E003C0
F007C0
F00FC0
FE7FE0
7FF9E0
3FF1E0
ENDCHAR
STARTCHAR 00E5
ENCODING 229
SWIDTH 552 0
DWIDTH 23 0
BBX 19 31 2 0
BITMAP
00E000
01F000
031800
020800
020800
031800
01F000
004000
000000
03FC00
1FFF00
3FFF80
7C0FC0
7803C0
F003C0
F001C0
0001C0
0003C0
00FFC0
0FFFC0
3FFDC0
7F81C0
F801C0
F003C0
E003C0
E003C0
F007C0
F00FC0
FE7FE0
7FF9E0
3FF1E0
ENDCHAR
STARTCHAR 00E6
ENCODING 230
SWIDTH 888 0
DWIDTH 37 0
BBX 34 22 1 0
BITMAP
03FE07F000
0FFF9FFC00
1FFFFFFE00
3E07FC1F00
3C03F80780
7801F00380
7801E003C0
0001E003C0
0001E001C0
007FFFFFC0
07FFFFFFC0
1FFDFFFFC0
3F81E00000
7C01E00000
7801E00000
F001E003C0
F003F003C0
F803F00780
780FF80F80
7F7F3FFF00
3FFC1FFE00
1FF00FF800
ENDCHAR
STARTCHAR 00E7
ENCODING 231
SWIDTH 504 0
DWIDTH 21 0
BBX 18 30 2 -8
BITMAP
03F800
0FFE00
1FFF00
3E0F80
780780
7803C0
F003C0
F00000
F00000
E00000
E00000
E00000
E00000
F00000
F001C0
F001C0
F003C0
7803C0
7C0780
3FFF00
1FFE00
07FC00
01C000
01C000
03F000
007800
007800
00F800
0FF000
0FE000
ENDCHAR
STARTCHAR 00E8
ENCODING 232
SWIDTH 552 0
DWIDTH 23 0
BBX 19 30 2 0
BITMAP
078000
03C000
03C000
01E000
00E000
007000
000000
000000
03F800
0FFE00
1FFF00
3E0F80
7C03C0
7801C0
F001E0
F001E0
F000E0
FFFFE0
FFFFE0
FFFFE0
E00000
F00000
F00000
F001E0
F801E0
7803E0
7C07C0
3FFF80
1FFF00
07FE00
ENDCHAR
STARTCHAR 00E9
ENCODING 233
SWIDTH 552 0
DWIDTH 23 0
BBX 19 30 2 0
BITMAP
003E00
007C00
007800
007000
00E000
00E000
000000
000000
03F800
0FFE00
1FFF00
3E0F80
7C03C0
7801C0
F001E0
F001E0
F000E0
FFFFE0
FFFFE0
FFFFE0
E00000
F00000
F00000
F001E0
F801E0
7803E0
7C07C0
3FFF80
1FFF00
07FE00
ENDCHAR
STARTCHAR 00EA
ENCODING 234
SWIDTH 552 0
DWIDTH 23 0
BBX 19 30 2 0
BITMAP
01F000
03F800
03B800
07BC00
0F1E00
1E0F00
000000
000000
03F800
0FFE00
1FFF00
3E0F80
7C03C0
7801C0
F001E0
F001E0
F000E0
FFFFE0
FFFFE0
FFFFE0
E00000
F00000
F00000
F001E0
F801E0
7803E0
7C07C0
3FFF80
1FFF00
07FE00
ENDCHAR
STARTCHAR 00EB
ENCODING 235
SWIDTH 552 0
DWIDTH 23 0
BBX 19 30 2 0
BITMAP
0F1E00
0F1E00
0F1E00
0F1E00
000000
000000
000000
000000
03F800
0FFE00
1FFF00
3E0F80
7C03C0
7801C0
F001E0
F001E0
F000E0
FFFFE0
FFFFE0
FFFFE0
E00000
F00000
F00000
F001E0
F801E0
7803E0
7C07C0
3FFF80
1FFF00
07FE00
ENDCHAR
STARTCHAR 00EC
ENCODING 236
SWIDTH 288 0
DWIDTH 12 0
BBX 7 30 1 0
BITMAP
F8
78
3C
1C
1E
0E
00
00
1E
1E
1E
1E
1E
1E
1E
1E
1E
1E
1E
1E
1E
1E
1E
1E
1E
1E
1E
1E
1E
1E
ENDCHAR
STARTCHAR 00ED
ENCODING 237
SWIDTH 288 0
DWIDTH 12 0
BBX 7 30 4 0
BITMAP
3E
3C
78
78
F0
E0
00
00
F0
F0
F0
F0
F0
F0
F0
F0
F0
F0
F0
F0
F0
F0
F0
F0
F0
F0
F0
F0
F0
F0
ENDCHAR
STARTCHAR 00EE
ENCODING 238
SWIDTH 288 0
DWIDTH 12 0
BBX 12 30 0 0
BITMAP
0F00
1F80
3FC0
79E0
78F0
F0F0
0000
0000
0F00
0F00
0F00
0F00
0F00
0F00
0F00
0F00
0F00
0F00
0F00
0F00
0F00
0F00
0F00
0F00
0F00
0F00
0F00
0F00
0F00
0F00
ENDCHAR
STARTCHAR 00EF
ENCODING 239
SWIDTH 288 0
DWIDTH 12 0
BBX 12 30 0 0
BITMAP
F0F0
F0F0
F0F0
F0F0
0000
0000
0000
0000
0F00
0F00
0F00
0F00
0F00
0F00
0F00
0F00
0F00
0F00
0F00
0F00
0F00
0F00
0F00
0F00
0F00
0F00
0F00
0F00
0F00
0F00
ENDCHAR
STARTCHAR 00F0
ENCODING 240
SWIDTH 552 0
DWIDTH 23 0
BBX 21 31 1 -1
BITMAP
03C080
01E380
00FF80
007E00
01FE00
07FE00
070F00
040780
006780
07FFC0
0FFFC0
1F8FE0
3E03E0
3C01F0
7800F0
7800F0
7800F0
700070
700078
F00078
700070
700070
7800F0
7800F0
7800F0
3C01E0
3E03E0
1FDFC0
0FFF80
03FE00
002000
ENDCHAR
STARTCHAR 00F1
ENCODING 241
SWIDTH 552 0
DWIDTH 23 0
BBX 17 30 3 0
BITMAP
000700
0FC700
1FFF00
1CFE00
383C00
000000
000000
000000
E1F800
E7FE00
EFFF00
FE1F80
F80780
F00780
F00780
F00380
F00380
E00380
E00380
E00380
E00380
E00380
E00380
E00380
E00380
E00380
E00380
E00380
E00380
E00380
ENDCHAR
STARTCHAR 00F2
ENCODING 242
SWIDTH 552 0
DWIDTH 23 0
BBX 21 30 1 0
BITMAP
03C000
01E000
01E000
00F000
007000
003800
000000
000000
01FC00
07FF00
0FFFC0
1F07C0
3C01E0
7C01F0
7800F0
7800F0
700070
F00078
F00078
F00078
F00078
700078
780070
7800F0
7800F0
3C01E0
3E03E0
1FFFC0
0FFF80
03FE00
ENDCHAR
STARTCHAR 00F3
ENCODING 243
SWIDTH 552 0
DWIDTH 23 0
BBX 21 30 1 0
BITMAP
001F00
003E00
003C00
003800
007000
007000
000000
000000
01FC00
07FF00
0FFFC0
1F07C0
3C01E0
7C01F0
7800F0
7800F0
700070
F00078
F00078
F00078
F00078
700078
780070
7800F0
7800F0
3C01E0
3E03E0
1FFFC0
0FFF80
03FE00
ENDCHAR
STARTCHAR 00F4
ENCODING 244
SWIDTH 552 0
DWIDTH 23 0
BBX 21 30 1 0
BITMAP
00F800
01FC00
01DC00
03DE00
078F00
0F0780
000000
000000
01FC00
07FF00
0FFFC0
1F07C0
3C01E0
7C01F0
7800F0
7800F0
700070
F00078
F00078
F00078
F00078
700078
780070
7800F0
7800F0
3C01E0
3E03E0
1FFFC0
0FFF80
03FE00
ENDCHAR
STARTCHAR 00F5
ENCODING 245
SWIDTH 552 0
DWIDTH 23 0
BBX 21 30 1 0
BITMAP
000180
07E380
0FFF80
0E7F80
0C1F00
000000
000000
000000
01FC00
07FF00
0FFFC0
1F07C0
3C01E0
7C01F0
7800F0
7800F0
700070
F00078
F00078
F00078
F00078
700078
780070
7800F0
7800F0
3C01E0
3E03E0
1FFFC0
0FFF80
03FE00
ENDCHAR
STARTCHAR 00F6
ENCODING 246
SWIDTH 552 0
DWIDTH 23 0
BBX 21 30 1 0
BITMAP
078F00
078F00
078F00
078F00
000000
000000
000000
000000
01FC00
07FF00
0FFFC0
1F07C0
3C01E0
7C01F0
7800F0
7800F0
700070
F00078
F00078
F00078
F00078
700078
780070
7800F0
7800F0
3C01E0
3E03E0
1FFFC0
0FFF80
03FE00
ENDCHAR
STARTCHAR 00F7
ENCODING 247
SWIDTH 552 0
DWIDTH 23 0
BBX 19 17 2 6
BITMAP
01F000
01F000
01F000
01F000
000000
000000
000000
FFFFE0
FFFFE0
FFFFE0
000000
000000
01F000
01F000
01F000
01F000
01F000
ENDCHAR
STARTCHAR 00F8
ENCODING 248
SWIDTH 600 0
DWIDTH 25 0
BBX 20 24 3 -2
BITMAP
000040
03F870
0FFEE0
1FFFC0
3E0FC0
7C03C0
7807E0
F00FE0
F01CF0
F03CF0
E038F0
E070F0
E0E0F0
E1C0F0
F1C0F0
F380F0
F701E0
FE01E0
7E03E0
7C07C0
3FFF80
7FFF00
F7FC00
E00000
ENDCHAR
STARTCHAR 00F9
ENCODING 249
SWIDTH 552 0
DWIDTH 23 0
BBX 17 30 3 0
BITMAP
078000
07C000
03C000
01E000
00E000
007000
000000
000000
E00380
E00380
E00380
E00380
E00380
E00380
E00380
E00380
E00380
E00380
E00380
E00380
E00380
E00780
E00780
E00780
F00780
F00F80
F81F80
7FFB80
3FF380
1FE380
ENDCHAR
STARTCHAR 00FA
ENCODING 250
SWIDTH 552 0
DWIDTH 23 0
BBX 17 30 3 0
BITMAP
007800
00F800
00F000
01E000
01C000
038000
000000
000000
E00380
E00380
E00380
E00380
E00380
E00380
E00380
E00380
E00380
E00380
E00380
E00380
E00380
E00780
E00780
E00780
F00780
F00F80
F81F80
7FFB80
3FF380
1FE380
ENDCHAR
STARTCHAR 00FB
ENCODING 251
SWIDTH 552 0
DWIDTH 23 0
BBX 17 30 3 0
BITMAP
03E000
07F000
0F7000
0F7800
1E3C00
3C1E00
000000
000000
E00380
E00380
E00380
E00380
E00380
E00380
E00380
E00380
E00380
E00380
E00380
E00380
E00380
E00780
E00780
E00780
F00780
F00F80
F81F80
7FFB80
3FF380
1FE380
ENDCHAR
STARTCHAR 00FC
ENCODING 252
SWIDTH 552 0
DWIDTH 23 0
BBX 17 30 3 0
BITMAP
1E3C00
1E3C00
1E3C00
1E3C00
000000
000000
000000
000000
E00380
E00380
E00380
E00380
E00380
E00380
E00380
E00380
E00380
E00380
E00380
E00380
E00380
E00780
E00780
E00780
F00780
F00F80
F81F80
7FFB80
3FF380
1FE380
ENDCHAR
STARTCHAR 00FD
ENCODING 253
SWIDTH 504 0
DWIDTH 21 0
BBX 19 39 1 -9
BITMAP
003E00
003C00
007800
007000
00F000
00E000
000000
000000
F000E0
F001E0
F001E0
7801C0
7803C0
3803C0
3C0380
3C0780
1E0700
1E0F00
1E0F00
0F0E00
0F1E00
071E00
079C00
07BC00
03B800
03F800
01F800
01F000
01F000
00F000
00E000
01E000
01C000
01C000
03C000
7F8000
7F0000
7F0000
3C0000
ENDCHAR
STARTCHAR 00FE
ENCODING 254
SWIDTH 552 0
DWIDTH 23 0
BBX 19 38 3 -8
BITMAP
E00000
E00000
E00000
E00000
E00000
E00000
E00000
E00000
E3F800
E7FE00
EFFF00
FC0F00
F80780
F003C0
F003C0
F003C0
E001C0
E001C0
E001E0
E001E0
E001C0
E001C0
E003C0
F003C0
F003C0
F80780
FC0F00
FFFF00
EFFE00
E7F800
E00000
E00000
E00000
E00000
E00000
E00000
E00000
E00000
ENDCHAR
STARTCHAR 00FF
ENCODING 255
SWIDTH 504 0
DWIDTH 21 0
BBX 19 39 1 -9
BITMAP
0F0E00
0F0E00
0F0E00
0F0E00
000000
000000
000000
000000
F000E0
F001E0
F001E0
7801C0
7803C0
3803C0
3C0380
3C0780
1E0700
1E0F00
1E0F00
0F0E00
0F1E00
071E00
079C00
07BC00
03B800
03F800
01F800
01F000
01F000
00F000
00E000
01E000
01C000
01C000
03C000
7F8000
7F0000
7F0000
3C0000
ENDCHAR
STARTCHAR 0100
ENCODING 256
SWIDTH 672 0
DWIDTH 28 0
BBX 28 35 0 0
BITMAP
01FFF000
01FFF000
01FFF000
00000000
00000000
001F0000
001F0000
003F8000
003F8000
003B8000
007BC000
007BC000
0071E000
00F1E000
00F0E000
01E0F000
01E0F000
01E07800
03C07800
03C07C00
03803C00
07803C00
07801E00
0FFFFE00
0FFFFF00
0FFFFF00
1E000F00
1E000F80
3C000780
3C0007C0
3C0003C0
780003C0
780003E0
780001E0
F00001F0
ENDCHAR
STARTCHAR 0101
ENCODING 257
SWIDTH 552 0
DWIDTH 23 0
BBX 19 28 2 0
BITMAP
0FFF00
0FFF00
0FFF00
000000
000000
000000
03FC00
1FFF00
3FFF80
7C0FC0
7803C0
F003C0
F001C0
0001C0
0003C0
00FFC0
0FFFC0
3FFDC0
7F81C0
F801C0
F003C0
E003C0
E003C0
F007C0
F00FC0
FE7FE0
7FF9E0
3FF1E0
ENDCHAR
STARTCHAR 0102
ENCODING 258
SWIDTH 672 0
DWIDTH 28 0
BBX 28 37 0 0
BITMAP
00C07000
00E07000
0070E000
007FC000
003F8000
00000000
00000000
001F0000
001F0000
003F8000
003F8000
003B8000
007BC000
007BC000
0071E000
00F1E000
00F0E000
01E0F000
01E0F000
01E07800
03C07800
03C07C00
03803C00
07803C00
07801E00
0FFFFE00
0FFFFF00
0FFFFF00
1E000F00
1E000F80
3C000780
3C0007C0
3C0003C0
780003C0
780003E0
780001E0
F00001F0
ENDCHAR
STARTCHAR 0103
ENCODING 259
SWIDTH 552 0
DWIDTH 23 0
BBX 19 30 2 0
BITMAP
0E0700
0E0700
070E00
07FE00
03FC00
000000
000000
000000
03FC00
1FFF00
3FFF80
7C0FC0
7803C0
F003C0
F001C0
0001C0
0003C0
00FFC0
0FFFC0
3FFDC0
7F81C0
F801C0
F003C0
E003C0
E003C0
F007C0
F00FC0
FE7FE0
7FF9E0
3FF1E0
ENDCHAR
STARTCHAR 0104
ENCODING 260
SWIDTH 672 0
DWIDTH 28 0
BBX 32 38 0 -8
BITMAP
001F0000
001F0000
003F8000
003F8000
003B8000
007BC000
007BC000
0071E000
00F1E000
00F0E000
01E0F000
01E0F000
01E07800
03C07800
03C07C00
03803C00
07803C00
07801E00
0FFFFE00
0FFFFF00
0FFFFF00
1E000F00
1E000F80
3C000780
3C0007C0
3C0003C0
780003C0
780003E0
780001E0
F00001F0
000001C0
00000180
00000180
00000180
000001C0
000001E3
000001FF
000000FE
ENDCHAR
STARTCHAR 0105
ENCODING 261
SWIDTH 552 0
DWIDTH 23 0
BBX 24 30 2 -8
BITMAP
03FC00
1FFF00
3FFF80
7C0FC0
7803C0
F003C0
F001C0
0001C0
0003C0
00FFC0
0FFFC0
3FFDC0
7F81C0
F801C0
F003C0
E003C0
E003C0
F007C0
F00FC0
FE7FE0
7FF9E0
3FF1E0
0001C0
0001C0
000180
0001C0
0001C0
0001FF
0000FF
00007C
ENDCHAR
STARTCHAR 0106
ENCODING 262
SWIDTH 720 0
DWIDTH 30 0
BBX 26 37 2 -1
BITMAP
0003E000
0007C000
00078000
000F0000
000E0000
00000000
00000000
007FE000
01FFF800
07FFFC00
0FE07E00
1F801F00
1E000F80
3C000780
3C0007C0
78000380
78000000
78000000
F0000000
F0000000
F0000000
F0000000
F0000000
F0000000
F0000000
F0000000
78000000
780003C0
780003C0
3C0003C0
3C000780
3E000F80
1F001F00
0FC07E00
07FFFE00
03FFF800
00FFE000
ENDCHAR
STARTCHAR 0107
ENCODING 263
SWIDTH 504 0
DWIDTH 21 0
BBX 18 30 2 0
BITMAP
007C00
007800
00F000
00E000
01E000
01C000
000000
000000
03F800
0FFE00
1FFF00
3E0F80
780780
7803C0
F003C0
F00000
F00000
E00000
E00000
E00000
E00000
F00000
F001C0
F001C0
F003C0
7803C0
7C0780
3FFF00
1FFE00
07FC00
ENDCHAR
STARTCHAR 0108
ENCODING 264
SWIDTH 720 0
DWIDTH 30 0
BBX 26 37 2 -1
BITMAP
001F0000
003F8000
003BC000
0079E000
00F1E000
00001000
00000000
007FE000
01FFF800
07FFFC00
0FE07E00
1F801F00
1E000F80
3C000780
3C0007C0
78000380
78000000
78000000
F0000000
F0000000
F0000000
F0000000
F0000000
F0000000
F0000000
F0000000
78000000
780003C0
780003C0
3C0003C0
3C000780
3E000F80
1F001F00
0FC07E00
07FFFE00
03FFF800
00FFE000
ENDCHAR
STARTCHAR 0109
ENCODING 265
SWIDTH 504 0
DWIDTH 21 0
BBX 18 30 2 0
BITMAP
00F000
01F800
03FC00
079E00
078F00
0F0F00
000000
000000
03F800
0FFE00
1FFF00
3E0F80
780780
7803C0
F003C0
F00000
F00000
E00000
E00000
E00000
E00000
F00000
F001C0
F001C0
F003C0
7803C0
7C0780
3FFF00
1FFE00
07FC00
ENDCHAR
STARTCHAR 010A
ENCODING 266
SWIDTH 720 0
DWIDTH 30 0
BBX 26 37 2 -1
BITMAP
001F0000
001F0000
001F0000
001F0000
001F0000
00000000
00000000
007FE000
01FFF800
07FFFC00
0FE07E00
1F801F00
1E000F80
3C000780
3C0007C0
78000380
78000000
78000000
F0000000
F0000000
F0000000
F0000000
F0000000
F0000000
F0000000
F0000000
78000000
780003C0
780003C0
3C0003C0
3C000780
3E000F80
1F001F00
0FC07E00
07FFFE00
03FFF800
00FFE000
ENDCHAR
STARTCHAR 010B
ENCODING 267
SWIDTH 504 0
DWIDTH 21 0
BBX 18 29 2 0
BITMAP
00F000
00F000
00F000
00F000
00F000
000000
000000
03F800
0FFE00
1FFF00
3E0F80
780780
7803C0
F003C0
F00000
F00000
E00000
E00000
E00000
E00000
F00000
F001C0
F001C0
F003C0
7803C0
7C0780
3FFF00
1FFE00
07FC00
ENDCHAR
STARTCHAR 010C
ENCODING 268
SWIDTH 720 0
DWIDTH 30 0
BBX 26 37 2 -1
BITMAP
00F0F000
0079E000
003DC000
003F8000
001F8000
00000000
00000000
007FE000
01FFF800
07FFFC00
0FE07E00
1F801F00
1E000F80
3C000780
3C0007C0
78000380
78000000
78000000
F0000000
F0000000
F0000000
F0000000
F0000000
F0000000
F0000000
F0000000
78000000
780003C0
780003C0
3C0003C0
3C000780
3E000F80
1F001F00
0FC07E00
07FFFE00
03FFF800
00FFE000
ENDCHAR
STARTCHAR 010D
ENCODING 269
SWIDTH 504 0
DWIDTH 21 0
BBX 18 30 2 0
BITMAP
1E1E00
0F1E00
07BC00
03F800
03F000
01E000
000000
000000
03F800
0FFE00
1FFF00
3E0F80
780780
7803C0
F003C0
F00000
F00000
E00000
E00000
E00000
E00000
F00000
F001C0
F001C0
F003C0
7803C0
7C0780
3FFF00
1FFE00
07FC00
ENDCHAR
STARTCHAR 010E
ENCODING 270
SWIDTH 720 0
DWIDTH 30 0
BBX 25 37 3 0
BITMAP
1E1E0000
0F3C0000
07B80000
03F80000
03F00000
00000000
00000000
FFFE0000
FFFFC000
FFFFF000
FFFFF800
F000FC00
F0007E00
F0003E00
F0001F00
F0000F00
F0000F00
F0000F80
F0000780
F0000780
F0000780
F0000780
F0000780
F0000780
F0000780
F0000780
F0000F00
F0000F00
F0000F00
F0001F00
F0001E00
F0003E00
F000FC00
FFFFF800
FFFFF000
FFFFC000
FFFF0000
ENDCHAR
STARTCHAR 010F
ENCODING 271
SWIDTH 624 0
DWIDTH 26 0
BBX 25 30 1 0
BITMAP
0000E780
0000E780
0000E780
0000E780
0000E180
0000E180
0000E300
0000E700
03F8E600
07FCE000
1FFEE000
1F0FE000
3C03E000
7803E000
7801E000
7801E000
7000E000
7000E000
F000E000
F000E000
7000E000
7000E000
7800E000
7801E000
7801E000
3C03E000
3E07E000
1FFFE000
0FFEE000
03FCE000
ENDCHAR
STARTCHAR 0110
ENCODING 272
SWIDTH 720 0
DWIDTH 30 0
BBX 28 30 0 0
BITMAP
1FFFC000
1FFFF800
1FFFFE00
1FFFFF00
1E001F80
1E000FC0
1E0007C0
1E0003E0
1E0001E0
1E0001E0
1E0001F0
1E0000F0
1E0000F0
1E0000F0
FFFE00F0
FFFE00F0
1E0000F0
1E0000F0
1E0000F0
1E0001E0
1E0001E0
1E0001E0
1E0003E0
1E0003C0
1E0007C0
1E001F80
1FFFFF00
1FFFFE00
1FFFF800
1FFFE000
ENDCHAR
STARTCHAR 0111
ENCODING 273
SWIDTH 552 0
DWIDTH 23 0
BBX 22 30 1 0
BITMAP
0000E0
0000E0
0000E0
00FFFC
00FFFC
0000E0
0000E0
0000E0
03F8E0
0FFCE0
1FFEE0
1F0FE0
3C03E0
7803E0
7801E0
7801E0
7000E0
7000E0
F000E0
F000E0
F000E0
7000E0
7800E0
7801E0
7801E0
3C03E0
3E07E0
1FFFE0
0FFEE0
03FCE0
ENDCHAR
STARTCHAR 0112
ENCODING 274
SWIDTH 672 0
DWIDTH 28 0
BBX 23 35 3 0
BITMAP
07FFC0
07FFC0
07FFC0
000000
000000
FFFFFC
FFFFFC
FFFFFC
FFFFFC
F00000
F00000
F00000
F00000
F00000
F00000
F00000
F00000
F00000
FFFFF8
FFFFF8
FFFFF8
F00000
F00000
F00000
F00000
F00000
F00000
F00000
F00000
F00000
F00000
FFFFFE
FFFFFE
FFFFFE
FFFFFE
ENDCHAR
STARTCHAR 0113
ENCODING 275
SWIDTH 552 0
DWIDTH 23 0
BBX 19 28 2 0
BITMAP
1FFF00
1FFF00
1FFF00
000000
000000
000000
03F800
0FFE00
1FFF00
3E0F80
7C03C0
7801C0
F001E0
F001E0
F000E0
FFFFE0
FFFFE0
FFFFE0
E00000
F00000
F00000
F001E0
F801E0
7803E0
7C07C0
3FFF80
1FFF00
07FE00
ENDCHAR
STARTCHAR 0114
ENCODING 276
SWIDTH 672 0
DWIDTH 28 0
BBX 23 37 3 0
BITMAP
070180
038380
03EF80
01FF00
00FC00
000000
000000
FFFFFC
FFFFFC
FFFFFC
FFFFFC
F00000
F00000
F00000
F00000
F00000
F00000
F00000
F00000
F00000
FFFFF8
FFFFF8
FFFFF8
F00000
F00000
F00000
F00000
F00000
F00000
F00000
F00000
F00000
F00000
FFFFFE
FFFFFE
FFFFFE
FFFFFE
ENDCHAR
STARTCHAR 0115
ENCODING 277
SWIDTH 552 0
DWIDTH 23 0
BBX 19 30 2 0
BITMAP
0E0700
0E0700
070E00
07FE00
03FC00
000000
000000
000000
03F800
0FFE00
1FFF00
3E0F80
7C03C0
7801C0
F001E0
F001E0
F000E0
FFFFE0
FFFFE0
FFFFE0
E00000
F00000
F00000
F001E0
F801E0
7803E0
7C07C0
3FFF80
1FFF00
07FE00
ENDCHAR
STARTCHAR 0116
ENCODING 278
SWIDTH 672 0
DWIDTH 28 0
BBX 23 36 3 0
BITMAP
007C00
007C00
007C00
007C00
000000
000000
FFFFFC
FFFFFC
FFFFFC
FFFFFC
F00000
F00000
F00000
F00000
F00000
F00000
F00000
F00000
F00000
FFFFF8
FFFFF8
FFFFF8
F00000
F00000
F00000
F00000
F00000
F00000
F00000
F00000
F00000
F00000
FFFFFE
FFFFFE
FFFFFE
FFFFFE
ENDCHAR
STARTCHAR 0117
ENCODING 279
SWIDTH 552 0
DWIDTH 23 0
BBX 19 29 2 0
BITMAP
00F000
00F000
00F000
00F000
00F000
000000
000000
03F800
0FFE00
1FFF00
3E0F80
7C03C0
7801C0
F001E0
F001E0
F000E0
FFFFE0
FFFFE0
FFFFE0
E00000
F00000
F00000
F001E0
F801E0
7803E0
7C07C0
3FFF80
1FFF00
07FE00
ENDCHAR
STARTCHAR 0118
ENCODING 280
SWIDTH 672 0
DWIDTH 28 0
BBX 23 39 3 -9
BITMAP
FFFFFC
FFFFFC
FFFFFC
FFFFFC
F00000
F00000
F00000
F00000
F00000
F00000
F00000
F00000
F00000
FFFFF8
FFFFF8
FFFFF8
F00000
F00000
F00000
F00000
F00000
F00000
F00000
F00000
F00000
F00000
FFFFFE
FFFFFE
FFFFFE
FFFFFE
000380
000300
000300
000300
000380
0003C6
0003FE
0001FC
000060
ENDCHAR
STARTCHAR 0119
ENCODING 281
SWIDTH 552 0
DWIDTH 23 0
BBX 19 31 2 -9
BITMAP
03F800
0FFE00
1FFF00
3E0F80
7C03C0
7801C0
F001E0
F001E0
F000E0
FFFFE0
FFFFE0
FFFFE0
E00000
F00000
F00000
F001E0
F801E0
7803E0
7C07C0
3FFF80
1FFF00
07FE00
006000
006000
00E000
00E000
00E000
00F080
007F80
007F80
000C00
ENDCHAR
STARTCHAR 011A
ENCODING 282
SWIDTH 672 0
DWIDTH 28 0
BBX 23 37 3 0
BITMAP
078F00
078F00
03DE00
01FC00
00F800
000000
000000
FFFFFC
FFFFFC
FFFFFC
FFFFFC
F00000
F00000
F00000
F00000
F00000
F00000
F00000
F00000
F00000
FFFFF8
FFFFF8
FFFFF8
F00000
F00000
F00000
F00000
F00000
F00000
F00000
F00000
F00000
F00000
FFFFFE
FFFFFE
FFFFFE
FFFFFE
ENDCHAR
STARTCHAR 011B
ENCODING 283
SWIDTH 552 0
DWIDTH 23 0
BBX 19 30 2 0
BITMAP
0F0F00
079E00
07BC00
03F800
01F800
00F000
000000
000000
03F800
0FFE00
1FFF00
3E0F80
7C03C0
7801C0
F001E0
F001E0
F000E0
FFFFE0
FFFFE0
FFFFE0
E00000
F00000
F00000
F001E0
F801E0
7803E0
7C07C0
3FFF80
1FFF00
07FE00
ENDCHAR
STARTCHAR 011C
ENCODING 284
SWIDTH 768 0
DWIDTH 32 0
BBX 28 38 2 -1
BITMAP
0007C000
000FE000
000EF000
001E7000
003C7800
00783C00
00000000
003FF000
01FFFE00
03FFFF00
07E03F80
0F8007C0
1F0003C0
3E0001E0
3C0001E0
7C0001E0
78000000
78000000
78000000
F0000000
F0000000
F0000000
F001FFF0
F001FFF0
F001FFF0
F80000F0
780000F0
780000F0
7C0000F0
3C0000F0
3E0000F0
1F0001F0
0F8007F0
0FF01FE0
03FFFF80
01FFFF00
007FF800
00010000
ENDCHAR
STARTCHAR 011D
ENCODING 285
SWIDTH 552 0
DWIDTH 23 0
BBX 19 39 1 -9
BITMAP
00F000
01F800
03FC00
079E00
0F9F00
0F0F00
000000
000000
03F8E0
0FFEE0
1FFFE0
1F0FE0
3C03E0
7801E0
7801E0
7800E0
7000E0
F000E0
F000E0
F000E0
F000E0
7000E0
7800E0
7801E0
7801E0
3C03E0
1F0FE0
1FFEE0
0FFCE0
03F0E0
0000E0
0000E0
7801E0
7801E0
7C03C0
3F0FC0
1FFF80
0FFE00
01F000
ENDCHAR
STARTCHAR 011E
ENCODING 286
SWIDTH 768 0
DWIDTH 32 0
BBX 28 38 2 -1
BITMAP
00301C00
00381800
003C7800
001FF000
000FE000
00000000
00000000
003FF000
01FFFE00
03FFFF00
07E03F80
0F8007C0
1F0003C0
3E0001E0
3C0001E0
7C0001E0
78000000
78000000
78000000
F0000000
F0000000
F0000000
F001FFF0
F001FFF0
F001FFF0
F80000F0
780000F0
780000F0
7C0000F0
3C0000F0
3E0000F0
1F0001F0
0F8007F0
0FF01FE0
03FFFF80
01FFFF00
007FF800
00010000
ENDCHAR
STARTCHAR 011F
ENCODING 287
SWIDTH 552 0
DWIDTH 23 0
BBX 19 39 1 -9
BITMAP
060380
070300
078700
03FE00
01FC00
000000
000000
000000
03F8E0
0FFEE0
1FFFE0
1F0FE0
3C03E0
7801E0
7801E0
7800E0
7000E0
F000E0
F000E0
F000E0
F000E0
7000E0
7800E0
7801E0
7801E0
3C03E0
1F0FE0
1FFEE0
0FFCE0
03F0E0
0000E0
0000E0
7801E0
7801E0
7C03C0
3F0FC0
1FFF80
0FFE00
01F000
ENDCHAR
STARTCHAR 0120
ENCODING 288
SWIDTH 768 0
DWIDTH 32 0
BBX 28 37 2 -1
BITMAP
0007C000
0007C000
0007C000
0007C000
0007C000
00000000
003FF000
01FFFE00
03FFFF00
07E03F80
0F8007C0
1F0003C0
3E0001E0
3C0001E0
7C0001E0
78000000
78000000
78000000
F0000000
F0000000
F0000000
F001FFF0
F001FFF0
F001FFF0
F80000F0
780000F0
780000F0
7C0000F0
3C0000F0
3E0000F0
1F0001F0
0F8007F0
0FF01FE0
03FFFF80
01FFFF00
007FF800
00010000
ENDCHAR
STARTCHAR 0121
ENCODING 289
SWIDTH 552 0
DWIDTH 23 0
BBX 19 38 1 -9
BITMAP
00F800
00F800
00F800
00F800
00F800
000000
000000
03F8E0
0FFEE0
1FFFE0
1F0FE0
3C03E0
7801E0
7801E0
7800E0
7000E0
F000E0
F000E0
F000E0
F000E0
7000E0
7800E0
7801E0
7801E0
3C03E0
1F0FE0
1FFEE0
0FFCE0
03F0E0
0000E0
0000E0
7801E0
7801E0
7C03C0
3F0FC0
1FFF80
0FFE00
01F000
ENDCHAR
STARTCHAR 0122
ENCODING 290
SWIDTH 768 0
DWIDTH 32 0
BBX 28 39 2 -9
BITMAP
003FF000
01FFFE00
03FFFF00
07E03F80
0F8007C0
1F0003C0
3E0001E0
3C0001E0
7C0001E0
78000000
78000000
78000000
F0000000
F0000000
F0000000
F001FFF0
F001FFF0
F001FFF0
F80000F0
780000F0
780000F0
7C0000F0
3C0000F0
3E0000F0
1F0001F0
0F8007F0
0FF01FE0
03FFFF80
01FFFF00
007FF800
00038000
00030000
0007E000
0000F000
0000F000
0000F000
001FE000
001FC000
00060000
ENDCHAR
STARTCHAR 0123
ENCODING 291
SWIDTH 552 0
DWIDTH 23 0
BBX 19 41 1 -9
BITMAP
002000
007000
00E000
00C000
00C000
00F000
00F000
00F000
000000
000000
03F8E0
0FFEE0
1FFFE0
1F07E0
3C03E0
7801E0
7801E0
7800E0
7000E0
F000E0
F000E0
F000E0
F000E0
7000E0
7800E0
7801E0
7801E0
3C03E0
1F0FE0
1FFEE0
07FCE0
03F0E0
0000E0
0001E0
7801E0
7801E0
3C03C0
3F0FC0
1FFF80
0FFE00
01F000
ENDCHAR
STARTCHAR 0124
ENCODING 292
SWIDTH 720 0
DWIDTH 30 0
BBX 24 37 3 0
BITMAP
003E00
007F00
00F780
00F3C0
01E3C0
000020
000000
F0000F
F0000F
F0000F
F0000F
F0000F
F0000F
F0000F
F0000F
F0000F
F0000F
F0000F
F0000F
FFFFFF
FFFFFF
FFFFFF
FFFFFF
F0000F
F0000F
F0000F
F0000F
F0000F
F0000F
F0000F
F0000F
F0000F
F0000F
F0000F
F0000F
F0000F
F0000F
ENDCHAR
STARTCHAR 0125
ENCODING 293
SWIDTH 552 0
DWIDTH 23 0
BBX 17 37 3 0
BITMAP
01F800
01F800
03FC00
079E00
0F0F00
000000
000000
E00000
E00000
E00000
E00000
E00000
E00000
E00000
E00000
E1F800
E7FE00
EFFF00
FE1F80
F80780
F00780
F00380
F00380
F00380
E00380
E00380
E00380
E00380
E00380
E00380
E00380
E00380
E00380
E00380
E00380
E00380
E00380
ENDCHAR
STARTCHAR 0126
ENCODING 294
SWIDTH 720 0
DWIDTH 30 0
BBX 28 30 1 0
BITMAP
3C0003C0
3C0003C0
3C0003C0
3C0003C0
3C0003C0
FFFFFFF0
FFFFFFF0
FFFFFFF0
3C0003C0
3C0003C0
3C0003C0
3C0003C0
3FFFFFC0
3FFFFFC0
3FFFFFC0
3FFFFFC0
3C0003C0
3C0003C0
3C0003C0
3C0003C0
3C0003C0
3C0003C0
3C0003C0
3C0003C0
3C0003C0
3C0003C0
3C0003C0
3C0003C0
3C0003C0
3C0003C0
ENDCHAR
STARTCHAR 0127
ENCODING 295
SWIDTH 552 0
DWIDTH 23 0
BBX 20 30 0 0
BITMAP
1C0000
1C0000
1C0000
FFFC00
FFFC00
FFFC00
1C0000
1C0000
1C3F00
1CFFC0
1DFFE0
1FC3F0
1F00F0
1E00F0
1E0070
1E0070
1E0070
1C0070
1C0070
1C0070
1C0070
1C0070
1C0070
1C0070
1C0070
1C0070
1C0070
1C0070
1C0070
1C0070
ENDCHAR
STARTCHAR 0128
ENCODING 296
SWIDTH 288 0
DWIDTH 12 0
BBX 13 37 -1 0
BITMAP
3C18
7F38
FFF8
E3F0
C0E0
0000
0000
0780
0780
0780
0780
0780
0780
0780
0780
0780
0780
0780
0780
0780
0780
0780
0780
0780
0780
0780
0780
0780
0780
0780
0780
0780
0780
0780
0780
0780
0780
ENDCHAR
STARTCHAR 0129
ENCODING 297
SWIDTH 288 0
DWIDTH 12 0
BBX 14 30 -1 0
BITMAP
001C
3E1C
7FF8
F7F8
E1F0
0000
0000
0000
0780
0780
0780
0780
0780
0780
0780
0780
0780
0780
0780
0780
0780
0780
0780
0780
0780
0780
0780
0780
0780
0780
ENDCHAR
STARTCHAR 012A
ENCODING 298
SWIDTH 288 0
DWIDTH 12 0
BBX 13 35 -1 0
BITMAP
FFF8
FFF8
FFF8
0000
0000
0780
0780
0780
0780
0780
0780
0780
0780
0780
0780
0780
0780
0780
0780
0780
0780
0780
0780
0780
0780
0780
0780
0780
0780
0780
0780
0780
0780
0780
0780
ENDCHAR
STARTCHAR 012B
ENCODING 299
SWIDTH 288 0
DWIDTH 12 0
BBX 12 28 0 0
BITMAP
FFF0
FFF0
FFF0
0000
0000
0000
0F00
0F00
0F00
0F00
0F00
0F00
0F00
0F00
0F00
0F00
0F00
0F00
0F00
0F00
0F00
0F00
0F00
0F00
0F00
0F00
0F00
0F00
ENDCHAR
STARTCHAR 012C
ENCODING 300
SWIDTH 288 0
DWIDTH 12 0
BBX 12 37 0 0
BITMAP
E070
E070
70E0
7FE0
3FC0
0600
0000
0F00
0F00
0F00
0F00
0F00
0F00
0F00
0F00
0F00
0F00
0F00
0F00
0F00
0F00
0F00
0F00
0F00
0F00
0F00
0F00
0F00
0F00
0F00
0F00
0F00
0F00
0F00
0F00
0F00
0F00
ENDCHAR
STARTCHAR 012D
ENCODING 301
SWIDTH 288 0
DWIDTH 12 0
BBX 12 30 0 0
BITMAP
C070
E070
F0E0
7FE0
3FC0
0000
0000
0000
0F00
0F00
0F00
0F00
0F00
0F00
0F00
0F00
0F00
0F00
0F00
0F00
0F00
0F00
0F00
0F00
0F00
0F00
0F00
0F00
0F00
0F00
ENDCHAR
STARTCHAR 012E
ENCODING 302
SWIDTH 288 0
DWIDTH 12 0
BBX 9 39 3 -9
BITMAP
7800
7800
7800
7800
7800
7800
7800
7800
7800
7800
7800
7800
7800
7800
7800
7800
7800
7800
7800
7800
7800
7800
7800
7800
7800
7800
7800
7800
7800
7800
6000
6000
E000
E000
E000
F080
7F80
3F80
0C00
ENDCHAR
STARTCHAR 012F
ENCODING 303
SWIDTH 216 0
DWIDTH 9 0
BBX 9 39 2 -9
BITMAP
7000
7000
7000
7000
0000
0000
0000
0000
7000
7000
7000
7000
7000
7000
7000
7000
7000
7000
7000
7000
7000
7000
7000
7000
7000
7000
7000
7000
7000
7000
6000
E000
E000
E000
E000
F080
7F80
7F80
0C00
ENDCHAR
STARTCHAR 0130
ENCODING 304
SWIDTH 288 0
DWIDTH 12 0
BBX 4 36 4 0
BITMAP
F0
F0
F0
F0
00
00
F0
F0
F0
F0
F0
F0
F0
F0
F0
F0
F0
F0
F0
F0
F0
F0
F0
F0
F0
F0
F0
F0
F0
F0
F0
F0
F0
F0
F0
F0
ENDCHAR
STARTCHAR 0131
ENCODING 305
SWIDTH 288 0
DWIDTH 12 0
BBX 4 22 4 0
BITMAP
F0
F0
F0
F0
F0
F0
F0
F0
F0
F0
F0
F0
F0
F0
F0
F0
F0
F0
F0
F0
F0
F0
ENDCHAR
STARTCHAR 0132
ENCODING 306
SWIDTH 744 0
DWIDTH 31 0
BBX 24 30 4 -1
BITMAP
F00007
F00007
F00007
F00007
F00007
F00007
F00007
F00007
F00007
F00007
F00007
F00007
F00007
F00007
F00007
F00007
F00007
F00007
F00007
F00007
F00007
F0F007
F0F00F
F0F00F
F0F00F
F0780F
F07C3E
F07FFE
F03FFC
F00FF8
ENDCHAR
STARTCHAR 0133
ENCODING 307
SWIDTH 456 0
DWIDTH 19 0
BBX 13 39 3 -9
BITMAP
E078
E078
E078
E078
0000
0000
0000
0000
E078
E078
E078
E078
E078
E078
E078
E078
E078
E078
E078
E078
E078
E078
E078
E078
E078
E078
E078
E078
E078
E078
0078
0078
0078
0078
0078
06F8
07F0
07E0
03C0
ENDCHAR
STARTCHAR 0134
ENCODING 308
SWIDTH 504 0
DWIDTH 21 0
BBX 21 37 1 -1
BITMAP
000FC0
000FC0
001EE0
003CF0
007878
000000
000000
000780
000780
000780
000780
000780
000780
000780
000780
000780
000780
000780
000780
000780
000780
000780
000780
000780
000780
000780
000780
000780
700780
F00780
F00700
F00F00
780F00
7C3F00
3FFE00
3FFC00
0FF800
ENDCHAR
STARTCHAR 0135
ENCODING 309
SWIDTH 216 0
DWIDTH 9 0
BBX 13 39 -2 -9
BITMAP
0F80
1FC0
1FE0
3DE0
78F0
F878
0000
0000
0700
0700
0700
0700
0700
0700
0700
0700
0700
0700
0700
0700
0700
0700
0700
0700
0700
0700
0700
0700
0700
0700
0700
0700
0700
0700
0F00
5F00
FE00
FE00
7800
ENDCHAR
STARTCHAR 0136
ENCODING 310
SWIDTH 672 0
DWIDTH 28 0
BBX 24 39 3 -9
BITMAP
F0003F
F0007E
F000FC
F001F8
F003F0
F007E0
F00FC0
F01F80
F03F00
F07E00
F0F800
F1F000
F3F000
F7F800
FFF800
FF7C00
FE3E00
FC1F00
F81F00
F00F80
F007C0
F003C0
F003E0
F001F0
F000F8
F000F8
F0007C
F0003E
F0003F
F0001F
000000
001E00
001F80
000780
000380
000780
007F80
007F00
003000
ENDCHAR
STARTCHAR 0137
ENCODING 311
SWIDTH 504 0
DWIDTH 21 0
BBX 17 39 3 -9
BITMAP
E00000
E00000
E00000
E00000
E00000
E00000
E00000
E00000
E00F80
E01F00
E03E00
E07C00
E0F800
E1F000
E3E000
E7C000
EF8000
FF8000
FFC000
FBE000
F1E000
E0F000
E0F800
E07800
E03C00
E03E00
E01E00
E00F00
E00F80
E00780
000000
01F000
01F800
003C00
003C00
003C00
07F800
07F000
018000
ENDCHAR
STARTCHAR 0138
ENCODING 312
SWIDTH 504 0
DWIDTH 21 0
BBX 17 22 3 0
BITMAP
E00F80
E01F00
E03E00
E07C00
E0F800
E1F000
E3C000
E78000
EF8000
FF8000
FFC000
FBE000
F1E000
E0F000
E0F800
E07800
E03C00
E03E00
E01E00
E01F00
E00F80
E00780
ENDCHAR
STARTCHAR 0139
ENCODING 313
SWIDTH 552 0
DWIDTH 23 0
BBX 19 37 3 0
BITMAP
07C000
078000
070000
0F0000
0E0000
000000
000000
F00000
F00000
F00000
F00000
F00000
F00000
F00000
F00000
F00000
F00000
F00000
F00000
F00000
F00000
F00000
F00000
F00000
F00000
F00000
F00000
F00000
F00000
F00000
F00000
F00000
F00000
FFFFE0
FFFFE0
FFFFE0
FFFFE0
ENDCHAR
STARTCHAR 013A
ENCODING 314
SWIDTH 216 0
DWIDTH 9 0
BBX 7 37 1 0
BITMAP
1E
3E
3C
78
70
E0
00
38
38
38
38
38
38
38
38
38
38
38
38
38
38
38
38
38
38
38
38
38
38
38
38
38
38
38
38
38
38
ENDCHAR
STARTCHAR 013B
ENCODING 315
SWIDTH 552 0
DWIDTH 23 0
BBX 19 39 3 -9
BITMAP
F00000
F00000
F00000
F00000
F00000
F00000
F00000
F00000
F00000
F00000
F00000
F00000
F00000
F00000
F00000
F00000
F00000
F00000
F00000
F00000
F00000
F00000
F00000
F00000
F00000
F00000
FFFFE0
FFFFE0
FFFFE0
FFFFE0
000000
00F800
00FC00
001E00
001E00
001E00
03FC00
03F800
00C000
ENDCHAR
STARTCHAR 013C
ENCODING 316
SWIDTH 216 0
DWIDTH 9 0
BBX 9 39 0 -9
BITMAP
1C00
1C00
1C00
1C00
1C00
1C00
1C00
1C00
1C00
1C00
1C00
1C00
1C00
1C00
1C00
1C00
1C00
1C00
1C00
1C00
1C00
1C00
1C00
1C00
1C00
1C00
1C00
1C00
1C00
1C00
0000
3E00
3F00
0780
0780
0780
FF00
FE00
2000
ENDCHAR
STARTCHAR 013D
ENCODING 317
SWIDTH 552 0
DWIDTH 23 0
BBX 19 30 3 0
BITMAP
F01F00
F01F00
F01F00
F01F00
F00300
F00700
F00600
F00600
F01E00
F00C00
F00000
F00000
F00000
F00000
F00000
F00000
F00000
F00000
F00000
F00000
F00000
F00000
F00000
F00000
F00000
F00000
FFFFE0
FFFFE0
FFFFE0
FFFFE0
ENDCHAR
STARTCHAR 013E
ENCODING 318
SWIDTH 288 0
DWIDTH 12 0
BBX 9 30 3 0
BITMAP
E780
E780
E780
E780
E180
E180
E180
E300
E200
E000
E000
E000
E000
E000
E000
E000
E000
E000
E000
E000
E000
E000
E000
E000
E000
E000
E000
E000
E000
E000
ENDCHAR
STARTCHAR 013F
ENCODING 319
SWIDTH 552 0
DWIDTH 23 0
BBX 19 30 3 0
BITMAP
F00000
F00000
F00000
F00000
F00000
F00000
F00000
F00000
F00000
F00000
F00000
F00000
F00000
F00F00
F00F00
F00F00
F00F00
F00000
F00000
F00000
F00000
F00000
F00000
F00000
F00000
F00000
FFFFE0
FFFFE0
FFFFE0
FFFFE0
ENDCHAR
STARTCHAR 0140
ENCODING 320
SWIDTH 336 0
DWIDTH 14 0
BBX 11 30 3 0
BITMAP
E000
E000
E000
E000
E000
E000
E000
E000
E000
E000
E000
E000
E000
E1E0
E1E0
E1E0
E1E0
E000
E000
E000
E000
E000
E000
E000
E000
E000
E000
E000
E000
E000
ENDCHAR
STARTCHAR 0141
ENCODING 321
SWIDTH 552 0
DWIDTH 23 0
BBX 22 30 0 0
BITMAP
1E0000
1E0000
1E0000
1E0000
1E0000
1E0000
1E0400
1E0C00
1E1C00
1E3C00
1EF000
1FE000
1FC000
1F8000
1F0000
3E0000
7E0000
FE0000
FE0000
DE0000
9E0000
1E0000
1E0000
1E0000
1E0000
1E0000
1FFFFC
1FFFFC
1FFFFC
1FFFFC
ENDCHAR
STARTCHAR 0142
ENCODING 322
SWIDTH 216 0
DWIDTH 9 0
BBX 9 30 0 0
BITMAP
1C00
1C00
1C00
1C00
1C00
1C00
1C00
1C00
1C00
1C00
1C80
1D80
1F80
1F00
1E00
3C00
7C00
FC00
FC00
9C00
1C00
1C00
1C00
1C00
1C00
1C00
1C00
1C00
1C00
1C00
ENDCHAR
STARTCHAR 0143
ENCODING 323
SWIDTH 720 0
DWIDTH 30 0
BBX 24 37 3 0
BITMAP
001F00
003E00
003C00
007800
007000
000000
000000
F0000F
F8000F
FC000F
FC000F
FE000F
FF000F
FF000F
F7800F
F7C00F
F3C00F
F1E00F
F1F00F
F0F00F
F0780F
F07C0F
F03C0F
F01E0F
F01F0F
F00F0F
F0078F
F007CF
F003EF
F001EF
F001FF
F000FF
F0007F
F0007F
F0003F
F0001F
F0001F
ENDCHAR
STARTCHAR 0144
ENCODING 324
SWIDTH 552 0
DWIDTH 23 0
BBX 17 30 3 0
BITMAP
007800
00F000
00F000
01E000
01C000
038000
000000
000000
E1F800
E7FE00
EFFF00
FE1F80
F80780
F00780
F00780
F00380
F00380
E00380
E00380
E00380
E00380
E00380
E00380
E00380
E00380
E00380
E00380
E00380
E00380
E00380
ENDCHAR
STARTCHAR 0145
ENCODING 325
SWIDTH 720 0
DWIDTH 30 0
BBX 24 39 3 -9
BITMAP
F0000F
F8000F
FC000F
FC000F
FE000F
FF000F
FF000F
F7800F
F7C00F
F3C00F
F1E00F
F1F00F
F0F00F
F0780F
F07C0F
F03C0F
F01E0F
F01F0F
F00F0F
F0078F
F007CF
F003EF
F001EF
F001FF
F000FF
F0007F
F0007F
F0003F
F0001F
F0001F
000000
001F00
001F80
0003C0
0003C0
0003C0
007F80
007F00
001800
ENDCHAR
STARTCHAR 0146
ENCODING 326
SWIDTH 552 0
DWIDTH 23 0
BBX 17 31 3 -9
BITMAP
E1F800
E7FE00
EFFF00
FE1F80
F80780
F00780
F00780
F00380
F00380
E00380
E00380
E00380
E00380
E00380
E00380
E00380
E00380
E00380
E00380
E00380
E00380
E00380
000000
03E000
03F000
007800
003800
007800
0FF000
0FE000
030000
ENDCHAR
STARTCHAR 0147
ENCODING 327
SWIDTH 720 0
DWIDTH 30 0
BBX 24 37 3 0
BITMAP
03C3C0
01E780
00FF00
00FE00
007C00
000000
000000
F0000F
F8000F
FC000F
FC000F
FE000F
FF000F
FF000F
F7800F
F7C00F
F3C00F
F1E00F
F1F00F
F0F00F
F0780F
F07C0F
F03C0F
F01E0F
F01F0F
F00F0F
F0078F
F007CF
F003EF
F001EF
F001FF
F000FF
F0007F
F0007F
F0003F
F0001F
F0001F
ENDCHAR
STARTCHAR 0148
ENCODING 328
SWIDTH 552 0
DWIDTH 23 0
BBX 17 30 3 0
BITMAP
1E1E00
0F3C00
0F3800
07F000
03F000
01E000
000000
000000
E1F800
E7FE00
EFFF00
FE1F80
F80780
F00780
F00780
F00380
F00380
E00380
E00380
E00380
E00380
E00380
E00380
E00380
E00380
E00380
E00380
E00380
E00380
E00380
ENDCHAR
STARTCHAR 0149
ENCODING 329
SWIDTH 600 0
DWIDTH 25 0
BBX 23 30 2 0
BITMAP
700000
700000
700000
700000
300000
300000
300000
700000
E387E0
039FF8
03BFFC
03F87C
03E03E
03C01E
03C01E
03C01E
03800E
03800E
03800E
03800E
03800E
03800E
03800E
03800E
03800E
03800E
03800E
03800E
03800E
03800E
ENDCHAR
STARTCHAR 014A
ENCODING 330
SWIDTH 720 0
DWIDTH 30 0
BBX 25 30 3 -1
BITMAP
F07FC000
F1FFF000
F3FFF800
F7C0FC00
FF003E00
FC001E00
FC001F00
F8000F00
F8000F00
F8000F80
F8000780
F0000780
F0000780
F0000780
F0000780
F0000780
F0000780
F0000780
F0000780
F0000780
F0000F80
F0000F00
F0000F00
F0000F00
F0001E00
F0003E00
F0087C00
F01FFC00
F03FF800
F01FE000
ENDCHAR
STARTCHAR 014B
ENCODING 331
SWIDTH 552 0
DWIDTH 23 0
BBX 17 31 3 -9
BITMAP
E1F800
E7FE00
EFFF00
FE1F80
F80780
F00780
F00380
F00380
F00380
F00380
E00380
E00380
E00380
E00380
E00380
E00380
E00380
E00380
E00380
E00380
E00380
E00380
000380
000380
000380
000380
000780
002F80
003F80
007F00
003C00
ENDCHAR
STARTCHAR 014C
ENCODING 332
SWIDTH 768 0
DWIDTH 32 0
BBX 29 36 2 -1
BITMAP
00FFF800
00FFF800
00FFF800
00000000
00000000
00000000
007FE000
01FFFC00
03FFFE00
0FE07F00
1F800F80
1F0007C0
3E0003E0
3C0001E0
780001E0
780000F0
780000F0
F00000F0
F00000F0
F00000F8
F00000F8
F00000F8
F00000F8
F00000F0
F00000F0
F80000F0
780000F0
780001E0
3C0001E0
3E0003E0
1F0007C0
1F800F80
0FE03F00
07FFFE00
01FFFC00
007FF000
ENDCHAR
STARTCHAR 014D
ENCODING 333
SWIDTH 552 0
DWIDTH 23 0
BBX 21 28 1 0
BITMAP
0FFF80
0FFF80
0FFF80
000000
000000
000000
01FC00
07FF00
0FFFC0
1F07C0
3C01E0
7C01F0
7800F0
7800F0
700070
F00078
F00078
F00078
F00078
700078
780070
7800F0
7800F0
3C01E0
3E03E0
1FFFC0
0FFF80
03FE00
ENDCHAR
STARTCHAR 014E
ENCODING 334
SWIDTH 768 0
DWIDTH 32 0
BBX 29 37 2 -1
BITMAP
00603800
00707000
007DF000
003FE000
000FC000
00000000
00000000
007FE000
01FFFC00
03FFFE00
0FE07F00
1F800F80
1F0007C0
3E0003E0
3C0001E0
780001E0
780000F0
780000F0
F00000F0
F00000F0
F00000F8
F00000F8
F00000F8
F00000F8
F00000F0
F00000F0
F80000F0
780000F0
780001E0
3C0001E0
3E0003E0
1F0007C0
1F800F80
0FE03F00
07FFFE00
01FFFC00
007FF000
ENDCHAR
STARTCHAR 014F
ENCODING 335
SWIDTH 552 0
DWIDTH 23 0
BBX 21 30 1 0
BITMAP
060380
070300
078700
03FE00
01FC00
000000
000000
000000
01FC00
07FF00
0FFFC0
1F07C0
3C01E0
7C01F0
7800F0
7800F0
700070
F00078
F00078
F00078
F00078
700078
780070
7800F0
7800F0
3C01E0
3E03E0
1FFFC0
0FFF80
03FE00
ENDCHAR
STARTCHAR 0150
ENCODING 336
SWIDTH 768 0
DWIDTH 32 0
BBX 29 37 2 -1
BITMAP
003C7800
0078F800
0078F000
00F0E000
00E1C000
00000000
00000000
007FE000
01FFFC00
03FFFE00
0FE07F00
1F800F80
1F0007C0
3E0003E0
3C0001E0
780001E0
780000F0
780000F0
F00000F0
F00000F0
F00000F8
F00000F8
F00000F8
F00000F8
F00000F0
F00000F0
F80000F0
780000F0
780001E0
3C0001E0
3E0003E0
1F0007C0
1F800F80
0FE03F00
07FFFE00
01FFFC00
007FF000
ENDCHAR
STARTCHAR 0151
ENCODING 337
SWIDTH 552 0
DWIDTH 23 0
BBX 21 30 1 0
BITMAP
01F3E0
01E3C0
03C780
038780
078F00
070E00
000000
000000
01FC00
07FF00
0FFFC0
1F07C0
3C01E0
7C01F0
7800F0
7800F0
700070
F00078
F00078
F00078
F00078
700078
780070
7800F0
7800F0
3C01E0
3E03E0
1FFFC0
0FFF80
03FE00
ENDCHAR
STARTCHAR 0152
ENCODING 338
SWIDTH 1008 0
DWIDTH 42 0
BBX 37 31 3 -1
BITMAP
01FF0FFFF8
07FFCFFFF8
0FFFEFFFF8
1F83EFFFF8
3E00FF0000
3C007F0000
7C003F0000
78003F0000
78001F0000
F0001F0000
F0001F0000
F0001F0000
F0000F0000
F0000FFFF0
F0000FFFF0
F0000FFFF0
F0000F0000
F0000F0000
F0001F0000
F0001F0000
F0001F0000
F8001F0000
78003F0000
78003F0000
3C007F0000
3E00FF0000
1F01EFFFF8
0FFFEFFFF8
07FFCFFFF8
01FF0FFFF8
0010000000
ENDCHAR
STARTCHAR 0153
ENCODING 339
SWIDTH 936 0
DWIDTH 39 0
BBX 36 22 2 0
BITMAP
03FC03F800
0FFF07FE00
1FFF9FFF80
3E0FFE07C0
7C03FC03C0
7801F801E0
F001F801E0
F000F000E0
F000F000F0
F000FFFFF0
E000FFFFF0
E000FFFFF0
F000F00000
F000F00000
F000F00000
F001F800F0
7801F801E0
7803FC01E0
3E07FE03C0
3FFF9FFF80
1FFF0FFF00
07FC07FE00
ENDCHAR
STARTCHAR 0154
ENCODING 340
SWIDTH 720 0
DWIDTH 30 0
BBX 26 37 3 0
BITMAP
003C0000
00780000
00700000
00F00000
00E00000
00000000
00000000
FFFFC000
FFFFF800
FFFFFC00
F003FE00
F0003E00
F0001F00
F0000F00
F0000F00
F0000F00
F0000F00
F0000F00
F0001E00
F0003E00
FFFFFC00
FFFFF800
FFFFE000
FFFF0000
F00FC000
F003E000
F001F000
F001F000
F000F800
F0007C00
F0007C00
F0003E00
F0001F00
F0001F00
F0000F80
F00007C0
F00007C0
ENDCHAR
STARTCHAR 0155
ENCODING 341
SWIDTH 336 0
DWIDTH 14 0
BBX 11 30 3 0
BITMAP
0F80
0F00
1E00
1E00
3C00
3800
0000
0000
E3C0
EFE0
EFE0
FFE0
F800
F000
F000
F000
F000
E000
E000
E000
E000
E000
E000
E000
E000
E000
E000
E000
E000
E000
ENDCHAR
STARTCHAR 0156
ENCODING 342
SWIDTH 720 0
DWIDTH 30 0
BBX 26 39 3 -9
BITMAP
FFFFC000
FFFFF800
FFFFFC00
F003FE00
F0003E00
F0001F00
F0000F00
F0000F00
F0000F00
F0000F00
F0000F00
F0001E00
F0003E00
FFFFFC00
FFFFF800
FFFFE000
FFFF0000
F00FC000
F003E000
F001F000
F001F000
F000F800
F0007C00
F0007C00
F0003E00
F0001F00
F0001F00
F0000F80
F00007C0
F00007C0
00000000
001F0000
001F8000
0003C000
0003C000
0003C000
007F8000
007F0000
00180000
ENDCHAR
STARTCHAR 0157
ENCODING 343
SWIDTH 336 0
DWIDTH 14 0
BBX 11 31 3 -9
BITMAP
E3C0
EFE0
EFE0
FFE0
F800
F000
F000
F000
F000
E000
E000
E000
E000
E000
E000
E000
E000
E000
E000
E000
E000
E000
0000
3E00
3F00
0780
0780
0780
FF00
FE00
2000
ENDCHAR
STARTCHAR 0158
ENCODING 344
SWIDTH 720 0
DWIDTH 30 0
BBX 26 37 3 0
BITMAP
0F0F0000
079E0000
03DC0000
01FC0000
01F80000
00000000
00000000
FFFFC000
FFFFF800
FFFFFC00
F003FE00
F0003E00
F0001F00
F0000F00
F0000F00
F0000F00
F0000F00
F0000F00
F0001E00
F0003E00
FFFFFC00
FFFFF800
FFFFE000
FFFF0000
F00FC000
F003E000
F001F000
F001F000
F000F800
F0007C00
F0007C00
F0003E00
F0001F00
F0001F00
F0000F80
F00007C0
F00007C0
ENDCHAR
STARTCHAR 0159
ENCODING 345
SWIDTH 336 0
DWIDTH 14 0
BBX 12 30 2 0
BITMAP
F0F0
F1E0
7BC0
3F80
1F00
1F00
0000
0000
71E0
77F0
77F0
7FF0
7C00
7800
7800
7800
7800
7000
7000
7000
7000
7000
7000
7000
7000
7000
7000
7000
7000
7000
ENDCHAR
STARTCHAR 015A
ENCODING 346
SWIDTH 672 0
DWIDTH 28 0
BBX 24 38 2 -1
BITMAP
003E00
003C00
007800
007000
00F000
000000
000000
01FF80
07FFE0
1FFFF0
3F01F8
3C007C
78003C
78003C
78001E
78001E
780000
3C0000
3F8000
1FF000
0FFF00
07FFE0
00FFF8
000FFC
0000FC
00003E
00001E
F0000F
F0000F
F0000F
F8000E
78001E
7E003E
3F80FC
1FFFF8
0FFFF0
03FFC0
000800
ENDCHAR
STARTCHAR 015B
ENCODING 347
SWIDTH 504 0
DWIDTH 21 0
BBX 18 30 1 0
BITMAP
007C00
007800
007800
00F000
00E000
01C000
000000
000000
07F800
1FFE00
3FFF00
3C0F80
780780
700380
780000
780000
7F0000
3FF000
1FFE00
07FF00
00FF80
000FC0
0003C0
7003C0
F003C0
7803C0
7C07C0
3FFF80
1FFF00
0FFC00
ENDCHAR
STARTCHAR 015C
ENCODING 348
SWIDTH 672 0
DWIDTH 28 0
BBX 24 38 2 -1
BITMAP
007C00
00FE00
00EF00
01E780
03C780
000040
000000
01FF80
07FFE0
1FFFF0
3F01F8
3C007C
78003C
78003C
78001E
78001E
780000
3C0000
3F8000
1FF000
0FFF00
07FFE0
00FFF8
000FFC
0000FC
00003E
00001E
F0000F
F0000F
F0000F
F8000E
78001E
7E003E
3F80FC
1FFFF8
0FFFF0
03FFC0
000800
ENDCHAR
STARTCHAR 015D
ENCODING 349
SWIDTH 504 0
DWIDTH 21 0
BBX 18 30 1 0
BITMAP
01F000
01F800
03FC00
079E00
0F1E00
0F0F00
000000
000000
07F800
1FFE00
3FFF00
3C0F80
780780
700380
780000
780000
7F0000
3FF000
1FFE00
07FF00
00FF80
000FC0
0003C0
7003C0
F003C0
7803C0
7C07C0
3FFF80
1FFF00
0FFC00
ENDCHAR
STARTCHAR 015E
ENCODING 350
SWIDTH 672 0
DWIDTH 28 0
BBX 24 38 2 -8
BITMAP
01FF80
07FFE0
1FFFF0
3F01F8
3C007C
78003C
78003C
78001E
78001E
780000
3C0000
3F8000
1FF000
0FFF00
07FFE0
00FFF8
000FFC
0000FC
00003E
00001E
F0000F
F0000F
F0000F
F8000E
78001E
7E003E
3F80FC
1FFFF8
0FFFF0
03FFC0
003800
003000
007E00
000F00
000F00
001F00
01FE00
01FC00
ENDCHAR
STARTCHAR 015F
ENCODING 351
SWIDTH 504 0
DWIDTH 21 0
BBX 18 30 1 -8
BITMAP
07F800
1FFE00
3FFF00
3C0F80
780780
700380
780000
780000
7F0000
3FF000
1FFE00
07FF00
00FF80
000FC0
0003C0
7003C0
F003C0
7803C0
7C07C0
3FFF80
1FFF00
0FFC00
01C000
01E000
01F000
003800
003800
00F800
07F000
0FE000
ENDCHAR
STARTCHAR 0160
ENCODING 352
SWIDTH 672 0
DWIDTH 28 0
BBX 24 38 2 -1
BITMAP
07C780
03CF00
01EF00
00FE00
00FC00
000000
000000
01FF80
07FFE0
1FFFF0
3F01F8
3C007C
78003C
78003C
78001E
78001E
780000
3C0000
3F8000
1FF000
0FFF00
07FFE0
00FFF8
000FFC
0000FC
00003E
00001E
F0000F
F0000F
F0000F
F8000E
78001E
7E003E
3F80FC
1FFFF8
0FFFF0
03FFC0
000800
ENDCHAR
STARTCHAR 0161
ENCODING 353
SWIDTH 504 0
DWIDTH 21 0
BBX 18 30 1 0
BITMAP
1E1E00
0F1C00
07BC00
03F800
03F000
01E000
000000
000000
07F800
1FFE00
3FFF00
3C0F80
780780
700380
780000
780000
7F0000
3FF000
1FFE00
07FF00
00FF80
000FC0
0003C0
7003C0
F003C0
7803C0
7C07C0
3FFF80
1FFF00
0FFC00
ENDCHAR
STARTCHAR 0162
ENCODING 354
SWIDTH 600 0
DWIDTH 25 0
BBX 24 42 1 -12
BITMAP
FFFFFF
FFFFFF
FFFFFF
FFFFFF
003C00
003C00
003C00
003C00
003C00
003C00
003C00
003C00
003C00
003C00
003C00
003C00
003C00
003C00
003C00
003C00
003C00
003C00
003C00
003C00
003C00
003C00
003C00
003C00
003C00
003C00
000000
000000
003C00
003C00
003C00
003C00
003C00
000C00
001C00
001800
003000
002000
ENDCHAR
STARTCHAR 0163
ENCODING 355
SWIDTH 288 0
DWIDTH 12 0
BBX 10 40 1 -11
BITMAP
0400
1C00
3C00
3C00
3C00
3C00
3C00
FFC0
FFC0
FFC0
3C00
3C00
3C00
3C00
3C00
3C00
3C00
3C00
3C00
3C00
3C00
3C00
3C00
3C00
3C00
1E00
1FC0
1FC0
0FC0
0000
0000
0700
0700
0700
0700
0300
0300
0300
0E00
0400
ENDCHAR
STARTCHAR 0164
ENCODING 356
SWIDTH 600 0
DWIDTH 25 0
BBX 24 37 1 0
BITMAP
03C3C0
01E780
01EF00
00FE00
007C00
000000
000000
FFFFFF
FFFFFF
FFFFFF
FFFFFF
003C00
003C00
003C00
003C00
003C00
003C00
003C00
003C00
003C00
003C00
003C00
003C00
003C00
003C00
003C00
003C00
003C00
003C00
003C00
003C00
003C00
003C00
003C00
003C00
003C00
003C00
ENDCHAR
STARTCHAR 0165
ENCODING 357
SWIDTH 384 0
DWIDTH 16 0
BBX 15 30 1 0
BITMAP
001E
041E
1C1E
3C1E
3C06
3C04
3C0C
3C1C
FFD8
FFC0
FFC0
3C00
3C00
3C00
3C00
3C00
3C00
3C00
3C00
3C00
3C00
3C00
3C00
3C00
3C00
3C00
1E00
1FC0
1FC0
0FC0
ENDCHAR
STARTCHAR 0166
ENCODING 358
SWIDTH 600 0
DWIDTH 25 0
BBX 24 30 1 0
BITMAP
FFFFFF
FFFFFF
FFFFFF
FFFFFF
003C00
003C00
003C00
003C00
003C00
003C00
003C00
003C00
003C00
003C00
003C00
1FFFF0
1FFFF0
003C00
003C00
003C00
003C00
003C00
003C00
003C00
003C00
003C00
003C00
003C00
003C00
003C00
ENDCHAR
STARTCHAR 0167
ENCODING 359
SWIDTH 288 0
DWIDTH 12 0
BBX 11 29 0 0
BITMAP
0600
0E00
1E00
1E00
1E00
1E00
1E00
FFC0
FFC0
FFC0
1E00
1E00
1E00
1E00
1E00
1E00
FFC0
FFC0
FFC0
1E00
1E00
1E00
1E00
1E00
1E00
1E00
1FC0
0FE0
07E0
ENDCHAR
STARTCHAR 0168
ENCODING 360
SWIDTH 720 0
DWIDTH 30 0
BBX 24 37 3 -1
BITMAP
006060
01F8E0
03FFE0
039FC0
030380
000000
000000
F0000F
F0000F
F0000F
F0000F
F0000F
F0000F
F0000F
F0000F
F0000F
F0000F
F0000F
F0000F
F0000F
F0000F
F0000F
F0000F
F0000F
F0000F
F0000F
F0000F
F0000F
78001E
78001E
78001E
7C003E
3E007C
3F81FC
1FFFF8
0FFFF0
03FFC0
ENDCHAR
STARTCHAR 0169
ENCODING 361
SWIDTH 552 0
DWIDTH 23 0
BBX 17 30 3 0
BITMAP
000700
1F8600
1FFE00
3DFE00
387C00
000000
000000
000000
E00380
E00380
E00380
E00380
E00380
E00380
E00380
E00380
E00380
E00380
E00380
E00380
E00380
E00780
E00780
E00780
F00780
F00F80
F81F80
7FFB80
3FF380
1FE380
ENDCHAR
STARTCHAR 016A
ENCODING 362
SWIDTH 720 0
DWIDTH 30 0
BBX 24 35 3 -1
BITMAP
03FFE0
03FFE0
03FFE0
000000
000000
F0000F
F0000F
F0000F
F0000F
F0000F
F0000F
F0000F
F0000F
F0000F
F0000F
F0000F
F0000F
F0000F
F0000F
F0000F
F0000F
F0000F
F0000F
F0000F
F0000F
F0000F
78001E
78001E
78001E
7C003E
3E007C
3F81FC
1FFFF8
0FFFF0
03FFC0
ENDCHAR
STARTCHAR 016B
ENCODING 363
SWIDTH 552 0
DWIDTH 23 0
BBX 17 28 3 0
BITMAP
3FFE00
3FFE00
3FFE00
000000
000000
000000
E00380
E00380
E00380
E00380
E00380
E00380
E00380
E00380
E00380
E00380
E00380
E00380
E00380
E00780
E00780
E00780
F00780
F00F80
F81F80
7FFB80
3FF380
1FE380
ENDCHAR
STARTCHAR 016C
ENCODING 364
SWIDTH 720 0
DWIDTH 30 0
BBX 24 37 3 -1
BITMAP
0381C0
0381C0
01E380
00FF80
007E00
000000
000000
F0000F
F0000F
F0000F
F0000F
F0000F
F0000F
F0000F
F0000F
F0000F
F0000F
F0000F
F0000F
F0000F
F0000F
F0000F
F0000F
F0000F
F0000F
F0000F
F0000F
F0000F
78001E
78001E
78001E
7C003E
3E007C
3F81FC
1FFFF8
0FFFF0
03FFC0
ENDCHAR
STARTCHAR 016D
ENCODING 365
SWIDTH 552 0
DWIDTH 23 0
BBX 17 30 3 0
BITMAP
180E00
1C0E00
1E1C00
0FF800
07F000
000000
000000
000000
E00380
E00380
E00380
E00380
E00380
E00380
E00380
E00380
E00380
E00380
E00380
E00380
E00380
E00780
E00780
E00780
F00780
F00F80
F81F80
7FFB80
3FF380
1FE380
ENDCHAR
STARTCHAR 016E
ENCODING 366
SWIDTH 720 0
DWIDTH 30 0
BBX 24 37 3 -1
BITMAP
003C00
006600
00C300
00C300
00C200
007E00
003C00
F0000F
F0000F
F0000F
F0000F
F0000F
F0000F
F0000F
F0000F
F0000F
F0000F
F0000F
F0000F
F0000F
F0000F
F0000F
F0000F
F0000F
F0000F
F0000F
F0000F
F0000F
78001E
78001E
78001E
7C003E
3E007C
3F81FC
1FFFF8
0FFFF0
03FFC0
ENDCHAR
STARTCHAR 016F
ENCODING 367
SWIDTH 552 0
DWIDTH 23 0
BBX 17 31 3 0
BITMAP
01C000
03E000
063000
041000
041000
063000
03E000
008000
000000
E00380
E00380
E00380
E00380
E00380
E00380
E00380
E00380
E00380
E00380
E00380
E00380
E00380
E00780
E00780
E00780
F00780
F00F80
F81F80
7FFB80
3FF380
1FE380
ENDCHAR
STARTCHAR 0170
ENCODING 368
SWIDTH 720 0
DWIDTH 30 0
BBX 24 37 3 -1
BITMAP
0078F0
00F1E0
00F1E0
01E3C0
01C380
000000
000000
F0000F
F0000F
F0000F
F0000F
F0000F
F0000F
F0000F
F0000F
F0000F
F0000F
F0000F
F0000F
F0000F
F0000F
F0000F
F0000F
F0000F
F0000F
F0000F
F0000F
F0000F
78001E
78001E
78001E
7C003E
3E007C
3F81FC
1FFFF8
0FFFF0
03FFC0
ENDCHAR
STARTCHAR 0171
ENCODING 369
SWIDTH 552 0
DWIDTH 23 0
BBX 17 30 3 0
BITMAP
0F9F00
0F1E00
1E3C00
1C3C00
3C7800
387000
000000
000000
E00380
E00380
E00380
E00380
E00380
E00380
E00380
E00380
E00380
E00380
E00380
E00380
E00380
E00780
E00780
E00780
F00780
F00F80
F81F80
7FFB80
3FF380
1FE380
ENDCHAR
STARTCHAR 0172
ENCODING 370
SWIDTH 720 0
DWIDTH 30 0
BBX 24 39 3 -9
BITMAP
F0000F
F0000F
F0000F
F0000F
F0000F
F0000F
F0000F
F0000F
F0000F
F0000F
F0000F
F0000F
F0000F
F0000F
F0000F
F0000F
F0000F
F0000F
F0000F
F0000F
F0000F
78001E
78001E
78001E
7C003E
3E007C
3F81FC
1FFFF8
0FFFF0
03FFC0
001800
003800
003800
003800
003800
003C20
001FE0
001FE0
000700
ENDCHAR
STARTCHAR 0173
ENCODING 371
SWIDTH 552 0
DWIDTH 23 0
BBX 22 31 3 -9
BITMAP
E00380
E00380
E00380
E00380
E00380
E00380
E00380
E00380
E00380
E00380
E00380
E00380
E00380
E00780
E00780
E00780
F00780
F00F80
F81F80
7FFB80
3FF380
1FE380
000300
000300
000700
000700
000700
000784
0003FC
0003FC
000060
ENDCHAR
STARTCHAR 0174
ENCODING 372
SWIDTH 936 0
DWIDTH 39 0
BBX 38 37 1 0
BITMAP
0000F80000
0001FC0000
0003DE0000
0003CF0000
00078F0000
0000008000
0000000000
F000F8003C
F000FC003C
F000FC0078
F001FC0078
7801FC0078
7801DE0070
7801DE00F0
7803CE00F0
3C038F00F0
3C038F00E0
3C078F01E0
3C078701E0
1C070781C0
1E070781C0
1E0F0383C0
0E0E03C3C0
0E0E03C380
0F1E03C380
0F1E01C780
071C01E780
071C01E700
07BC00E700
07BC00EF00
03B800EE00
03B800FE00
03F8007E00
03F0007E00
01F0007C00
01F0007C00
01F0003C00
ENDCHAR
STARTCHAR 0175
ENCODING 373
SWIDTH 720 0
DWIDTH 30 0
BBX 30 30 0 0
BITMAP
0007C000
000FC000
001FE000
001EF000
003C7800
00787C00
00000000
00000000
F007803C
F0078038
7007C038
780FC078
780FC070
380FC070
3C0FE0F0
3C1DE0F0
1C1CE0E0
1C1CE0E0
1E3CF1E0
1E38F1C0
0E3871C0
0F3873C0
0F787B80
07707B80
07703F80
07F03F00
03E03F00
03E01F00
03E01E00
01E01E00
ENDCHAR
STARTCHAR 0176
ENCODING 374
SWIDTH 672 0
DWIDTH 28 0
BBX 27 37 0 0
BITMAP
000F8000
001FC000
003DE000
0079E000
0078F000
00800000
00000000
F80001E0
7C0003E0
3C0007C0
3E000780
1F000F00
0F001F00
0F801E00
07C03C00
03C07C00
03E07800
01F0F000
00F1F000
00F9E000
007BC000
003FC000
003F8000
001F0000
000F0000
000F0000
000F0000
000F0000
000F0000
000F0000
000F0000
000F0000
000F0000
000F0000
000F0000
000F0000
000F0000
ENDCHAR
STARTCHAR 0177
ENCODING 375
SWIDTH 504 0
DWIDTH 21 0
BBX 19 39 1 -9
BITMAP
00F800
01F800
03DC00
03DE00
078F00
0F0F80
000000
000000
F000E0
F001E0
F001E0
7801C0
7803C0
3803C0
3C0380
3C0780
1E0700
1E0F00
1E0F00
0F0E00
0F1E00
071E00
079C00
07BC00
03B800
03F800
01F800
01F000
01F000
00F000
00E000
01E000
01C000
01C000
03C000
7F8000
7F0000
7F0000
3C0000
ENDCHAR
STARTCHAR 0178
ENCODING 376
SWIDTH 672 0
DWIDTH 28 0
BBX 27 36 0 0
BITMAP
00F0F000
00F0F000
00F0F000
00F0F000
00000000
00000000
F80001E0
7C0003E0
3C0007C0
3E000780
1F000F00
0F001F00
0F801E00
07C03C00
03C07C00
03E07800
01F0F000
00F1F000
00F9E000
007BC000
003FC000
003F8000
001F0000
000F0000
000F0000
000F0000
000F0000
000F0000
000F0000
000F0000
000F0000
000F0000
000F0000
000F0000
000F0000
000F0000
ENDCHAR
STARTCHAR 0179
ENCODING 377
SWIDTH 600 0
DWIDTH 25 0
BBX 23 37 1 0
BITMAP
001F00
003E00
003C00
007800
007000
000000
000000
3FFFFE
3FFFFE
3FFFFE
3FFFFE
00007C
000078
0000F8
0001F0
0003E0
0007C0
000F80
000F80
001F00
003E00
007C00
00F800
00F800
01F000
03E000
07C000
0F8000
0F8000
1F0000
3E0000
7C0000
F80000
FFFFFE
FFFFFE
FFFFFE
FFFFFE
ENDCHAR
STARTCHAR 017A
ENCODING 378
SWIDTH 504 0
DWIDTH 21 0
BBX 19 30 1 0
BITMAP
007C00
007800
00F000
00F000
00E000
01C000
000000
000000
7FFFC0
7FFFC0
7FFFC0
0007C0
000F80
000F00
001E00
003C00
007800
00F800
01F000
03E000
07C000
078000
0F0000
1E0000
3E0000
7C0000
F80000
FFFFE0
FFFFE0
FFFFE0
ENDCHAR
STARTCHAR 017B
ENCODING 379
SWIDTH 600 0
DWIDTH 25 0
BBX 23 36 1 0
BITMAP
003C00
003C00
003C00
003C00
000000
000000
3FFFFE
3FFFFE
3FFFFE
3FFFFE
00007C
000078
0000F8
0001F0
0003E0
0007C0
000F80
000F80
001F00
003E00
007C00
00F800
00F800
01F000
03E000
07C000
0F8000
0F8000
1F0000
3E0000
7C0000
F80000
FFFFFE
FFFFFE
FFFFFE
FFFFFE
ENDCHAR
STARTCHAR 017C
ENCODING 380
SWIDTH 504 0
DWIDTH 21 0
BBX 19 29 1 0
BITMAP
01F000
01F000
01F000
01F000
01F000
000000
000000
7FFFC0
7FFFC0
7FFFC0
0007C0
000F80
000F00
001E00
003C00
007800
00F800
01F000
03E000
07C000
078000
0F0000
1E0000
3E0000
7C0000
F80000
FFFFE0
FFFFE0
FFFFE0
ENDCHAR
STARTCHAR 017D
ENCODING 381
SWIDTH 600 0
DWIDTH 25 0
BBX 23 37 1 0
BITMAP
03C3C0
01E780
00EF00
00FE00
007E00
000000
000000
3FFFFE
3FFFFE
3FFFFE
3FFFFE
00007C
000078
0000F8
0001F0
0003E0
0007C0
000F80
000F80
001F00
003E00
007C00
00F800
00F800
01F000
03E000
07C000
0F8000
0F8000
1F0000
3E0000
7C0000
F80000
FFFFFE
FFFFFE
FFFFFE
FFFFFE
ENDCHAR
STARTCHAR 017E
ENCODING 382
SWIDTH 504 0
DWIDTH 21 0
BBX 19 30 1 0
BITMAP
0F0F00
079E00
079C00
03FC00
01F800
00F000
000000
000000
7FFFC0
7FFFC0
7FFFC0
0007C0
000F80
000F00
001E00
003C00
007800
00F800
01F000
03E000
07C000
078000
0F0000
1E0000
3E0000
7C0000
F80000
FFFFE0
FFFFE0
FFFFE0
ENDCHAR
STARTCHAR 017F
ENCODING 383
SWIDTH 216 0
DWIDTH 9 0
BBX 9 30 3 0
BITMAP
3F80
7F80
FF80
F000
F000
E000
E000
E000
E000
E000
E000
E000
E000
E000
E000
E000
E000
E000
E000
E000
E000
E000
E000
E000
E000
E000
E000
E000
E000
E000
ENDCHAR
STARTCHAR 018F
ENCODING 399
SWIDTH 744 0
DWIDTH 31 0
BBX 28 30 2 -1
BITMAP
007FE000
01FFF800
07FFFC00
0FE07E00
1F801F00
1F000F80
3E0007C0
3C0003C0
3C0003C0
000001E0
000001E0
000001E0
000001E0
FFFFFFE0
FFFFFFE0
FFFFFFF0
F00001E0
F00001E0
F00001E0
F80001E0
780001E0
780003E0
7C0003C0
3C0007C0
3E000F80
1F001F80
0FC03F00
07FFFE00
03FFFC00
00FFF000
ENDCHAR
STARTCHAR 0192
ENCODING 402
SWIDTH 552 0
DWIDTH 23 0
BBX 21 39 1 -9
BITMAP
0007F8
000FF8
000FF8
001F00
001E00
001E00
001E00
001C00
03FFC0
03FFC0
03FFC0
003C00
003800
003800
007800
007800
007800
007800
007000
007000
00F000
00F000
00F000
00F000
00E000
00E000
01E000
01E000
01E000
01C000
01C000
01C000
03C000
03C000
03C000
6F8000
FF8000
FF0000
7C0000
ENDCHAR
STARTCHAR 01A0
ENCODING 416
SWIDTH 864 0
DWIDTH 36 0
BBX 33 30 2 -1
BITMAP
007FE00780
01FFFC0780
03FFFE0780
0FE07F0780
1F800F8180
1F0007C180
3E0003E300
3C0001E300
780001EE00
780000FC00
780000F000
F00000F000
F00000F000
F00000F800
F00000F800
F00000F800
F00000F800
F00000F000
F00000F000
F80000F000
780000F000
780001E000
3C0001E000
3E0003E000
1E0007C000
1F800F8000
0FE03F0000
07FFFE0000
01FFFC0000
007FF00000
ENDCHAR
STARTCHAR 01A1
ENCODING 417
SWIDTH 648 0
DWIDTH 27 0
BBX 25 22 1 0
BITMAP
01FC0780
07FF0780
0FFFC780
1F07C780
3C01E180
7C01F180
7800F180
7800F300
70007600
F0007C00
F0007800
F0007800
F0007800
70007000
7800F000
7800F000
7800F000
3C01E000
3E03E000
1FFFC000
0FFF8000
03FE0000
ENDCHAR
STARTCHAR 01AF
ENCODING 431
SWIDTH 864 0
DWIDTH 36 0
BBX 31 30 3 -1
BITMAP
F0000F1E
F0000F1E
F0000F1E
F0000F1E
F0000F06
F0000F06
F0000F06
F0000F0C
F0000F0C
F0000F38
F0000FF0
F0000F80
F0000F00
F0000F00
F0000F00
F0000F00
F0000F00
F0000F00
F0000F00
F0000F00
F0000F00
78001E00
78001E00
78001E00
7C003E00
3E007C00
3F81FC00
1FFFF800
0FFFF000
03FFC000
ENDCHAR
STARTCHAR 01B0
ENCODING 432
SWIDTH 672 0
DWIDTH 28 0
BBX 24 22 3 0
BITMAP
E0038F
E0038F
E0038F
E0038F
E0038F
E00383
E00382
E00386
E00386
E0039C
E003F8
E003E0
E00380
E00780
E00780
E00780
F00780
F00F80
F81F80
7FFB80
3FF380
1FE380
ENDCHAR
STARTCHAR 01CD
ENCODING 461
SWIDTH 672 0
DWIDTH 28 0
BBX 28 37 0 0
BITMAP
00F1F000
00F1E000
007BC000
003F8000
001F0000
001E0000
00000000
001F0000
001F0000
003F8000
003F8000
003B8000
007BC000
007BC000
0071E000
00F1E000
00F0E000
01E0F000
01E0F000
01E07800
03C07800
03C07C00
03803C00
07803C00
07801E00
0FFFFE00
0FFFFF00
0FFFFF00
1E000F00
1E000F80
3C000780
3C0007C0
3C0003C0
780003C0
780003E0
780001E0
F00001F0
ENDCHAR
STARTCHAR 01CE
ENCODING 462
SWIDTH 552 0
DWIDTH 23 0
BBX 19 30 2 0
BITMAP
0F0F00
078E00
03DE00
03FC00
01F800
00F000
000000
000000
03FC00
1FFF00
3FFF80
7C0FC0
7803C0
F003C0
F001C0
0001C0
0003C0
00FFC0
0FFFC0
3FFDC0
7F81C0
F801C0
F003C0
E003C0
E003C0
F007C0
F00FC0
FE7FE0
7FF9E0
3FF1E0
ENDCHAR
STARTCHAR 01CF
ENCODING 463
SWIDTH 288 0
DWIDTH 12 0
BBX 12 37 0 0
BITMAP
F0F0
79E0
7BC0
3F80
1F80
0F00
0000
0F00
0F00
0F00
0F00
0F00
0F00
0F00
0F00
0F00
0F00
0F00
0F00
0F00
0F00
0F00
0F00
0F00
0F00
0F00
0F00
0F00
0F00
0F00
0F00
0F00
0F00
0F00
0F00
0F00
0F00
ENDCHAR
STARTCHAR 01D0
ENCODING 464
SWIDTH 216 0
DWIDTH 9 0
BBX 12 30 -1 0
BITMAP
F0F0
79E0
7BC0
3F80
1F80
0F00
0000
0000
0E00
0E00
0E00
0E00
0E00
0E00
0E00
0E00
0E00
0E00
0E00
0E00
0E00
0E00
0E00
0E00
0E00
0E00
0E00
0E00
0E00
0E00
ENDCHAR
STARTCHAR 01D1
ENCODING 465
SWIDTH 768 0
DWIDTH 32 0
BBX 29 37 2 -1
BITMAP
00F8F000
0078F000
003DE000
001FC000
000F8000
000F0000
00000000
007FE000
01FFFC00
03FFFE00
0FE07F00
1F800F80
1F0007C0
3E0003E0
3C0001E0
780001E0
780000F0
780000F0
F00000F0
F00000F0
F00000F8
F00000F8
F00000F8
F00000F8
F00000F0
F00000F0
F80000F0
780000F0
780001E0
3C0001E0
3E0003E0
1F0007C0
1F800F80
0FE03F00
07FFFE00
01FFFC00
007FF000
ENDCHAR
STARTCHAR 01D2
ENCODING 466
SWIDTH 552 0
DWIDTH 23 0
BBX 21 30 1 0
BITMAP
0F8F80
078F00
03DE00
01FC00
00F800
00F800
000000
000000
01FC00
07FF00
0FFFC0
1F07C0
3C01E0
7C01F0
7800F0
7800F0
700070
F00078
F00078
F00078
F00078
700078
780070
7800F0
7800F0
3C01E0
3E03E0
1FFFC0
0FFF80
03FE00
ENDCHAR
STARTCHAR 01D3
ENCODING 467
SWIDTH 720 0
DWIDTH 30 0
BBX 24 37 3 -1
BITMAP
03E3C0
01E3C0
00F780
007F00
003E00
003C00
000000
F0000F
F0000F
F0000F
F0000F
F0000F
F0000F
F0000F
F0000F
F0000F
F0000F
F0000F
F0000F
F0000F
F0000F
F0000F
F0000F
F0000F
F0000F
F0000F
F0000F
F0000F
78001E
78001E
78001E
7C003E
3E007C
3F81FC
1FFFF8
0FFFF0
03FFC0
ENDCHAR
STARTCHAR 01D4
ENCODING 468
SWIDTH 552 0
DWIDTH 23 0
BBX 17 30 3 0
BITMAP
1E1E00
1E3C00
0F7800
07F000
03F000
01E000
000000
000000
E00380
E00380
E00380
E00380
E00380
E00380
E00380
E00380
E00380
E00380
E00380
E00380
E00380
E00780
E00780
E00780
F00780
F00F80
F81F80
7FFB80
3FF380
1FE380
ENDCHAR
STARTCHAR 01D5
ENCODING 469
SWIDTH 720 0
DWIDTH 30 0
BBX 24 38 3 -1
BITMAP
01FFC0
01FFC0
01FFC0
000000
000000
01C1C0
01C1C0
01C1C0
F0000F
F0000F
F0000F
F0000F
F0000F
F0000F
F0000F
F0000F
F0000F
F0000F
F0000F
F0000F
F0000F
F0000F
F0000F
F0000F
F0000F
F0000F
F0000F
F0000F
F0000F
78001E
78001E
78001E
7C003E
3E007C
3F81FC
1FFFF8
0FFFF0
03FFC0
ENDCHAR
STARTCHAR 01D6
ENCODING 470
SWIDTH 552 0
DWIDTH 23 0
BBX 17 36 3 0
BITMAP
3FFE00
3FFE00
3FFE00
3FFE00
000000
000000
1E3C00
1E3C00
1E3C00
1E3C00
000000
000000
000000
000000
E00380
E00380
E00380
E00380
E00380
E00380
E00380
E00380
E00380
E00380
E00380
E00380
E00380
E00780
E00780
E00780
F00780
F00F80
F81F80
7FFB80
3FF380
1FE380
ENDCHAR
STARTCHAR 01D7
ENCODING 471
SWIDTH 720 0
DWIDTH 30 0
BBX 24 38 3 -1
BITMAP
000780
000F00
001E00
003800
000000
01C1C0
01C1C0
01C1C0
F0000F
F0000F
F0000F
F0000F
F0000F
F0000F
F0000F
F0000F
F0000F
F0000F
F0000F
F0000F
F0000F
F0000F
F0000F
F0000F
F0000F
F0000F
F0000F
F0000F
F0000F
78001E
78001E
78001E
7C003E
3E007C
3F81FC
1FFFF8
0FFFF0
03FFC0
ENDCHAR
STARTCHAR 01D8
ENCODING 472
SWIDTH 552 0
DWIDTH 23 0
BBX 17 38 3 0
BITMAP
007C00
00F800
00F000
01E000
01E000
01C000
000000
000000
1E3C00
1E3C00
1E3C00
1E3C00
000000
000000
000000
000000
E00380
E00380
E00380
E00380
E00380
E00380
E00380
E00380
E00380
E00380
E00380
E00380
E00380
E00780
E00780
E00780
F00780
F00F80
F81F80
7FFB80
3FF380
1FE380
ENDCHAR
STARTCHAR 01D9
ENCODING 473
SWIDTH 720 0
DWIDTH 30 0
BBX 24 38 3 -1
BITMAP
00E380
007700
007E00
003C00
000000
01C1C0
01C1C0
01C1C0
F0000F
F0000F
F0000F
F0000F
F0000F
F0000F
F0000F
F0000F
F0000F
F0000F
F0000F
F0000F
F0000F
F0000F
F0000F
F0000F
F0000F
F0000F
F0000F
F0000F
F0000F
78001E
78001E
78001E
7C003E
3E007C
3F81FC
1FFFF8
0FFFF0
03FFC0
ENDCHAR
STARTCHAR 01DA
ENCODING 474
SWIDTH 552 0
DWIDTH 23 0
BBX 17 38 3 0
BITMAP
3E1E00
1E3C00
0F3C00
077800
07F000
03E000
000000
000000
1E3C00
1E3C00
1E3C00
1E3C00
000000
000000
000000
000000
E00380
E00380
E00380
E00380
E00380
E00380
E00380
E00380
E00380
E00380
E00380
E00380
E00380
E00780
E00780
E00780
F00780
F00F80
F81F80
7FFB80
3FF380
1FE380
ENDCHAR
STARTCHAR 01DB
ENCODING 475
SWIDTH 720 0
DWIDTH 30 0
BBX 24 38 3 -1
BITMAP
01F000
00F000
003800
001C00
000000
01C1C0
01C1C0
01C1C0
F0000F
F0000F
F0000F
F0000F
F0000F
F0000F
F0000F
F0000F
F0000F
F0000F
F0000F
F0000F
F0000F
F0000F
F0000F
F0000F
F0000F
F0000F
F0000F
F0000F
F0000F
78001E
78001E
78001E
7C003E
3E007C
3F81FC
1FFFF8
0FFFF0
03FFC0
ENDCHAR
STARTCHAR 01DC
ENCODING 476
SWIDTH 552 0
DWIDTH 23 0
BBX 17 38 3 0
BITMAP
1F0000
0F0000
078000
078000
03C000
01C000
000000
000000
1E3C00
1E3C00
1E3C00
1E3C00
000000
000000
000000
000000
E00380
E00380
E00380
E00380
E00380
E00380
E00380
E00380
E00380
E00380
E00380
E00380
E00380
E00780
E00780
E00780
F00780
F00F80
F81F80
7FFB80
3FF380
1FE380
ENDCHAR
STARTCHAR 01FA
ENCODING 506
SWIDTH 672 0
DWIDTH 28 0
BBX 28 42 0 0
BITMAP
0003E000
0007C000
00078000
000F0000
000E0000
000E0000
001F0000
003B8000
00318000
00208000
00318000
003B8000
001F0000
001F0000
003F8000
003F8000
003B8000
007BC000
007BC000
0071E000
00F1E000
00F0E000
01E0F000
01E0F000
01E07800
03C07800
03C07C00
03803C00
07803C00
07801E00
0FFFFE00
0FFFFF00
0FFFFF00
1E000F00
1E000F80
3C000780
3C0007C0
3C0003C0
780003C0
780003E0
780001E0
F00001F0
ENDCHAR
STARTCHAR 01FB
ENCODING 507
SWIDTH 552 0
DWIDTH 23 0
BBX 19 39 2 0
BITMAP
003E00
003C00
007800
007800
007000
00E000
000000
000000
00E000
01F000
031800
020800
020800
031800
01F000
004000
000000
03FC00
1FFF00
3FFF80
7C0FC0
7803C0
F003C0
F001C0
0001C0
0003C0
00FFC0
0FFFC0
3FFDC0
7F81C0
F801C0
F003C0
E003C0
E003C0
F007C0
F00FC0
FE7FE0
7FF9E0
3FF1E0
ENDCHAR
STARTCHAR 01FC
ENCODING 508
SWIDTH 1008 0
DWIDTH 42 0
BBX 39 37 0 0
BITMAP
00000F8000
00000F0000
00001E0000
00001C0000
00003C0000
0000000000
0000000000
0003FFFFFE
0003FFFFFE
0007FFFFFE
0007FFFFFE
000F8F0000
000F0F0000
001F0F0000
001E0F0000
003E0F0000
003C0F0000
007C0F0000
00780F0000
00F80F0000
00F00FFFFC
01F00FFFFC
01E00FFFFC
01E00F0000
03C00F0000
03FFFF0000
07FFFF0000
07FFFF0000
0F000F0000
0F000F0000
1E000F0000
1E000F0000
3C000F0000
3C000FFFFE
78000FFFFE
78000FFFFE
F8000FFFFE
ENDCHAR
STARTCHAR 01FD
ENCODING 509
SWIDTH 888 0
DWIDTH 37 0
BBX 34 30 1 0
BITMAP
00003E0000
00003C0000
0000780000
0000700000
0000F00000
0000E00000
0000000000
0000000000
03FE07F000
0FFF9FFC00
1FFFFFFE00
3E07FC1F00
3C03F80780
7801F00380
7801E003C0
0001E003C0
0001E001C0
007FFFFFC0
07FFFFFFC0
1FFDFFFFC0
3F81E00000
7C01E00000
7801E00000
F001E003C0
F003F003C0
F803F00780
780FF80F80
7F7F3FFF00
3FFC1FFE00
1FF00FF800
ENDCHAR
STARTCHAR 01FE
ENCODING 510
SWIDTH 768 0
DWIDTH 32 0
BBX 29 38 2 -1
BITMAP
0003E000
0003C000
00078000
00070000
000F0000
00000000
00000020
007FE038
01FFF870
07FFFEE0
0FE07FC0
1F801FC0
1E0007C0
3E000FC0
3C001FE0
78003DE0
780039F0
F80070F0
F000E0F0
F001C0F0
F003C0F0
F00780F0
F00F00F0
F01E00F0
F03C00F0
F03800F0
F87000F0
78E000F0
79C001E0
3F8001E0
3F8003C0
1F0007C0
1F800F80
3FE03F00
7FFFFE00
71FFFC00
E07FF000
40000000
ENDCHAR
STARTCHAR 01FF
ENCODING 511
SWIDTH 600 0
DWIDTH 25 0
BBX 20 31 3 -2
BITMAP
003E00
003C00
007800
007800
00F000
00E000
000000
000040
03F870
0FFEE0
1FFFC0
3E0FC0
7C03C0
7807E0
F00FE0
F01CF0
F03CF0
E038F0
E070F0
E0E0F0
E1C0F0
F1C0F0
F380F0
F701E0
FE01E0
7E03E0
7C07C0
3FFF80
7FFF00
F7FC00
E00000
ENDCHAR
STARTCHAR 0218
ENCODING 536
SWIDTH 672 0
DWIDTH 28 0
BBX 24 41 2 -11
BITMAP
01FF80
07FFE0
1FFFF0
3F01F8
3C007C
78003C
78003C
78001E
78001E
780000
3C0000
3F8000
1FF000
0FFF00
07FFE0
00FFF8
000FFC
0000FC
00003E
00001E
F0000F
F0000F
F0000F
F8000E
78001E
7E003E
3F80FC
1FFFF8
0FFFF0
03FFC0
000800
000000
000000
003C00
003C00
003C00
003C00
000C00
001C00
003800
003000
ENDCHAR
STARTCHAR 0219
ENCODING 537
SWIDTH 504 0
DWIDTH 21 0
BBX 18 33 1 -11
BITMAP
07F800
1FFE00
3FFF00
3C0F80
780780
700380
780000
780000
7F0000
3FF000
1FFE00
07FF00
00FF80
000FC0
0003C0
7003C0
F003C0
7803C0
7C07C0
3FFF80
1FFF00
0FFC00
000000
000000
000000
01E000
01E000
01E000
01E000
006000
00E000
01C000
018000
ENDCHAR
STARTCHAR 021A
ENCODING 538
SWIDTH 600 0
DWIDTH 25 0
BBX 24 42 1 -12
BITMAP
FFFFFF
FFFFFF
FFFFFF
FFFFFF
003C00
003C00
003C00
003C00
003C00
003C00
003C00
003C00
003C00
003C00
003C00
003C00
003C00
003C00
003C00
003C00
003C00
003C00
003C00
003C00
003C00
003C00
003C00
003C00
003C00
003C00
000000
000000
003C00
003C00
003C00
003C00
003C00
000C00
001C00
001800
003000
002000
ENDCHAR
STARTCHAR 021B
ENCODING 539
SWIDTH 288 0
DWIDTH 12 0
BBX 10 40 1 -11
BITMAP
0400
1C00
3C00
3C00
3C00
3C00
3C00
FFC0
FFC0
FFC0
3C00
3C00
3C00
3C00
3C00
3C00
3C00
3C00
3C00
3C00
3C00
3C00
3C00
3C00
3C00
1E00
1FC0
1FC0
0FC0
0000
0000
0700
0700
0700
0700
0300
0300
0300
0E00
0400
ENDCHAR
STARTCHAR 0259
ENCODING 601
SWIDTH 552 0
DWIDTH 23 0
BBX 20 22 2 0
BITMAP
03F800
1FFE00
3FFF80
7E0FC0
7803C0
F803E0
F001E0
0001E0
0000F0
0000F0
FFFFF0
FFFFF0
FFFFF0
F000F0
F000E0
F001E0
7001E0
7803C0
3C07C0
3FFF80
1FFF00
07FC00
ENDCHAR
STARTCHAR 02C6
ENCODING 710
SWIDTH 336 0
DWIDTH 14 0
BBX 12 6 1 24
BITMAP
1F00
1F80
3FC0
79E0
F1E0
F0F0
ENDCHAR
STARTCHAR 02C7
ENCODING 711
SWIDTH 336 0
DWIDTH 14 0
BBX 12 6 1 24
BITMAP
F0F0
78E0
3DE0
3FC0
1F80
0F00
ENDCHAR
STARTCHAR 02C9
ENCODING 713
SWIDTH 336 0
DWIDTH 14 0
BBX 12 3 1 25
BITMAP
FFF0
FFF0
FFF0
ENDCHAR
STARTCHAR 02D8
ENCODING 728
SWIDTH 336 0
DWIDTH 14 0
BBX 12 5 1 25
BITMAP
E070
E070
70E0
7FE0
3FC0
ENDCHAR
STARTCHAR 02D9
ENCODING 729
SWIDTH 336 0
DWIDTH 14 0
BBX 4 5 5 24
BITMAP
F0
F0
F0
F0
F0
ENDCHAR
STARTCHAR 02DA
ENCODING 730
SWIDTH 336 0
DWIDTH 14 0
BBX 8 7 3 23
BITMAP
3C
7E
42
C3
C3
66
7E
ENDCHAR
STARTCHAR 02DB
ENCODING 731
SWIDTH 336 0
DWIDTH 14 0
BBX 9 9 4 -9
BITMAP
E000
C000
C000
C000
E000
F080
FF80
7F00
1800
ENDCHAR
STARTCHAR 02DC
ENCODING 732
SWIDTH 336 0
DWIDTH 14 0
BBX 14 5 0 25
BITMAP
001C
3E1C
7FF8
F7F8
E1F0
ENDCHAR
STARTCHAR 02DD
ENCODING 733
SWIDTH 336 0
DWIDTH 14 0
BBX 14 6 1 24
BITMAP
3E3C
3C78
3C78
78F0
70E0
E1C0
ENDCHAR
STARTCHAR 0300
ENCODING 768
SWIDTH 0 0
DWIDTH 0 0
BBX 7 6 -10 31
BITMAP
F0
F8
78
3C
1C
0E
ENDCHAR
STARTCHAR 0301
ENCODING 769
SWIDTH 0 0
DWIDTH 0 0
BBX 7 6 -8 31
BITMAP
1E
3E
3C
78
70
E0
ENDCHAR
STARTCHAR 0303
ENCODING 771
SWIDTH 0 0
DWIDTH 0 0
BBX 14 5 -19 31
BITMAP
3E1C
7FFC
7FFC
61F8
E000
ENDCHAR
STARTCHAR 0309
ENCODING 777
SWIDTH 0 0
DWIDTH 0 0
BBX 9 6 -10 31
BITMAP
FE00
7F80
0380
0780
1F00
1C00
ENDCHAR
STARTCHAR 0323
ENCODING 803
SWIDTH 0 0
DWIDTH 0 0
BBX 4 5 -16 -7
BITMAP
F0
F0
F0
F0
F0
ENDCHAR
STARTCHAR 037E
ENCODING 894
SWIDTH 288 0
DWIDTH 12 0
BBX 4 28 4 -6
BITMAP
F0
F0
F0
F0
F0
00
00
00
00
00
00
00
00
00
00
00
00
00
F0
F0
F0
F0
30
30
70
60
C0
80
ENDCHAR
STARTCHAR 0384
ENCODING 900
SWIDTH 336 0
DWIDTH 14 0
BBX 7 6 5 24
BITMAP
3E
3C
78
70
E0
E0
ENDCHAR
STARTCHAR 0385
ENCODING 901
SWIDTH 336 0
DWIDTH 14 0
BBX 14 6 0 25
BITMAP
01E0
01C0
E39C
E39C
E71C
E61C
ENDCHAR
STARTCHAR 0386
ENCODING 902
SWIDTH 672 0
DWIDTH 28 0
BBX 28 30 0 0
BITMAP
0F1F0000
1F1F0000
1E1F8000
3C3B8000
383B8000
707BC000
0079C000
0071E000
00F1E000
00F0F000
01E0F000
01E0F000
01E07800
03C07800
03C07C00
03803C00
07803C00
07801E00
0FFFFE00
0FFFFF00
0FFFFF00
1E000F00
1E000F80
3E000780
3C0007C0
3C0003C0
780003C0
780003E0
780001E0
F00001F0
ENDCHAR
STARTCHAR 0387
ENCODING 903
SWIDTH 288 0
DWIDTH 12 0
BBX 4 5 4 17
BITMAP
F0
F0
F0
F0
F0
ENDCHAR
STARTCHAR 0388
ENCODING 904
SWIDTH 792 0
DWIDTH 33 0
BBX 32 30 -2 0
BITMAP
1E3FFFFF
3E3FFFFF
3C3FFFFF
783FFFFF
703C0000
F03C0000
003C0000
003C0000
003C0000
003C0000
003C0000
003C0000
003C0000
003FFFFE
003FFFFE
003FFFFE
003C0000
003C0000
003C0000
003C0000
003C0000
003C0000
003C0000
003C0000
003C0000
003C0000
003FFFFF
003FFFFF
003FFFFF
003FFFFF
ENDCHAR
STARTCHAR 0389
ENCODING 905
SWIDTH 840 0
DWIDTH 35 0
BBX 33 30 -2 0
BITMAP
1E78000780
3E78000780
3C78000780
7878000780
7078000780
F078000780
0078000780
0078000780
0078000780
0078000780
0078000780
0078000780
007FFFFF80
007FFFFF80
007FFFFF80
007FFFFF80
0078000780
0078000780
0078000780
0078000780
0078000780
0078000780
0078000780
0078000780
0078000780
0078000780
0078000780
0078000780
0078000780
0078000780
ENDCHAR
STARTCHAR 038A
ENCODING 906
SWIDTH 384 0
DWIDTH 16 0
BBX 13 30 -2 0
BITMAP
1E78
3E78
3C78
7878
7078
F078
0078
0078
0078
0078
0078
0078
0078
0078
0078
0078
0078
0078
0078
0078
0078
0078
0078
0078
0078
0078
0078
0078
0078
0078
ENDCHAR
STARTCHAR 038C
ENCODING 908
SWIDTH 768 0
DWIDTH 32 0
BBX 32 30 -2 -1
BITMAP
1E07FE00
3E1FFF80
3C7FFFE0
78FE07F0
71F801F8
F1E0007C
03C0003C
07C0003E
0780001E
0780001F
0F00000F
0F00000F
0F00000F
0F00000F
0F00000F
0F00000F
0F00000F
0F00000F
0F00000F
0F00000F
0780001F
0780001E
07C0001E
03C0003C
03E0007C
01F000F8
00FC03F0
007FFFE0
001FFFC0
000FFF00
ENDCHAR
STARTCHAR 038E
ENCODING 910
SWIDTH 864 0
DWIDTH 36 0
BBX 37 30 -2 0
BITMAP
1E3E0000F8
3E1E0000F0
3C1F0001E0
780F8003E0
70078003C0
F007C00780
0003E00F80
0001E00F00
0001F01E00
0000F83E00
0000783C00
00007C7800
00003E7800
00001EF000
00001FE000
00000FC000
000007C000
0000078000
0000078000
0000078000
0000078000
0000078000
0000078000
0000078000
0000078000
0000078000
0000078000
0000078000
0000078000
0000078000
ENDCHAR
STARTCHAR 038F
ENCODING 911
SWIDTH 744 0
DWIDTH 31 0
BBX 31 30 -2 0
BITMAP
1E07FE00
3E1FFF80
3C7FFFC0
78FE07E0
71F801F0
F1F000F8
03E00078
03C0007C
07C0003C
0780003E
0780001E
0780001E
0780001E
0780001E
0780001E
0780001E
0780001E
0780001E
0780001C
0380003C
03C0003C
03C00038
01E00078
00F000F0
007801E0
003C03C0
0FFE0FFE
0FFF0FFE
0FFF0FFE
0FFF0FFE
ENDCHAR
STARTCHAR 0390
ENCODING 912
SWIDTH 216 0
DWIDTH 9 0
BBX 15 31 -3 0
BITMAP
00E0
01E0
F1DE
F39E
F39E
F71E
0000
0000
0000
0380
0380
0380
0380
0380
0380
0380
0380
0380
0380
0380
0380
0380
0380
0380
0380
0380
0380
0380
0380
0380
0380
ENDCHAR
STARTCHAR 0391
ENCODING 913
SWIDTH 672 0
DWIDTH 28 0
BBX 28 30 0 0
BITMAP
001F0000
001F0000
003F8000
003F8000
003B8000
007BC000
007BC000
0071E000
00F1E000
00F0E000
01E0F000
01E0F000
01E07800
03C07800
03C07C00
03803C00
07803C00
07801E00
0FFFFE00
0FFFFF00
0FFFFF00
1E000F00
1E000F80
3C000780
3C0007C0
3C0003C0
780003C0
780003E0
780001E0
F00001F0
ENDCHAR
STARTCHAR 0392
ENCODING 914
SWIDTH 672 0
DWIDTH 28 0
BBX 23 30 3 0
BITMAP
FFFE00
FFFFC0
FFFFE0
FFFFF0
F001F0
F000F8
F00078
F00078
F00078
F00078
F00078
F000F0
F007E0
FFFFC0
FFFFC0
FFFFF0
F007F8
F0007C
F0003C
F0003C
F0003E
F0003E
F0003E
F0003C
F0003C
F000FC
FFFFF8
FFFFF0
FFFFE0
FFFF00
ENDCHAR
STARTCHAR 0393
ENCODING 915
SWIDTH 552 0
DWIDTH 23 0
BBX 19 30 3 0
BITMAP
FFFFE0
FFFFE0
FFFFE0
FFFFE0
F00000
F00000
F00000
F00000
F00000
F00000
F00000
F00000
F00000
F00000
F00000
F00000
F00000
F00000
F00000
F00000
F00000
F00000
F00000
F00000
F00000
F00000
F00000
F00000
F00000
F00000
ENDCHAR
STARTCHAR 0394
ENCODING 916
SWIDTH 672 0
DWIDTH 28 0
BBX 28 30 0 0
BITMAP
001F0000
001F0000
001F8000
003B8000
003B8000
007BC000
007BC000
0071E000
00F1E000
00F0F000
01E0F000
01E0F000
01E07800
03C07800
03C07C00
03803C00
07803C00
07801E00
0F001E00
0F001F00
0F000F00
1E000F00
1E000F80
3E000780
3C0007C0
3C0003C0
7FFFFFC0
7FFFFFE0
7FFFFFE0
FFFFFFF0
ENDCHAR
STARTCHAR 0395
ENCODING 917
SWIDTH 672 0
DWIDTH 28 0
BBX 23 30 3 0
BITMAP
FFFFFC
FFFFFC
FFFFFC
FFFFFC
F00000
F00000
F00000
F00000
F00000
F00000
F00000
F00000
F00000
FFFFF8
FFFFF8
FFFFF8
F00000
F00000
F00000
F00000
F00000
F00000
F00000
F00000
F00000
F00000
FFFFFE
FFFFFE
FFFFFE
FFFFFE
ENDCHAR
STARTCHAR 0396
ENCODING 918
SWIDTH 600 0
DWIDTH 25 0
BBX 23 30 1 0
BITMAP
3FFFFE
3FFFFE
3FFFFE
3FFFFE
00007C
000078
0000F8
0001F0
0003E0
0007C0
000F80
000F80
001F00
003E00
007C00
00F800
00F800
01F000
03E000
07C000
0F8000
0F8000
1F0000
3E0000
7C0000
F80000
FFFFFE
FFFFFE
FFFFFE
FFFFFE
ENDCHAR
STARTCHAR 0397
ENCODING 919
SWIDTH 720 0
DWIDTH 30 0
BBX 24 30 3 0
BITMAP
F0000F
F0000F
F0000F
F0000F
F0000F
F0000F
F0000F
F0000F
F0000F
F0000F
F0000F
F0000F
FFFFFF
FFFFFF
FFFFFF
FFFFFF
F0000F
F0000F
F0000F
F0000F
F0000F
F0000F
F0000F
F0000F
F0000F
F0000F
F0000F
F0000F
F0000F
F0000F
ENDCHAR
STARTCHAR 0398
ENCODING 920
SWIDTH 768 0
DWIDTH 32 0
BBX 28 30 2 -1
BITMAP
007FE000
01FFFC00
07FFFE00
0FE07F00
1F800F80
1F0007C0
3E0003C0
3C0001E0
780001E0
780000F0
780000F0
F00000F0
F00000F0
F0FFF0F0
F0FFF0F0
F0FFF0F0
F0FFF0F0
F00000F0
F00000F0
F80000F0
780000F0
780001E0
7C0001E0
3E0003E0
1E0007C0
1F800F80
0FE03F00
07FFFE00
01FFFC00
007FF000
ENDCHAR
STARTCHAR 0399
ENCODING 921
SWIDTH 288 0
DWIDTH 12 0
BBX 4 30 4 0
BITMAP
F0
F0
F0
F0
F0
F0
F0
F0
F0
F0
F0
F0
F0
F0
F0
F0
F0
F0
F0
F0
F0
F0
F0
F0
F0
F0
F0
F0
F0
F0
ENDCHAR
STARTCHAR 039A
ENCODING 922
SWIDTH 672 0
DWIDTH 28 0
BBX 24 30 3 0
BITMAP
F0003F
F0007E
F000FC
F001F8
F003F0
F007E0
F00FC0
F01F80
F03F00
F07E00
F0F800
F1F000
F3F000
F7F800
FFF800
FF7C00
FE3E00
FC1F00
F81F00
F00F80
F007C0
F003C0
F003E0
F001F0
F000F8
F000F8
F0007C
F0003E
F0003F
F0001F
ENDCHAR
STARTCHAR 039B
ENCODING 923
SWIDTH 672 0
DWIDTH 28 0
BBX 27 30 0 0
BITMAP
000F0000
001F0000
001F8000
001F8000
003FC000
0039C000
0079C000
0079E000
0070E000
00F0F000
00F0F000
01E07000
01E07800
01C07800
03C03C00
03C03C00
07803C00
07801E00
07801E00
0F001E00
0F000F00
0E000F00
1E000780
1E000780
3C000780
3C0003C0
3C0003C0
780003E0
780001E0
F00001E0
ENDCHAR
STARTCHAR 039C
ENCODING 924
SWIDTH 840 0
DWIDTH 35 0
BBX 29 30 3 0
BITMAP
FC0001F8
FC0001F8
FE0003F8
FE0003F8
FE0003F8
FF0007F8
F7000778
F7000778
F7800F78
F3800E78
F3C00E78
F3C01E78
F1C01C78
F1E01C78
F1E03878
F0E03878
F0F03878
F0F07078
F0707078
F0787078
F078E078
F038E078
F03CE078
F03DC078
F01DC078
F01DC078
F01F8078
F00F8078
F00F8078
F00F0078
ENDCHAR
STARTCHAR 039D
ENCODING 925
SWIDTH 720 0
DWIDTH 30 0
BBX 24 30 3 0
BITMAP
F0000F
F8000F
FC000F
FC000F
FE000F
FF000F
FF000F
F7800F
F7C00F
F3C00F
F1E00F
F1F00F
F0F00F
F0780F
F07C0F
F03C0F
F01E0F
F01F0F
F00F0F
F0078F
F007CF
F003EF
F001EF
F001FF
F000FF
F0007F
F0007F
F0003F
F0001F
F0001F
ENDCHAR
STARTCHAR 039E
ENCODING 926
SWIDTH 648 0
DWIDTH 27 0
BBX 23 30 2 0
BITMAP
7FFFFC
7FFFFC
7FFFFC
7FFFFC
000000
000000
000000
000000
000000
000000
000000
000000
000000
1FFFF0
1FFFF0
1FFFF0
1FFFF0
000000
000000
000000
000000
000000
000000
000000
000000
000000
FFFFFE
FFFFFE
FFFFFE
FFFFFE
ENDCHAR
STARTCHAR 039F
ENCODING 927
SWIDTH 768 0
DWIDTH 32 0
BBX 29 30 2 -1
BITMAP
007FE000
01FFFC00
03FFFE00
0FE07F00
1F800F80
1F0007C0
3E0003E0
3C0001E0
780001E0
780000F0
780000F0
F00000F0
F00000F0
F00000F8
F00000F8
F00000F8
F00000F8
F00000F0
F00000F0
F80000F0
780000F0
780001E0
3C0001E0
3E0003E0
1F0007C0
1F800F80
0FE03F00
07FFFE00
01FFFC00
007FF000
ENDCHAR
STARTCHAR 03A0
ENCODING 928
SWIDTH 720 0
DWIDTH 30 0
BBX 24 30 3 0
BITMAP
FFFFFF
FFFFFF
FFFFFF
FFFFFF
F0000F
F0000F
F0000F
F0000F
F0000F
F0000F
F0000F
F0000F
F0000F
F0000F
F0000F
F0000F
F0000F
F0000F
F0000F
F0000F
F0000F
F0000F
F0000F
F0000F
F0000F
F0000F
F0000F
F0000F
F0000F
F0000F
ENDCHAR
STARTCHAR 03A1
ENCODING 929
SWIDTH 672 0
DWIDTH 28 0
BBX 23 30 3 0
BITMAP
FFFF00
FFFFE0
FFFFF8
FFFFF8
F0007C
F0003C
F0003E
F0001E
F0001E
F0001E
F0001E
F0003E
F0003C
F0007C
FFFFF8
FFFFF0
FFFFE0
FFFF00
F00000
F00000
F00000
F00000
F00000
F00000
F00000
F00000
F00000
F00000
F00000
F00000
ENDCHAR
STARTCHAR 03A3
ENCODING 931
SWIDTH 624 0
DWIDTH 26 0
BBX 21 30 3 0
BITMAP
FFFFF0
FFFFF0
FFFFF0
FFFFF0
F80000
7C0000
3E0000
1F0000
0F8000
07C000
03E000
01F000
00F800
007C00
003C00
007C00
00F800
01F000
03E000
07C000
078000
0F8000
1F0000
3E0000
7C0000
F80000
FFFFF8
FFFFF8
FFFFF8
FFFFF8
ENDCHAR
STARTCHAR 03A4
ENCODING 932
SWIDTH 600 0
DWIDTH 25 0
BBX 24 30 1 0
BITMAP
FFFFFF
FFFFFF
FFFFFF
FFFFFF
003C00
003C00
003C00
003C00
003C00
003C00
003C00
003C00
003C00
003C00
003C00
003C00
003C00
003C00
003C00
003C00
003C00
003C00
003C00
003C00
003C00
003C00
003C00
003C00
003C00
003C00
ENDCHAR
STARTCHAR 03A5
ENCODING 933
SWIDTH 672 0
DWIDTH 28 0
BBX 27 30 0 0
BITMAP
F80001E0
7C0003E0
3C0007C0
3E000780
1F000F00
0F001F00
0F801E00
07C03C00
03C07C00
03E07800
01F0F000
00F1F000
00F9E000
007BC000
003FC000
003F8000
001F0000
000F0000
000F0000
000F0000
000F0000
000F0000
000F0000
000F0000
000F0000
000F0000
000F0000
000F0000
000F0000
000F0000
ENDCHAR
STARTCHAR 03A6
ENCODING 934
SWIDTH 792 0
DWIDTH 33 0
BBX 30 32 2 -1
BITMAP
00078000
00078000
00078000
00078000
007FF000
03FFFE00
0FFFFF80
1FE7BFC0
3F0783E0
3C0781F0
780780F0
780780F8
F0078078
F0078078
F0078078
F007807C
F007807C
F0078078
F0078078
F0078078
780780F8
7C0780F0
3E0781F0
3F8787E0
1FFFFFC0
07FFFF00
01FFFC00
003FE000
00078000
00078000
00078000
00078000
ENDCHAR
STARTCHAR 03A7
ENCODING 935
SWIDTH 672 0
DWIDTH 28 0
BBX 26 30 1 0
BITMAP
78000780
7C000F80
3E000F00
1F001E00
0F003C00
0F807C00
07C07800
03C0F000
03E1F000
01F3E000
00FBC000
007F8000
007F8000
003F0000
001E0000
003F0000
007F8000
00FFC000
00F3C000
01E3E000
03E1F000
07C0F000
0780F800
0F807C00
1F003E00
1E003E00
3C001F00
7C000F80
F8000780
F00007C0
ENDCHAR
STARTCHAR 03A8
ENCODING 936
SWIDTH 840 0
DWIDTH 35 0
BBX 29 30 3 0
BITMAP
F00F0078
F00F0078
F00F0078
F00F0078
F00F0078
F00F0078
F00F0078
F00F0078
F00F0078
F00F0078
F00F0078
F00F0078
F00F0078
F80F00F8
780F00F0
7C0F03F0
3F0F07E0
1FFFFFC0
0FFFFF80
03FFFE00
007FF000
000F0000
000F0000
000F0000
000F0000
000F0000
000F0000
000F0000
000F0000
000F0000
ENDCHAR
STARTCHAR 03A9
ENCODING 937
SWIDTH 744 0
DWIDTH 31 0
BBX 27 30 2 0
BITMAP
007FE000
01FFF800
07FFFC00
0FE0FE00
1F803F00
1F000F80
3E000F80
3C0007C0
7C0003C0
780003C0
780003E0
F80001E0
F80001E0
F00001E0
F00001E0
F00001E0
780001E0
780001C0
780003C0
780003C0
3C000380
3C000780
1E000700
0E000F00
0F001E00
07C03C00
FFE0FFE0
FFF0FFE0
FFF0FFE0
FFF0FFE0
ENDCHAR
STARTCHAR 03AA
ENCODING 938
SWIDTH 288 0
DWIDTH 12 0
BBX 12 36 0 0
BITMAP
F0F0
F0F0
F0F0
F0F0
0000
0000
0F00
0F00
0F00
0F00
0F00
0F00
0F00
0F00
0F00
0F00
0F00
0F00
0F00
0F00
0F00
0F00
0F00
0F00
0F00
0F00
0F00
0F00
0F00
0F00
0F00
0F00
0F00
0F00
0F00
0F00
ENDCHAR
STARTCHAR 03AB
ENCODING 939
SWIDTH 672 0
DWIDTH 28 0
BBX 27 36 0 0
BITMAP
00F0F000
00F0F000
00F0F000
00F0F000
00000000
00000000
F80001E0
7C0003E0
3C0007C0
3E000780
1F000F00
0F001F00
0F801E00
07C03C00
03C07C00
03E07800
01F0F000
00F1F000
00F9E000
007BC000
003FC000
003F8000
001F0000
000F0000
000F0000
000F0000
000F0000
000F0000
000F0000
000F0000
000F0000
000F0000
000F0000
000F0000
000F0000
000F0000
ENDCHAR
STARTCHAR 03AC
ENCODING 940
SWIDTH 576 0
DWIDTH 24 0
BBX 22 30 1 0
BITMAP
001F00
003E00
003C00
003800
007000
007000
000000
000000
03F83C
0FFE78
1FFF78
3F0778
3C03F0
7C01F0
7801F0
7801F0
7800F0
7800E0
F800E0
F800E0
F800E0
7800E0
7801F0
7801F0
7C01F0
3C03F0
3E0770
1FFF78
0FFE78
07FC38
ENDCHAR
STARTCHAR 03AD
ENCODING 941
SWIDTH 456 0
DWIDTH 19 0
BBX 15 30 2 0
BITMAP
00F8
01F0
01E0
03C0
0380
0380
0000
0000
0FE0
1FF8
3FFE
7C3C
7808
7000
7000
7800
7800
3FC0
1FC0
3FC0
7F00
7800
F000
F000
F000
F00C
F81E
7FFE
3FFC
1FF0
ENDCHAR
STARTCHAR 03AE
ENCODING 942
SWIDTH 552 0
DWIDTH 23 0
BBX 17 38 3 -8
BITMAP
007C00
00F800
00F000
00E000
01C000
01C000
000000
000000
E1F800
E7FE00
EFFF00
FE1F80
F80780
F00780
F00380
F00380
F00380
F00380
E00380
E00380
E00380
E00380
E00380
E00380
E00380
E00380
E00380
E00380
E00380
E00380
000380
000380
000380
000380
000380
000380
000380
000380
ENDCHAR
STARTCHAR 03AF
ENCODING 943
SWIDTH 216 0
DWIDTH 9 0
BBX 7 30 2 0
BITMAP
3E
3C
3C
78
70
E0
00
00
70
70
70
70
70
70
70
70
70
70
70
70
70
70
70
70
70
70
70
70
70
70
ENDCHAR
STARTCHAR 03B0
ENCODING 944
SWIDTH 552 0
DWIDTH 23 0
BBX 17 31 3 0
BITMAP
00F000
00E000
78EF00
79CF00
798F00
7B8F00
000000
000000
000000
E00780
E00780
E00780
E00780
E00780
E00780
E00780
E00780
E00780
E00780
E00780
E00780
E00780
E00780
F00780
F00780
F00780
F80F00
7C1F00
7FFE00
3FFC00
0FF800
ENDCHAR
STARTCHAR 03B1
ENCODING 945
SWIDTH 576 0
DWIDTH 24 0
BBX 22 22 1 0
BITMAP
03F83C
0FFE78
1FFF78
3F0778
3C03F0
7C01F0
7801F0
7801F0
7800F0
7800E0
F800E0
F800E0
F800E0
7800E0
7801F0
7801F0
7C01F0
3C03F0
3E0770
1FFF78
0FFE78
07FC38
ENDCHAR
STARTCHAR 03B2
ENCODING 946
SWIDTH 576 0
DWIDTH 24 0
BBX 19 38 3 -8
BITMAP
07F800
1FFE00
3FFF00
7C0F00
780780
F00380
F00380
F00380
F00380
F00780
E00700
E00F00
E1FC00
E1F000
E1FE00
E01F80
E00780
E003C0
F003E0
F001E0
F001E0
F001E0
F001E0
F001E0
F001E0
F803C0
FC07C0
EF1F80
E7FF00
E3FE00
E00000
E00000
E00000
E00000
E00000
E00000
E00000
E00000
ENDCHAR
STARTCHAR 03B3
ENCODING 947
SWIDTH 504 0
DWIDTH 21 0
BBX 19 30 1 -8
BITMAP
E000E0
F001E0
F001E0
7003C0
7803C0
780380
3C0780
3C0780
3C0700
1E0F00
1E0F00
0E0E00
0F1E00
0F1C00
073C00
07BC00
07B800
03F800
03F800
01F000
01F000
01E000
00E000
00E000
00E000
00E000
00E000
00E000
00E000
00E000
ENDCHAR
STARTCHAR 03B4
ENCODING 948
SWIDTH 552 0
DWIDTH 23 0
BBX 21 30 1 0
BITMAP
1FFFE0
1FFFE0
1FFFE0
1F0000
0F8000
03C000
01E000
00F800
007C00
03FF00
0FFF80
1FFFC0
3E03E0
3C01E0
7800F0
7800F0
780078
700078
F00078
F00078
F00078
700078
780070
7800F0
7C00F0
3C01E0
3E03E0
1FFFC0
0FFF80
03FE00
ENDCHAR
STARTCHAR 03B5
ENCODING 949
SWIDTH 456 0
DWIDTH 19 0
BBX 15 22 2 0
BITMAP
0FE0
1FF8
3FFE
7C3C
7808
7000
7000
7800
7800
3FC0
1FC0
3FC0
7F00
7800
F000
F000
F000
F00C
F81E
7FFE
3FFC
1FF0
ENDCHAR
STARTCHAR 03B6
ENCODING 950
SWIDTH 432 0
DWIDTH 18 0
BBX 17 39 1 -9
BITMAP
0FFF80
0FFF80
0FFF80
000F00
003C00
007800
00F000
01E000
03C000
078000
078000
0F0000
1E0000
1E0000
3C0000
3C0000
780000
780000
780000
700000
700000
F00000
700000
700000
780000
7C0000
3F0000
3FFC00
1FFE00
07FF00
000F00
000780
000780
000700
000F00
003F00
007E00
007C00
006000
ENDCHAR
STARTCHAR 03B7
ENCODING 951
SWIDTH 552 0
DWIDTH 23 0
BBX 17 30 3 -8
BITMAP
E1F800
E7FE00
EFFF00
FE1F80
F80780
F00780
F00380
F00380
F00380
F00380
E00380
E00380
E00380
E00380
E00380
E00380
E00380
E00380
E00380
E00380
E00380
E00380
000380
000380
000380
000380
000380
000380
000380
000380
ENDCHAR
STARTCHAR 03B8
ENCODING 952
SWIDTH 552 0
DWIDTH 23 0
BBX 19 30 2 0
BITMAP
03FC00
0FFE00
1FFF00
3E0F80
3C07C0
7803C0
7803C0
7001E0
F001E0
F001E0
F001E0
F001E0
F000E0
F000E0
FFFFE0
FFFFE0
FFFFE0
F000E0
F001E0
F001E0
F001E0
F001E0
7001E0
7801C0
7803C0
3C03C0
3E0780
1FFF00
0FFE00
07FC00
ENDCHAR
STARTCHAR 03B9
ENCODING 953
SWIDTH 216 0
DWIDTH 9 0
BBX 3 22 3 0
BITMAP
E0
E0
E0
E0
E0
E0
E0
E0
E0
E0
E0
E0
E0
E0
E0
E0
E0
E0
E0
E0
E0
E0
ENDCHAR
STARTCHAR 03BA
ENCODING 954
SWIDTH 504 0
DWIDTH 21 0
BBX 17 22 3 0
BITMAP
E00F80
E01F00
E03E00
E07C00
E0F800
E1E000
E3C000
E78000
EF0000
FE0000
FF0000
FF8000
F7C000
E3E000
E1F000
E0F000
E07800
E07C00
E03E00
E01F00
E00F80
E00780
ENDCHAR
STARTCHAR 03BB
ENCODING 955
SWIDTH 504 0
DWIDTH 21 0
BBX 19 30 1 0
BITMAP
0F0000
078000
078000
038000
03C000
03C000
01E000
01E000
01E000
01F000
01F000
03F000
03F800
03F800
07BC00
07BC00
073C00
0F1E00
0F1E00
1E1E00
1E0F00
1E0F00
3C0780
3C0780
380780
7803C0
7803C0
F003C0
F001E0
F001E0
ENDCHAR
STARTCHAR 03BC
ENCODING 956
SWIDTH 576 0
DWIDTH 24 0
BBX 18 30 3 -8
BITMAP
F003C0
F003C0
F003C0
F003C0
F003C0
F003C0
F003C0
F003C0
F003C0
F003C0
F003C0
F003C0
F003C0
F003C0
F003C0
F003C0
F807C0
F807C0
FC1FC0
FFFFC0
FFFFC0
F7FBC0
F00000
F00000
F00000
F00000
F00000
F00000
F00000
F00000
ENDCHAR
STARTCHAR 03BD
ENCODING 957
SWIDTH 504 0
DWIDTH 21 0
BBX 19 22 1 0
BITMAP
E000E0
F001E0
F001E0
7803C0
7803C0
780380
3C0780
3C0780
1C0700
1E0F00
1E0F00
0E0E00
0F1E00
071C00
073C00
07BC00
03B800
03F800
03F000
01F000
01F000
00E000
ENDCHAR
STARTCHAR 03BE
ENCODING 958
SWIDTH 456 0
DWIDTH 19 0
BBX 16 39 2 -9
BITMAP
07FC
1FFC
3FFC
3C00
7800
7800
7000
7800
7800
3E00
1FF8
0FF8
03F8
0FC0
1E00
3C00
7800
7800
F000
F000
F000
F000
F000
F000
F800
7C00
7F00
3FF8
0FFC
03FE
001F
000F
000F
000F
001E
007E
00FC
00F8
00C0
ENDCHAR
STARTCHAR 03BF
ENCODING 959
SWIDTH 552 0
DWIDTH 23 0
BBX 21 22 1 0
BITMAP
01FC00
07FF00
0FFFC0
1F07C0
3C01E0
7C01F0
7800F0
7800F0
700070
F00078
F00078
F00078
F00078
700078
780070
7800F0
7800F0
3C01E0
3E03E0
1FFFC0
0FFF80
03FE00
ENDCHAR
STARTCHAR 03C0
ENCODING 960
SWIDTH 696 0
DWIDTH 29 0
BBX 27 22 1 0
BITMAP
FFFFFFE0
FFFFFFE0
FFFFFFE0
03803C00
03803C00
03803C00
03803C00
03803C00
03803C00
03803C00
03803C00
03803C00
03803C00
03803C00
03803C00
03803C00
03803C00
03803C00
03803C00
03803C00
03803C00
03803C00
ENDCHAR
STARTCHAR 03C1
ENCODING 961
SWIDTH 576 0
DWIDTH 24 0
BBX 19 30 3 -8
BITMAP
03F800
0FFE00
3FFF00
3E0F80
7807C0
7803C0
F001E0
F001E0
F001E0
E001E0
E001E0
E001E0
E001E0
F001E0
F001E0
F001E0
F003C0
F803C0
FC0780
FFFF00
EFFE00
E7FC00
E00000
E00000
E00000
E00000
E00000
E00000
E00000
E00000
ENDCHAR
STARTCHAR 03C2
ENCODING 962
SWIDTH 480 0
DWIDTH 20 0
BBX 17 31 2 -9
BITMAP
00FF80
03FF80
0FFF80
1F8080
3E0000
3C0000
780000
700000
F00000
F00000
E00000
E00000
E00000
F00000
F00000
F80000
7C0000
7E0000
3FC000
1FF800
07FE00
00FF00
001F00
000780
000780
000780
000F00
01FF00
03FE00
03FC00
03E000
ENDCHAR
STARTCHAR 03C3
ENCODING 963
SWIDTH 624 0
DWIDTH 26 0
BBX 24 22 1 0
BITMAP
01FFFF
07FFFF
0FFFFF
1F07C0
3C01E0
7C01F0
7800F0
7800F0
700070
F00078
F00078
F00078
F00078
700078
780070
7800F0
7800F0
3C01E0
3E03E0
1FFFC0
0FFF80
03FE00
ENDCHAR
STARTCHAR 03C4
ENCODING 964
SWIDTH 384 0
DWIDTH 16 0
BBX 15 22 1 0
BITMAP
FFFE
FFFE
FFFE
0380
0380
0380
0380
0380
0380
0380
0380
0380
0380
0380
0380
0380
0380
0380
0380
0380
0380
0380
ENDCHAR
STARTCHAR 03C5
ENCODING 965
SWIDTH 552 0
DWIDTH 23 0
BBX 17 22 3 0
BITMAP
E00780
E00780
E00780
E00780
E00780
E00780
E00780
E00780
E00780
E00780
E00780
E00780
E00780
E00780
F00780
F00780
F00780
F80F00
7C1F00
7FFE00
3FFC00
0FF800
ENDCHAR
STARTCHAR 03C6
ENCODING 966
SWIDTH 648 0
DWIDTH 27 0
BBX 25 30 1 -8
BITMAP
0387E000
078FF800
1F9FFC00
1F1E3E00
3C1E1E00
781E0F00
781E0F00
781C0700
701C0780
701C0780
F01C0780
F01C0780
701C0700
781C0F00
781C0F00
7C1C1E00
3C1C1E00
3E1C3C00
1F9CFC00
0FFFF800
07FFE000
01FFC000
001E0000
001C0000
001C0000
001C0000
001C0000
001C0000
001C0000
001C0000
ENDCHAR
STARTCHAR 03C7
ENCODING 967
SWIDTH 528 0
DWIDTH 22 0
BBX 20 30 1 -8
BITMAP
F000F0
7801E0
7801E0
3C03C0
3C03C0
1E0780
1E0780
0F0F00
0F0F00
079E00
079E00
03BC00
03FC00
01F800
01F000
00F000
01F800
03F800
03FC00
079E00
079E00
0F0F00
0E0F00
1E0780
1C0780
3C03C0
7803C0
7801E0
F001F0
F000F0
ENDCHAR
STARTCHAR 03C8
ENCODING 968
SWIDTH 720 0
DWIDTH 30 0
BBX 25 30 2 -8
BITMAP
F01E0380
F01E0380
F01E0380
F01E0380
F01E0380
F01E0380
F01E0380
F01E0380
F01E0380
F01E0380
F01E0380
F01E0380
701E0380
701E0380
701E0780
781E0780
781E0780
7C1E0F00
3E1E1F00
1FFFFE00
0FFFFC00
03FFF000
001E0000
001E0000
001E0000
001E0000
001E0000
001E0000
001E0000
001E0000
ENDCHAR
STARTCHAR 03C9
ENCODING 969
SWIDTH 792 0
DWIDTH 33 0
BBX 29 22 2 0
BITMAP
1C0003C0
3C0001C0
3C0001E0
780001E0
780000F0
780000F0
F00F00F0
F00F0070
F00F0078
F00F0078
F00F0078
F00F0078
F00F0078
F00F0078
F00F0078
F00F0070
F00F80F0
781F80F0
7C1DC1E0
3E79F7E0
1FF8FFC0
0FE07F80
ENDCHAR
STARTCHAR 03CA
ENCODING 970
SWIDTH 216 0
DWIDTH 9 0
BBX 11 30 -1 0
BITMAP
F0E0
F0E0
F0E0
F0E0
0000
0000
0000
0000
0E00
0E00
0E00
0E00
0E00
0E00
0E00
0E00
0E00
0E00
0E00
0E00
0E00
0E00
0E00
0E00
0E00
0E00
0E00
0E00
0E00
0E00
ENDCHAR
STARTCHAR 03CB
ENCODING 971
SWIDTH 552 0
DWIDTH 23 0
BBX 17 30 3 0
BITMAP
1E1E00
1E1E00
1E1E00
1E1E00
000000
000000
000000
000000
E00780
E00780
E00780
E00780
E00780
E00780
E00780
E00780
E00780
E00780
E00780
E00780
E00780
E00780
F00780
F00780
F00780
F80F00
7C1F00
7FFE00
3FFC00
0FF800
ENDCHAR
STARTCHAR 03CC
ENCODING 972
SWIDTH 552 0
DWIDTH 23 0
BBX 21 30 1 0
BITMAP
001F00
003E00
003C00
003800
007000
007000
000000
000000
01FC00
07FF00
0FFFC0
1F07C0
3C01E0
7C01F0
7800F0
7800F0
700070
F00078
F00078
F00078
F00078
700078
780070
7800F0
7800F0
3C01E0
3E03E0
1FFFC0
0FFF80
03FE00
ENDCHAR
STARTCHAR 03CD
ENCODING 973
SWIDTH 552 0
DWIDTH 23 0
BBX 17 30 3 0
BITMAP
00F800
00F000
00F000
01E000
01C000
038000
000000
000000
E00780
E00780
E00780
E00780
E00780
E00780
E00780
E00780
E00780
E00780
E00780
E00780
E00780
E00780
F00780
F00780
F00780
F80F00
7C1F00
7FFE00
3FFC00
0FF800
ENDCHAR
STARTCHAR 03CE
ENCODING 974
SWIDTH 792 0
DWIDTH 33 0
BBX 29 30 2 0
BITMAP
0001E000
0003E000
0003C000
00078000
00070000
000E0000
00000000
00000000
1C0003C0
3C0001C0
3C0001E0
780001E0
780000F0
780000F0
F00F00F0
F00F0070
F00F0078
F00F0078
F00F0078
F00F0078
F00F0078
F00F0078
F00F0078
F00F0070
F00F80F0
781F80F0
7C1DC1E0
3E79F7E0
1FF8FFC0
0FE07F80
ENDCHAR
STARTCHAR 0401
ENCODING 1025
SWIDTH 672 0
DWIDTH 28 0
BBX 23 36 3 0
BITMAP
078780
078780
078780
078780
000000
000000
FFFFFC
FFFFFC
FFFFFC
FFFFFC
F00000
F00000
F00000
F00000
F00000
F00000
F00000
F00000
F00000
FFFFF8
FFFFF8
FFFFF8
F00000
F00000
F00000
F00000
F00000
F00000
F00000
F00000
F00000
F00000
FFFFFE
FFFFFE
FFFFFE
FFFFFE
ENDCHAR
STARTCHAR 0402
ENCODING 1026
SWIDTH 864 0
DWIDTH 36 0
BBX 33 30 1 -1
BITMAP
FFFFFF0000
FFFFFF0000
FFFFFF0000
FFFFFF0000
003C000000
003C000000
003C000000
003C000000
003C000000
003C000000
003C000000
003C1FE000
003DFFF800
003FFFFC00
003FF0FE00
003F001F00
003C000F00
003C000780
003C000780
003C000780
003C000780
003C000780
003C000780
003C000780
003C000F80
003C000F00
003C001F00
003C0FFE00
003C0FFC00
003C1FF800
ENDCHAR
STARTCHAR 0403
ENCODING 1027
SWIDTH 552 0
DWIDTH 23 0
BBX 20 37 3 0
BITMAP
007C00
00F800
00F000
01E000
01C000
000000
000000
FFFFF0
FFFFF0
FFFFF0
FFFFF0
F00000
F00000
F00000
F00000
F00000
F00000
F00000
F00000
F00000
F00000
F00000
F00000
F00000
F00000
F00000
F00000
F00000
F00000
F00000
F00000
F00000
F00000
F00000
F00000
F00000
F00000
ENDCHAR
STARTCHAR 0404
ENCODING 1028
SWIDTH 720 0
DWIDTH 30 0
BBX 26 30 2 -1
BITMAP
007FE000
01FFF800
03FFFE00
07E07F00
0F801F00
1E000F80
3E000780
3C0007C0
78000380
78000000
78000000
78000000
F8000000
FFFE0000
FFFE0000
FFFE0000
F0000000
F0000000
F8000000
78000000
780003C0
780003C0
7C0003C0
3E000780
3E000F80
1F001F00
0FC03F00
07FFFE00
03FFF800
00FFF000
ENDCHAR
STARTCHAR 0405
ENCODING 1029
SWIDTH 672 0
DWIDTH 28 0
BBX 24 31 2 -1
BITMAP
01FF80
07FFE0
1FFFF0
3F01F8
3C007C
78003C
78003C
78001E
78001E
780000
3C0000
3F8000
1FF000
0FFF00
07FFE0
00FFF8
000FFC
0000FC
00003E
00001E
F0000F
F0000F
F0000F
F8000E
78001E
7E003E
3F80FC
1FFFF8
0FFFF0
03FFC0
000800
ENDCHAR
STARTCHAR 0406
ENCODING 1030
SWIDTH 288 0
DWIDTH 12 0
BBX 4 30 4 0
BITMAP
F0
F0
F0
F0
F0
F0
F0
F0
F0
F0
F0
F0
F0
F0
F0
F0
F0
F0
F0
F0
F0
F0
F0
F0
F0
F0
F0
F0
F0
F0
ENDCHAR
STARTCHAR 0407
ENCODING 1031
SWIDTH 288 0
DWIDTH 12 0
BBX 12 36 0 0
BITMAP
F0F0
F0F0
F0F0
F0F0
0000
0000
0F00
0F00
0F00
0F00
0F00
0F00
0F00
0F00
0F00
0F00
0F00
0F00
0F00
0F00
0F00
0F00
0F00
0F00
0F00
0F00
0F00
0F00
0F00
0F00
0F00
0F00
0F00
0F00
0F00
0F00
ENDCHAR
STARTCHAR 0408
ENCODING 1032
SWIDTH 504 0
DWIDTH 21 0
BBX 17 30 1 -1
BITMAP
000780
000780
000780
000780
000780
000780
000780
000780
000780
000780
000780
000780
000780
000780
000780
000780
000780
000780
000780
000780
000780
700780
F00780
F00700
F00F00
780F00
7C3F00
3FFE00
3FFC00
0FF800
ENDCHAR
STARTCHAR 0409
ENCODING 1033
SWIDTH 1056 0
DWIDTH 44 0
BBX 43 30 0 -1
BITMAP
07FFFF000000
07FFFF000000
07FFFF000000
07FFFF000000
07800F000000
07800F000000
07800F000000
07800F000000
07800F000000
07800F000000
07800F000000
07800F000000
07800F000000
07800FFFF800
07800FFFFE00
07800FFFFF00
07800F00FF80
07800F000FC0
07800F0007C0
07800F0003C0
07800F0003E0
07800F0003E0
07800F0003C0
07800F0003C0
07800F0007C0
07800F0007C0
0F800F007F80
7F000FFFFF00
7F000FFFFE00
FE000FFFF800
ENDCHAR
STARTCHAR 040A
ENCODING 1034
SWIDTH 1008 0
DWIDTH 42 0
BBX 38 30 3 0
BITMAP
F001E00000
F001E00000
F001E00000
F001E00000
F001E00000
F001E00000
F001E00000
F001E00000
F001E00000
F001E00000
F001E00000
F001E00000
F001E00000
FFFFFFFF00
FFFFFFFFC0
FFFFFFFFE0
F001E03FF0
F001E000F8
F001E000F8
F001E00078
F001E0007C
F001E0007C
F001E00078
F001E00078
F001E00078
F001E000F8
F001E00FF0
F001FFFFE0
F001FFFFC0
F001FFFF00
ENDCHAR
STARTCHAR 040B
ENCODING 1035
SWIDTH 864 0
DWIDTH 36 0
BBX 33 30 1 0
BITMAP
FFFFFF0000
FFFFFF0000
FFFFFF0000
FFFFFF0000
003C000000
003C000000
003C000000
003C000000
003C000000
003C000000
003C000000
003C1FE000
003DFFF800
003FFFFC00
003FF8FE00
003F001F00
003C000F00
003C000F00
003C000F00
003C000780
003C000780
003C000780
003C000780
003C000780
003C000780
003C000780
003C000780
003C000780
003C000780
003C000780
ENDCHAR
STARTCHAR 040C
ENCODING 1036
SWIDTH 576 0
DWIDTH 24 0
BBX 21 37 3 0
BITMAP
003E00
003C00
007800
007000
00E000
000000
000000
F000F8
F003F8
F007F8
F007F8
F00F00
F00F00
F01E00
F01E00
F03C00
F03C00
F07800
F07800
F0F000
FFE000
FFC000
FFE000
F3F000
F0F800
F07C00
F03E00
F03E00
F01F00
F00F80
F00F80
F007C0
F007C0
F003E0
F001F0
F001F0
F000F8
ENDCHAR
STARTCHAR 040D
ENCODING 1037
SWIDTH 720 0
DWIDTH 30 0
BBX 24 37 3 0
BITMAP
01E000
00F000
00F000
007800
003800
000000
000000
F0000F
F0001F
F0003F
F0007F
F0007F
F000FF
F001FF
F001EF
F003EF
F007CF
F0078F
F00F8F
F01F0F
F01E0F
F03E0F
F07C0F
F0780F
F0F80F
F1F00F
F1E00F
F3E00F
F7C00F
F7800F
FF800F
FF000F
FE000F
FE000F
FC000F
F8000F
F8000F
ENDCHAR
STARTCHAR 040E
ENCODING 1038
SWIDTH 624 0
DWIDTH 26 0
BBX 26 37 0 0
BITMAP
00E03000
00E07000
0078E000
003FE000
001FC000
00000000
00000000
F00003C0
780003C0
78000780
3C000780
1E000F00
1E000F00
0F001E00
0F001E00
07801C00
07803C00
03C03800
03C07800
01E07000
00E0F000
00F0E000
0071E000
0079C000
003BC000
003FC000
001F8000
001F8000
000F0000
000F0000
000E0000
001E0000
001C0000
083C0000
0FF80000
0FF00000
0FE00000
ENDCHAR
STARTCHAR 040F
ENCODING 1039
SWIDTH 720 0
DWIDTH 30 0
BBX 24 38 3 -8
BITMAP
F0000F
F0000F
F0000F
F0000F
F0000F
F0000F
F0000F
F0000F
F0000F
F0000F
F0000F
F0000F
F0000F
F0000F
F0000F
F0000F
F0000F
F0000F
F0000F
F0000F
F0000F
F0000F
F0000F
F0000F
F0000F
F0000F
FFFFFF
FFFFFF
FFFFFF
FFFFFF
003C00
003C00
003C00
003C00
003C00
003C00
003C00
003C00
ENDCHAR
STARTCHAR 0410
ENCODING 1040
SWIDTH 672 0
DWIDTH 28 0
BBX 28 30 0 0
BITMAP
001F0000
001F0000
003F8000
003F8000
003B8000
007BC000
007BC000
0071E000
00F1E000
00F0E000
01E0F000
01E0F000
01E07800
03C07800
03C07C00
03803C00
07803C00
07801E00
0FFFFE00
0FFFFF00
0FFFFF00
1E000F00
1E000F80
3C000780
3C0007C0
3C0003C0
780003C0
780003E0
780001E0
F00001F0
ENDCHAR
STARTCHAR 0411
ENCODING 1041
SWIDTH 648 0
DWIDTH 27 0
BBX 23 30 3 0
BITMAP
FFFFF0
FFFFF0
FFFFF0
FFFFF0
F00000
F00000
F00000
F00000
F00000
F00000
F00000
F00000
F00000
FFFF80
FFFFF0
FFFFF8
F00FFC
F0007C
F0003E
F0003E
F0001E
F0001E
F0001E
F0003E
F0003C
F0007C
F003F8
FFFFF0
FFFFE0
FFFF80
ENDCHAR
STARTCHAR 0412
ENCODING 1042
SWIDTH 672 0
DWIDTH 28 0
BBX 23 30 3 0
BITMAP
FFFE00
FFFFC0
FFFFE0
FFFFF0
F001F0
F000F8
F00078
F00078
F00078
F00078
F00078
F000F0
F007E0
FFFFC0
FFFFC0
FFFFF0
F007F8
F0007C
F0003C
F0003C
F0003E
F0003E
F0003E
F0003C
F0003C
F000FC
FFFFF8
FFFFF0
FFFFE0
FFFF00
ENDCHAR
STARTCHAR 0413
ENCODING 1043
SWIDTH 552 0
DWIDTH 23 0
BBX 20 30 3 0
BITMAP
FFFFF0
FFFFF0
FFFFF0
FFFFF0
F00000
F00000
F00000
F00000
F00000
F00000
F00000
F00000
F00000
F00000
F00000
F00000
F00000
F00000
F00000
F00000
F00000
F00000
F00000
F00000
F00000
F00000
F00000
F00000
F00000
F00000
ENDCHAR
STARTCHAR 0414
ENCODING 1044
SWIDTH 672 0
DWIDTH 28 0
BBX 27 37 0 -7
BITMAP
03FFFF00
03FFFF00
03FFFF00
03FFFF00
03C00F00
03C00F00
03C00F00
03C00F00
03C00F00
03C00F00
03C00F00
03800F00
03800F00
03800F00
03800F00
07800F00
07800F00
07800F00
07800F00
07800F00
07000F00
0F000F00
0F000F00
0F000F00
1E000F00
1E000F00
FFFFFFE0
FFFFFFE0
FFFFFFE0
FFFFFFE0
F00001E0
F00001E0
F00001E0
F00001E0
F00001E0
F00001E0
F00001E0
ENDCHAR
STARTCHAR 0415
ENCODING 1045
SWIDTH 672 0
DWIDTH 28 0
BBX 23 30 3 0
BITMAP
FFFFFC
FFFFFC
FFFFFC
FFFFFC
F00000
F00000
F00000
F00000
F00000
F00000
F00000
F00000
F00000
FFFFF8
FFFFF8
FFFFF8
F00000
F00000
F00000
F00000
F00000
F00000
F00000
F00000
F00000
F00000
FFFFFE
FFFFFE
FFFFFE
FFFFFE
ENDCHAR
STARTCHAR 0416
ENCODING 1046
SWIDTH 912 0
DWIDTH 38 0
BBX 38 30 0 0
BITMAP
F80078003C
FE007800FC
FF007801FC
FF807803FC
07807807C0
03C0780780
03C0780F00
01E0780F00
01E0781E00
01F0781E00
00F0783E00
00F8783C00
007C787C00
003FFFF800
001FFFE000
003FFFF000
007E78F800
00F8787C00
01F0783E00
01F0781F00
03E0780F00
07C0780F80
07C07807C0
0F807807C0
0F007803E0
1F007801F0
3E007801F0
3E007800F8
7C007800F8
F80078007C
ENDCHAR
STARTCHAR 0417
ENCODING 1047
SWIDTH 600 0
DWIDTH 25 0
BBX 21 31 2 -1
BITMAP
03FE00
0FFF80
1FFFC0
3F07E0
3C01E0
7801F0
7800F0
F000F0
F000F0
3000F0
0001F0
0003E0
0007C0
00FF80
00FF80
00FFE0
000FF0
0001F0
0000F8
000078
000078
F00078
F00078
F80078
7800F8
7C00F0
3F03F0
1FFFE0
0FFFC0
03FF00
002000
ENDCHAR
STARTCHAR 0418
ENCODING 1048
SWIDTH 720 0
DWIDTH 30 0
BBX 24 30 3 0
BITMAP
F0000F
F0001F
F0003F
F0007F
F0007F
F000FF
F001FF
F001EF
F003EF
F007CF
F0078F
F00F8F
F01F0F
F01E0F
F03E0F
F07C0F
F0780F
F0F80F
F1F00F
F1E00F
F3E00F
F7C00F
F7800F
FF800F
FF000F
FE000F
FE000F
FC000F
F8000F
F8000F
ENDCHAR
STARTCHAR 0419
ENCODING 1049
SWIDTH 720 0
DWIDTH 30 0
BBX 24 37 3 0
BITMAP
0301C0
038180
03C780
01FF00
00FE00
000000
000000
F0000F
F0001F
F0003F
F0007F
F0007F
F000FF
F001FF
F001EF
F003EF
F007CF
F0078F
F00F8F
F01F0F
F01E0F
F03E0F
F07C0F
F0780F
F0F80F
F1F00F
F1E00F
F3E00F
F7C00F
F7800F
FF800F
FF000F
FE000F
FE000F
FC000F
F8000F
F8000F
ENDCHAR
STARTCHAR 041A
ENCODING 1050
SWIDTH 576 0
DWIDTH 24 0
BBX 21 30 3 0
BITMAP
F000F8
F003F8
F007F8
F007F8
F00F00
F00F00
F01E00
F01E00
F03C00
F03C00
F07800
F07800
F0F000
FFE000
FFC000
FFE000
F3F000
F0F800
F07C00
F03E00
F03E00
F01F00
F00F80
F00F80
F007C0
F007C0
F003E0
F001F0
F001F0
F000F8
ENDCHAR
STARTCHAR 041B
ENCODING 1051
SWIDTH 648 0
DWIDTH 27 0
BBX 24 31 0 -1
BITMAP
07FFFF
07FFFF
07FFFF
07FFFF
07800F
07800F
07800F
07800F
07800F
07800F
07800F
07800F
07800F
07800F
07800F
07800F
07800F
07800F
07800F
07800F
07800F
07800F
07800F
07800F
07800F
07800F
0F800F
7F000F
7F000F
FE000F
100000
ENDCHAR
STARTCHAR 041C
ENCODING 1052
SWIDTH 840 0
DWIDTH 35 0
BBX 29 30 3 0
BITMAP
FC0001F8
FC0001F8
FE0003F8
FE0003F8
FE0003F8
FF0007F8
F7000778
F7000778
F7800F78
F3800E78
F3C00E78
F3C01E78
F1C01C78
F1E01C78
F1E03878
F0E03878
F0F03878
F0F07078
F0707078
F0787078
F078E078
F038E078
F03CE078
F03DC078
F01DC078
F01DC078
F01F8078
F00F8078
F00F8078
F00F0078
ENDCHAR
STARTCHAR 041D
ENCODING 1053
SWIDTH 720 0
DWIDTH 30 0
BBX 24 30 3 0
BITMAP
F0000F
F0000F
F0000F
F0000F
F0000F
F0000F
F0000F
F0000F
F0000F
F0000F
F0000F
F0000F
FFFFFF
FFFFFF
FFFFFF
FFFFFF
F0000F
F0000F
F0000F
F0000F
F0000F
F0000F
F0000F
F0000F
F0000F
F0000F
F0000F
F0000F
F0000F
F0000F
ENDCHAR
STARTCHAR 041E
ENCODING 1054
SWIDTH 768 0
DWIDTH 32 0
BBX 29 30 2 -1
BITMAP
007FE000
01FFFC00
03FFFE00
0FE07F00
1F800F80
1F0007C0
3E0003E0
3C0001E0
780001E0
780000F0
780000F0
F00000F0
F00000F0
F00000F8
F00000F8
F00000F8
F00000F8
F00000F0
F00000F0
F80000F0
780000F0
780001E0
3C0001E0
3E0003E0
1F0007C0
1F800F80
0FE03F00
07FFFE00
01FFFC00
007FF000
ENDCHAR
STARTCHAR 041F
ENCODING 1055
SWIDTH 720 0
DWIDTH 30 0
BBX 24 30 3 0
BITMAP
FFFFFF
FFFFFF
FFFFFF
FFFFFF
F0000F
F0000F
F0000F
F0000F
F0000F
F0000F
F0000F
F0000F
F0000F
F0000F
F0000F
F0000F
F0000F
F0000F
F0000F
F0000F
F0000F
F0000F
F0000F
F0000F
F0000F
F0000F
F0000F
F0000F
F0000F
F0000F
ENDCHAR
STARTCHAR 0420
ENCODING 1056
SWIDTH 672 0
DWIDTH 28 0
BBX 23 30 3 0
BITMAP
FFFF00
FFFFE0
FFFFF8
FFFFF8
F0007C
F0003C
F0003E
F0001E
F0001E
F0001E
F0001E
F0003E
F0003C
F0007C
FFFFF8
FFFFF0
FFFFE0
FFFF00
F00000
F00000
F00000
F00000
F00000
F00000
F00000
F00000
F00000
F00000
F00000
F00000
ENDCHAR
STARTCHAR 0421
ENCODING 1057
SWIDTH 720 0
DWIDTH 30 0
BBX 26 30 2 -1
BITMAP
007FE000
01FFF800
07FFFC00
0FE07E00
1F801F00
1E000F80
3C000780
3C0007C0
78000380
78000000
78000000
F0000000
F0000000
F0000000
F0000000
F0000000
F0000000
F0000000
F0000000
78000000
780003C0
780003C0
3C0003C0
3C000780
3E000F80
1F001F00
0FC07E00
07FFFE00
03FFF800
00FFE000
ENDCHAR
STARTCHAR 0422
ENCODING 1058
SWIDTH 600 0
DWIDTH 25 0
BBX 24 30 1 0
BITMAP
FFFFFF
FFFFFF
FFFFFF
FFFFFF
003C00
003C00
003C00
003C00
003C00
003C00
003C00
003C00
003C00
003C00
003C00
003C00
003C00
003C00
003C00
003C00
003C00
003C00
003C00
003C00
003C00
003C00
003C00
003C00
003C00
003C00
ENDCHAR
STARTCHAR 0423
ENCODING 1059
SWIDTH 624 0
DWIDTH 26 0
BBX 26 30 0 0
BITMAP
F00003C0
780003C0
78000780
3C000780
1E000F00
1E000F00
0F001E00
0F001E00
07801C00
07803C00
03C03800
03C07800
01E07000
00E0F000
00F0E000
0071E000
0079C000
003BC000
003FC000
001F8000
001F8000
000F0000
000F0000
000E0000
001E0000
001C0000
083C0000
0FF80000
0FF00000
0FE00000
ENDCHAR
STARTCHAR 0424
ENCODING 1060
SWIDTH 768 0
DWIDTH 32 0
BBX 28 30 2 0
BITMAP
000F0000
000F0000
000F0000
000F0000
00FFF000
07FFFE00
0FFFFF00
1FCF3F80
3E0F07C0
7C0F03E0
780F01E0
F00F01F0
F00F00F0
F00F00F0
F00F00F0
F00F00F0
F00F00F0
F00F00F0
F80F01E0
780F01E0
7C0F03E0
3E0F0FC0
1FCF3F80
0FFFFF00
07FFFC00
00FFF000
000F0000
000F0000
000F0000
000F0000
ENDCHAR
STARTCHAR 0425
ENCODING 1061
SWIDTH 672 0
DWIDTH 28 0
BBX 26 30 1 0
BITMAP
78000780
7C000F80
3E000F00
1F001E00
0F003C00
0F807C00
07C07800
03C0F000
03E1F000
01F3E000
00FBC000
007F8000
007F8000
003F0000
001E0000
003F0000
007F8000
00FFC000
00F3C000
01E3E000
03E1F000
07C0F000
0780F800
0F807C00
1F003E00
1E003E00
3C001F00
7C000F80
F8000780
F00007C0
ENDCHAR
STARTCHAR 0426
ENCODING 1062
SWIDTH 744 0
DWIDTH 31 0
BBX 26 38 3 -8
BITMAP
F0000F00
F0000F00
F0000F00
F0000F00
F0000F00
F0000F00
F0000F00
F0000F00
F0000F00
F0000F00
F0000F00
F0000F00
F0000F00
F0000F00
F0000F00
F0000F00
F0000F00
F0000F00
F0000F00
F0000F00
F0000F00
F0000F00
F0000F00
F0000F00
F0000F00
F0000F00
FFFFFFC0
FFFFFFC0
FFFFFFC0
FFFFFFC0
000001C0
000001C0
000001C0
000001C0
000001C0
000001C0
000001C0
000001C0
ENDCHAR
STARTCHAR 0427
ENCODING 1063
SWIDTH 672 0
DWIDTH 28 0
BBX 23 30 2 0
BITMAP
F0001E
F0001E
F0001E
F0001E
F0001E
F0001E
F0001E
F0001E
F0001E
F0001E
F0001E
F0001E
F0001E
F8001E
F8001E
7C00FE
7FFFFE
3FFFFE
0FFF9E
03F81E
00001E
00001E
00001E
00001E
00001E
00001E
00001E
00001E
00001E
00001E
ENDCHAR
STARTCHAR 0428
ENCODING 1064
SWIDTH 912 0
DWIDTH 38 0
BBX 32 30 3 0
BITMAP
F003C00F
F003C00F
F003C00F
F003C00F
F003C00F
F003C00F
F003C00F
F003C00F
F003C00F
F003C00F
F003C00F
F003C00F
F003C00F
F003C00F
F003C00F
F003C00F
F003C00F
F003C00F
F003C00F
F003C00F
F003C00F
F003C00F
F003C00F
F003C00F
F003C00F
F003C00F
FFFFFFFF
FFFFFFFF
FFFFFFFF
FFFFFFFF
ENDCHAR
STARTCHAR 0429
ENCODING 1065
SWIDTH 936 0
DWIDTH 39 0
BBX 35 38 3 -8
BITMAP
F003C00F00
F003C00F00
F003C00F00
F003C00F00
F003C00F00
F003C00F00
F003C00F00
F003C00F00
F003C00F00
F003C00F00
F003C00F00
F003C00F00
F003C00F00
F003C00F00
F003C00F00
F003C00F00
F003C00F00
F003C00F00
F003C00F00
F003C00F00
F003C00F00
F003C00F00
F003C00F00
F003C00F00
F003C00F00
F003C00F00
FFFFFFFFE0
FFFFFFFFE0
FFFFFFFFE0
FFFFFFFFE0
00000001E0
00000001E0
00000001E0
00000001E0
00000001E0
00000001E0
00000001E0
00000001E0
ENDCHAR
STARTCHAR 042A
ENCODING 1066
SWIDTH 792 0
DWIDTH 33 0
BBX 32 30 0 0
BITMAP
FFF80000
FFF80000
FFF80000
FFF80000
00780000
00780000
00780000
00780000
00780000
00780000
00780000
00780000
00780000
007FFFC0
007FFFF0
007FFFF8
007807FC
0078007E
0078003E
0078001E
0078001F
0078001F
0078001F
0078001E
0078001E
0078007E
007803FC
007FFFF8
007FFFF0
007FFF80
ENDCHAR
STARTCHAR 042B
ENCODING 1067
SWIDTH 888 0
DWIDTH 37 0
BBX 30 30 3 0
BITMAP
F000003C
F000003C
F000003C
F000003C
F000003C
F000003C
F000003C
F000003C
F000003C
F000003C
F000003C
F000003C
F000003C
FFFF803C
FFFFF03C
FFFFF83C
F007FC3C
F0007C3C
F0003C3C
F0003E3C
F0001E3C
F0001E3C
F0001E3C
F0003E3C
F0003C3C
F0007C3C
F007F83C
FFFFF03C
FFFFE03C
FFFF003C
ENDCHAR
STARTCHAR 042C
ENCODING 1068
SWIDTH 648 0
DWIDTH 27 0
BBX 23 30 3 0
BITMAP
F00000
F00000
F00000
F00000
F00000
F00000
F00000
F00000
F00000
F00000
F00000
F00000
F00000
FFFF80
FFFFE0
FFFFF8
F00FF8
F0007C
F0003C
F0003E
F0001E
F0001E
F0001E
F0003E
F0003C
F0007C
F007F8
FFFFF0
FFFFE0
FFFF00
ENDCHAR
STARTCHAR 042D
ENCODING 1069
SWIDTH 720 0
DWIDTH 30 0
BBX 26 30 2 -1
BITMAP
01FF8000
07FFE000
1FFFF000
3F81FC00
3E007C00
7C003E00
78001F00
F0000F00
F0000780
00000780
00000780
00000780
000007C0
001FFFC0
001FFFC0
001FFFC0
000003C0
000003C0
000007C0
00000780
F0000780
F0000780
F0000F80
78001F00
7C001F00
3E003E00
3F00FC00
1FFFF800
07FFF000
03FFC000
ENDCHAR
STARTCHAR 042E
ENCODING 1070
SWIDTH 1008 0
DWIDTH 42 0
BBX 37 31 3 -1
BITMAP
F0001FF000
F0007FFE00
F001FFFF00
F003F01F80
F007C007C0
F0078003E0
F00F0001E0
F01F0001F0
F01E0000F0
F01E0000F0
F03E0000F8
F03C000078
F03C000078
F03C000078
FFFC000078
FFFC000078
FFFC000078
F03C000078
F03C000078
F03C000078
F01E0000F0
F01E0000F0
F01F0001F0
F00F0001E0
F00F8003E0
F007C007C0
F003F01F80
F001FFFF00
F000FFFE00
F0003FF800
0000010000
ENDCHAR
STARTCHAR 042F
ENCODING 1071
SWIDTH 720 0
DWIDTH 30 0
BBX 26 30 1 0
BITMAP
00FFFFC0
07FFFFC0
0FFFFFC0
1FF003C0
1F0003C0
3E0003C0
3C0003C0
3C0003C0
3C0003C0
3C0003C0
3E0003C0
1E0003C0
1F0003C0
0FFFFFC0
07FFFFC0
01FFFFC0
003FFFC0
007C03C0
01F003C0
03E003C0
03E003C0
07C003C0
0F8003C0
0F8003C0
1F0003C0
3E0003C0
3E0003C0
7C0003C0
F80003C0
F80003C0
ENDCHAR
STARTCHAR 0430
ENCODING 1072
SWIDTH 552 0
DWIDTH 23 0
BBX 19 22 2 0
BITMAP
03FC00
1FFF00
3FFF80
7C0FC0
7803C0
F003C0
F001C0
0001C0
0003C0
00FFC0
0FFFC0
3FFDC0
7F81C0
F801C0
F003C0
E003C0
E003C0
F007C0
F00FC0
FE7FE0
7FF9E0
3FF1E0
ENDCHAR
STARTCHAR 0431
ENCODING 1073
SWIDTH 576 0
DWIDTH 24 0
BBX 20 31 2 0
BITMAP
000070
00FFF0
07FFE0
1FFFE0
3FFF80
3E0000
780000
700000
700000
E07000
E3FE00
E7FF80
EFDFC0
FE03C0
FC01E0
F801E0
F800F0
F000F0
F000F0
F000F0
F000F0
F000F0
F000F0
F000F0
7800F0
7801E0
3C01E0
3E03C0
1FDF80
0FFF00
07FE00
ENDCHAR
STARTCHAR 0432
ENCODING 1074
SWIDTH 528 0
DWIDTH 22 0
BBX 18 22 3 0
BITMAP
FFE000
FFFC00
FFFE00
E07F00
E00F00
E00780
E00780
E00700
E00F00
FFFE00
FFFC00
FFFE00
E0FF00
E00780
E00780
E003C0
E00380
E00780
E00F80
FFFF00
FFFE00
FFF800
ENDCHAR
STARTCHAR 0433
ENCODING 1075
SWIDTH 360 0
DWIDTH 15 0
BBX 12 22 3 0
BITMAP
FFF0
FFF0
FFF0
E000
E000
E000
E000
E000
E000
E000
E000
E000
E000
E000
E000
E000
E000
E000
E000
E000
E000
E000
ENDCHAR
STARTCHAR 0434
ENCODING 1076
SWIDTH 576 0
DWIDTH 24 0
BBX 23 28 0 -6
BITMAP
03FFF8
03FFF8
03FFF8
038078
038078
038078
078078
070078
070078
070078
070078
070078
070078
0E0078
0E0078
0E0078
1E0078
1C0078
3C0078
FFFFFE
FFFFFE
FFFFFE
E0000E
E0000E
E0000E
E0000E
E0000E
E0000E
ENDCHAR
STARTCHAR 0435
ENCODING 1077
SWIDTH 552 0
DWIDTH 23 0
BBX 19 22 2 0
BITMAP
03F800
0FFE00
1FFF00
3E0F80
7C03C0
7801C0
F001E0
F001E0
F000E0
FFFFE0
FFFFE0
FFFFE0
E00000
F00000
F00000
F001E0
F801E0
7803E0
7C07C0
3FFF80
1FFF00
07FE00
ENDCHAR
STARTCHAR 0436
ENCODING 1078
SWIDTH 672 0
DWIDTH 28 0
BBX 28 22 0 0
BITMAP
600F0060
7C0F03E0
7C0F03E0
3E0F07C0
0E0F0700
070F0E00
070F0E00
078F1E00
038F1C00
03CF3800
00FFF000
01FFF800
03CF3C00
078F1E00
0F0F0E00
0F0F0F00
1E0F0780
1E0F0780
3C0F03C0
780F03E0
780F01E0
F00F00F0
ENDCHAR
STARTCHAR 0437
ENCODING 1079
SWIDTH 456 0
DWIDTH 19 0
BBX 17 22 1 0
BITMAP
07F000
1FFC00
3FFE00
3C1E00
780F00
780F00
000F00
000F00
001E00
01FE00
01F800
01FE00
001F00
000F00
000780
300780
F00780
F80700
7C0F00
7F7F00
3FFE00
0FF800
ENDCHAR
STARTCHAR 0438
ENCODING 1080
SWIDTH 552 0
DWIDTH 23 0
BBX 18 22 3 0
BITMAP
E007C0
E007C0
E00FC0
E00FC0
E01FC0
E03FC0
E03BC0
E07BC0
E073C0
E0E3C0
E1E3C0
E1C3C0
E3C3C0
E783C0
E703C0
EF03C0
EE03C0
FC03C0
FC03C0
F803C0
F803C0
F003C0
ENDCHAR
STARTCHAR 0439
ENCODING 1081
SWIDTH 552 0
DWIDTH 23 0
BBX 18 30 3 0
BITMAP
1C0E00
1C0E00
0E1C00
0FFC00
07F800
000000
000000
000000
E007C0
E007C0
E00FC0
E00FC0
E01FC0
E03FC0
E03BC0
E07BC0
E073C0
E0E3C0
E1E3C0
E1C3C0
E3C3C0
E783C0
E703C0
EF03C0
EE03C0
FC03C0
FC03C0
F803C0
F803C0
F003C0
ENDCHAR
STARTCHAR 043A
ENCODING 1082
SWIDTH 432 0
DWIDTH 18 0
BBX 15 22 3 0
BITMAP
E006
E03E
E07E
E078
E0E0
E0E0
E1E0
E1C0
E3C0
E780
FF00
FF00
E7C0
E3C0
E1E0
E0F0
E0F0
E078
E078
E03C
E01E
E01E
ENDCHAR
STARTCHAR 043B
ENCODING 1083
SWIDTH 576 0
DWIDTH 24 0
BBX 22 22 0 0
BITMAP
07FFFC
07FFFC
07FFFC
07003C
07003C
07003C
07003C
07003C
07003C
07003C
07003C
07003C
07003C
07003C
07003C
07003C
07003C
0F003C
0F003C
FF003C
FE003C
FC003C
ENDCHAR
STARTCHAR 043C
ENCODING 1084
SWIDTH 696 0
DWIDTH 29 0
BBX 23 22 3 0
BITMAP
FC007E
FC007E
FC007E
FE00FE
EE00FE
EE00FE
EF01DE
E701DE
E701DE
E7839E
E3839E
E3879E
E3C71E
E1C71E
E1CF1E
E1EE1E
E0EE1E
E0FC1E
E0FC1E
E07C1E
E0781E
E0781E
ENDCHAR
STARTCHAR 043D
ENCODING 1085
SWIDTH 552 0
DWIDTH 23 0
BBX 17 22 3 0
BITMAP
E00380
E00380
E00380
E00380
E00380
E00380
E00380
E00380
E00380
FFFF80
FFFF80
FFFF80
E00380
E00380
E00380
E00380
E00380
E00380
E00380
E00380
E00380
E00380
ENDCHAR
STARTCHAR 043E
ENCODING 1086
SWIDTH 552 0
DWIDTH 23 0
BBX 21 22 1 0
BITMAP
01FC00
07FF00
0FFFC0
1F07C0
3C01E0
7C01F0
7800F0
7800F0
700070
F00078
F00078
F00078
F00078
700078
780070
7800F0
7800F0
3C01E0
3E03E0
1FFFC0
0FFF80
03FE00
ENDCHAR
STARTCHAR 043F
ENCODING 1087
SWIDTH 552 0
DWIDTH 23 0
BBX 17 22 3 0
BITMAP
FFFF80
FFFF80
FFFF80
E00780
E00780
E00780
E00780
E00780
E00780
E00780
E00780
E00780
E00780
E00780
E00780
E00780
E00780
E00780
E00780
E00780
E00780
E00780
ENDCHAR
STARTCHAR 0440
ENCODING 1088
SWIDTH 552 0
DWIDTH 23 0
BBX 19 30 3 -8
BITMAP
E3F800
E7FE00
EFFF00
FC0F00
F80780
F003C0
F003C0
F003C0
E001C0
E001C0
E001E0
E001E0
E001C0
E001C0
E003C0
F003C0
F003C0
F80780
FC0F00
FFFF00
EFFE00
E7F800
E00000
E00000
E00000
E00000
E00000
E00000
E00000
E00000
ENDCHAR
STARTCHAR 0441
ENCODING 1089
SWIDTH 504 0
DWIDTH 21 0
BBX 18 22 2 0
BITMAP
03F800
0FFE00
1FFF00
3E0F80
780780
7803C0
F003C0
F00000
F00000
E00000
E00000
E00000
E00000
F00000
F001C0
F001C0
F003C0
7803C0
7C0780
3FFF00
1FFE00
07FC00
ENDCHAR
STARTCHAR 0442
ENCODING 1090
SWIDTH 456 0
DWIDTH 19 0
BBX 17 22 1 0
BITMAP
FFFF80
FFFF80
FFFF80
01C000
01C000
01C000
01C000
01C000
01C000
01C000
01C000
01C000
01C000
01C000
01C000
01C000
01C000
01C000
01C000
01C000
01C000
01C000
ENDCHAR
STARTCHAR 0443
ENCODING 1091
SWIDTH 504 0
DWIDTH 21 0
BBX 19 31 1 -9
BITMAP
F000E0
F001E0
F001E0
7801C0
7803C0
3803C0
3C0380
3C0780
1E0700
1E0F00
1E0F00
0F0E00
0F1E00
071E00
079C00
07BC00
03B800
03F800
01F800
01F000
01F000
00F000
00E000
01E000
01C000
01C000
03C000
7F8000
7F0000
7F0000
3C0000
ENDCHAR
STARTCHAR 0444
ENCODING 1092
SWIDTH 816 0
DWIDTH 34 0
BBX 31 38 2 -8
BITMAP
00078000
00078000
00078000
00078000
00078000
00078000
00078000
00078000
07E78F80
1FF7BFE0
3FFFFFF0
3C1FF0F8
780FE078
700FC03C
F007C03C
F007801C
E007801E
E007801E
E007801E
E007801E
E007801E
E007801E
F007801C
F007801C
F007C03C
780FC07C
7C1FE078
3FFFFFF0
1FFFFFE0
0FF79FC0
00078000
00078000
00078000
00078000
00078000
00078000
00078000
00078000
ENDCHAR
STARTCHAR 0445
ENCODING 1093
SWIDTH 504 0
DWIDTH 21 0
BBX 19 22 1 0
BITMAP
F803E0
7803C0
7C0780
3E0F80
1E0F00
1F1E00
0F3C00
07BC00
03F800
03F000
01F000
01F000
03F800
07FC00
07BC00
0F1E00
1E1F00
3E0F00
3C0780
7807C0
F803C0
F001E0
ENDCHAR
STARTCHAR 0446
ENCODING 1094
SWIDTH 576 0
DWIDTH 24 0
BBX 20 28 3 -6
BITMAP
E00380
E00380
E00380
E00380
E00380
E00380
E00380
E00380
E00380
E00380
E00380
E00380
E00380
E00380
E00380
E00380
E00380
E00380
E00380
FFFFF0
FFFFF0
FFFFF0
000070
000070
000070
000070
000070
000070
ENDCHAR
STARTCHAR 0447
ENCODING 1095
SWIDTH 528 0
DWIDTH 22 0
BBX 18 22 1 0
BITMAP
F003C0
F003C0
F003C0
F003C0
F003C0
F003C0
F003C0
F003C0
7003C0
7803C0
7C07C0
3FFFC0
1FFFC0
0FFFC0
0003C0
0003C0
0003C0
0003C0
0003C0
0003C0
0003C0
0003C0
ENDCHAR
STARTCHAR 0448
ENCODING 1096
SWIDTH 792 0
DWIDTH 33 0
BBX 28 22 3 0
BITMAP
F00F00F0
F00F00F0
F00F00F0
F00F00F0
F00F00F0
F00F00F0
F00F00F0
F00F00F0
F00F00F0
F00F00F0
F00F00F0
F00F00F0
F00F00F0
F00F00F0
F00F00F0
F00F00F0
F00F00F0
F00F00F0
F00F00F0
FFFFFFF0
FFFFFFF0
FFFFFFF0
ENDCHAR
STARTCHAR 0449
ENCODING 1097
SWIDTH 816 0
DWIDTH 34 0
BBX 30 28 3 -6
BITMAP
F00F00F0
F00F00F0
F00F00F0
F00F00F0
F00F00F0
F00F00F0
F00F00F0
F00F00F0
F00F00F0
F00F00F0
F00F00F0
F00F00F0
F00F00F0
F00F00F0
F00F00F0
F00F00F0
F00F00F0
F00F00F0
F00F00F0
FFFFFFFC
FFFFFFFC
FFFFFFFC
0000001C
0000001C
0000001C
0000001C
0000001C
0000001C
ENDCHAR
STARTCHAR 044A
ENCODING 1098
SWIDTH 624 0
DWIDTH 26 0
BBX 24 22 1 0
BITMAP
FF8000
FF8000
FF8000
038000
038000
038000
038000
038000
038000
03FFE0
03FFF8
03FFFC
03803E
03801E
03800F
03800F
03800F
03801E
03803E
03FFFC
03FFF8
03FFE0
ENDCHAR
STARTCHAR 044B
ENCODING 1099
SWIDTH 720 0
DWIDTH 30 0
BBX 24 22 3 0
BITMAP
E0000F
E0000F
E0000F
E0000F
E0000F
E0000F
E0000F
E0000F
E0000F
FFF80F
FFFE0F
FFFF0F
E00F8F
E0078F
E003CF
E003CF
E003CF
E0078F
E01F8F
FFFF0F
FFFE0F
FFF80F
ENDCHAR
STARTCHAR 044C
ENCODING 1100
SWIDTH 528 0
DWIDTH 22 0
BBX 17 22 3 0
BITMAP
E00000
E00000
E00000
E00000
E00000
E00000
E00000
E00000
E00000
FFF800
FFFE00
FFFF00
E00F80
E00780
E00380
E00380
E00380
E00780
E01F80
FFFF00
FFFE00
FFF800
ENDCHAR
STARTCHAR 044D
ENCODING 1101
SWIDTH 504 0
DWIDTH 21 0
BBX 19 23 1 -1
BITMAP
07F000
1FFC00
3FFF00
7C1F00
780780
7003C0
F003C0
0003C0
0001C0
01FFE0
01FFE0
01FFE0
0001E0
0001E0
F001C0
F003C0
F003C0
7807C0
7C0F80
3FFF00
1FFE00
07FC00
004000
ENDCHAR
STARTCHAR 044E
ENCODING 1102
SWIDTH 744 0
DWIDTH 31 0
BBX 27 22 3 0
BITMAP
E003F800
E00FFE00
E01FFF00
E03E0F80
E07C0780
E07803C0
E07003C0
E0F003C0
E0F001C0
FFF001E0
FFF001E0
FFF001E0
E0F001E0
E0F001C0
E0F001C0
E0F003C0
E07803C0
E0780780
E03C0F80
E03FFF00
E01FFE00
E007FC00
ENDCHAR
STARTCHAR 044F
ENCODING 1103
SWIDTH 552 0
DWIDTH 23 0
BBX 19 22 1 0
BITMAP
00FFE0
0FFFE0
1FFFE0
3F81E0
7C01E0
7801E0
7801E0
7801E0
7801E0
3C01E0
3FC1E0
1FFFE0
07FFE0
03FFE0
07C1E0
0F81E0
1F01E0
1E01E0
3E01E0
7C01E0
7801E0
F801E0
ENDCHAR
STARTCHAR 0451
ENCODING 1105
SWIDTH 552 0
DWIDTH 23 0
BBX 19 30 2 0
BITMAP
0F1E00
0F1E00
0F1E00
0F1E00
000000
000000
000000
000000
03F800
0FFE00
1FFF00
3E0F80
7C03C0
7801C0
F001E0
F001E0
F000E0
FFFFE0
FFFFE0
FFFFE0
E00000
F00000
F00000
F001E0
F801E0
7803E0
7C07C0
3FFF80
1FFF00
07FE00
ENDCHAR
STARTCHAR 0452
ENCODING 1106
SWIDTH 552 0
DWIDTH 23 0
BBX 20 39 0 -9
BITMAP
1C0000
1C0000
1C0000
FFF800
FFF800
1C0000
1C0000
1C0000
1C3F00
1CFFC0
1DFFE0
1FC3F0
1F00F0
1E00F0
1E0070
1E0070
1C0070
1C0070
1C0070
1C0070
1C0070
1C0070
1C0070
1C0070
1C0070
1C0070
1C0070
1C0070
1C0070
1C0070
000070
000070
000070
000070
0000F0
0005F0
000FE0
000FE0
000780
ENDCHAR
STARTCHAR 0453
ENCODING 1107
SWIDTH 360 0
DWIDTH 15 0
BBX 12 30 3 0
BITMAP
03E0
03C0
0780
0780
0700
0E00
0000
0000
FFF0
FFF0
FFF0
E000
E000
E000
E000
E000
E000
E000
E000
E000
E000
E000
E000
E000
E000
E000
E000
E000
E000
E000
ENDCHAR
STARTCHAR 0454
ENCODING 1108
SWIDTH 504 0
DWIDTH 21 0
BBX 18 22 2 -1
BITMAP
03F800
0FFE00
1FFF00
3E0F80
7C0780
7803C0
F003C0
F00000
F00000
FFE000
FFE000
FFE000
E00000
F00000
F001C0
F001C0
F803C0
7803C0
7C0780
3FFF00
1FFE00
0FFC00
ENDCHAR
STARTCHAR 0455
ENCODING 1109
SWIDTH 504 0
DWIDTH 21 0
BBX 18 22 1 0
BITMAP
07F800
1FFE00
3FFF00
3C0F80
780780
700380
780000
780000
7F0000
3FF000
1FFE00
07FF00
00FF80
000FC0
0003C0
7003C0
F003C0
7803C0
7C07C0
3FFF80
1FFF00
0FFC00
ENDCHAR
STARTCHAR 0456
ENCODING 1110
SWIDTH 216 0
DWIDTH 9 0
BBX 3 30 3 0
BITMAP
E0
E0
E0
E0
00
00
00
00
E0
E0
E0
E0
E0
E0
E0
E0
E0
E0
E0
E0
E0
E0
E0
E0
E0
E0
E0
E0
E0
E0
ENDCHAR
STARTCHAR 0457
ENCODING 1111
SWIDTH 288 0
DWIDTH 12 0
BBX 12 30 0 0
BITMAP
F0F0
F0F0
F0F0
F0F0
0000
0000
0000
0000
0F00
0F00
0F00
0F00
0F00
0F00
0F00
0F00
0F00
0F00
0F00
0F00
0F00
0F00
0F00
0F00
0F00
0F00
0F00
0F00
0F00
0F00
ENDCHAR
STARTCHAR 0458
ENCODING 1112
SWIDTH 216 0
DWIDTH 9 0
BBX 8 39 -2 -9
BITMAP
07
07
07
07
00
00
00
00
07
07
07
07
07
07
07
07
07
07
07
07
07
07
07
07
07
07
07
07
07
07
07
07
07
07
0F
5F
FE
FE
78
ENDCHAR
STARTCHAR 0459
ENCODING 1113
SWIDTH 912 0
DWIDTH 38 0
BBX 36 22 0 0
BITMAP
07FFFC0000
07FFFC0000
07FFFC0000
07001C0000
07001C0000
07001C0000
07001C0000
07001C0000
07001C0000
07001FFF00
07001FFFC0
07001FFFE0
07001C01F0
07001C00F0
07001C00F0
07001C0070
07001C00F0
07001C00F0
0F001C03F0
FF001FFFE0
FE001FFFC0
FC001FFF00
ENDCHAR
STARTCHAR 045A
ENCODING 1114
SWIDTH 816 0
DWIDTH 34 0
BBX 29 22 3 0
BITMAP
E00E0000
E00E0000
E00E0000
E00E0000
E00E0000
E00E0000
E00E0000
E00E0000
E00E0000
FFFFF800
FFFFFFC0
FFFFFFF0
E00E07F8
E00E0078
E00E0078
E00E0038
E00E0038
E00E0078
E00E00F8
E00FFFF0
E00FFFE0
E00FFF80
ENDCHAR
STARTCHAR 045B
ENCODING 1115
SWIDTH 552 0
DWIDTH 23 0
BBX 20 30 0 0
BITMAP
1C0000
1C0000
1C0000
FFF800
FFF800
1C0000
1C0000
1C0000
1C3F00
1CFFC0
1DFFE0
1FC3F0
1F00F0
1E00F0
1E0070
1E0070
1C0070
1C0070
1C0070
1C0070
1C0070
1C0070
1C0070
1C0070
1C0070
1C0070
1C0070
1C0070
1C0070
1C0070
ENDCHAR
STARTCHAR 045C
ENCODING 1116
SWIDTH 432 0
DWIDTH 18 0
BBX 15 30 3 0
BITMAP
03E0
03C0
0780
0780
0700
0E00
0000
0000
E006
E03E
E07E
E078
E0E0
E0E0
E1E0
E1C0
E3C0
E780
FF00
FF00
E7C0
E3C0
E1E0
E0F0
E0F0
E078
E078
E03C
E01E
E01E
ENDCHAR
STARTCHAR 045D
ENCODING 1117
SWIDTH 552 0
DWIDTH 23 0
BBX 18 30 3 0
BITMAP
1F0000
0F8000
078000
03C000
01C000
00E000
000000
000000
E007C0
E007C0
E00FC0
E00FC0
E01FC0
E03FC0
E03BC0
E07BC0
E073C0
E0E3C0
E1E3C0
E1C3C0
E3C3C0
E783C0
E703C0
EF03C0
EE03C0
FC03C0
FC03C0
F803C0
F803C0
F003C0
ENDCHAR
STARTCHAR 045E
ENCODING 1118
SWIDTH 504 0
DWIDTH 21 0
BBX 19 39 1 -9
BITMAP
0C0700
0E0600
0F0E00
07FC00
03F800
000000
000000
000000
F000E0
F001E0
F001E0
7801C0
7803C0
3803C0
3C0380
3C0780
1E0700
1E0F00
1E0F00
0F0E00
0F1E00
071E00
079C00
07BC00
03B800
03F800
01F800
01F000
01F000
00F000
00E000
01E000
01C000
01C000
03C000
7F8000
7F0000
7F0000
3C0000
ENDCHAR
STARTCHAR 045F
ENCODING 1119
SWIDTH 552 0
DWIDTH 23 0
BBX 17 28 3 -6
BITMAP
E00380
E00380
E00380
E00380
E00380
E00380
E00380
E00380
E00380
E00380
E00380
E00380
E00380
E00380
E00380
E00380
E00380
E00380
E00380
FFFF80
FFFF80
FFFF80
01C000
01C000
01C000
01C000
01C000
01C000
ENDCHAR
STARTCHAR 0490
ENCODING 1168
SWIDTH 480 0
DWIDTH 20 0
BBX 16 38 3 0
BITMAP
0007
0007
0007
0007
0007
0007
0007
0007
FFFF
FFFF
FFFF
FFFF
F000
F000
F000
F000
F000
F000
F000
F000
F000
F000
F000
F000
F000
F000
F000
F000
F000
F000
F000
F000
F000
F000
F000
F000
F000
F000
ENDCHAR
STARTCHAR 0491
ENCODING 1169
SWIDTH 408 0
DWIDTH 17 0
BBX 13 30 3 0
BITMAP
0038
0038
0038
0038
0038
0038
0038
0038
FFF8
FFF8
FFF8
E000
E000
E000
E000
E000
E000
E000
E000
E000
E000
E000
E000
E000
E000
E000
E000
E000
E000
E000
ENDCHAR
STARTCHAR 0492
ENCODING 1170
SWIDTH 552 0
DWIDTH 23 0
BBX 23 30 0 0
BITMAP
1FFFFE
1FFFFE
1FFFFE
1FFFFE
1E0000
1E0000
1E0000
1E0000
1E0000
1E0000
1E0000
1E0000
1E0000
1E0000
FFFE00
FFFE00
1E0000
1E0000
1E0000
1E0000
1E0000
1E0000
1E0000
1E0000
1E0000
1E0000
1E0000
1E0000
1E0000
1E0000
ENDCHAR
STARTCHAR 0493
ENCODING 1171
SWIDTH 360 0
DWIDTH 15 0
BBX 15 22 0 0
BITMAP
1FFE
1FFE
1FFE
1C00
1C00
1C00
1C00
1C00
1C00
FFE0
FFE0
FFE0
1C00
1C00
1C00
1C00
1C00
1C00
1C00
1C00
1C00
1C00
ENDCHAR
STARTCHAR 0496
ENCODING 1174
SWIDTH 912 0
DWIDTH 38 0
BBX 38 38 0 -8
BITMAP
F80078007C
FE007800FC
FF007801FC
FF807803FC
07807807C0
03C0780780
03C0780F00
01E0780F00
01E0781E00
01F0781E00
00F0781E00
00F8783C00
007C787800
003FFFF000
001FFFE000
003FFFF000
007E78F800
00F8787C00
01F0783E00
01F0781F00
03E0780F00
07C0780F80
07C07807C0
0F807807C0
0F007803E0
1F007801F0
3E007801FC
3E007800FC
7C007800FC
F80078007C
000000001C
000000001C
000000001C
000000001C
000000001C
000000001C
000000001C
000000001C
ENDCHAR
STARTCHAR 0497
ENCODING 1175
SWIDTH 672 0
DWIDTH 28 0
BBX 28 28 0 -6
BITMAP
600F0060
7C0F03E0
7C0F03E0
3E0F0780
0E0F0700
070F0E00
070F0E00
078F1E00
038F1C00
01EF7800
00FFF000
01FFF800
03CF3C00
078F1E00
0F0F0E00
0F0F0F00
1E0F0780
1E0F0780
3C0F03C0
780F03F0
780F01F0
F00F00F0
00000070
00000070
00000070
00000070
00000070
00000070
ENDCHAR
STARTCHAR 049A
ENCODING 1178
SWIDTH 576 0
DWIDTH 24 0
BBX 21 38 3 -8
BITMAP
F000F8
F003F8
F007F8
F007F8
F00F80
F00F00
F01E00
F01E00
F03C00
F03C00
F07800
F07800
F1F000
FFE000
FFC000
FFE000
F3F000
F0F800
F07C00
F03E00
F03E00
F01F00
F00F80
F00F80
F007C0
F007C0
F003F8
F001F8
F001F8
F000F8
000038
000038
000038
000038
000038
000038
000038
000038
ENDCHAR
STARTCHAR 049B
ENCODING 1179
SWIDTH 432 0
DWIDTH 18 0
BBX 15 28 3 -6
BITMAP
E006
E03E
E07E
E078
E0E0
E0E0
E1E0
E1C0
E3C0
E780
FF00
FF00
E7C0
E3C0
E1E0
E0F0
E0F0
E078
E078
E03E
E01E
E01E
000E
000E
000E
000E
000E
000E
ENDCHAR
STARTCHAR 049C
ENCODING 1180
SWIDTH 576 0
DWIDTH 24 0
BBX 21 30 3 0
BITMAP
F000F8
F003F8
F007F8
F007F8
F00F80
F18F00
F19E00
F19E00
F1BC00
F1BC00
F1F800
F1F800
F1F000
FFE000
FFC000
FFE000
F3F000
F1F800
F1FC00
F1BE00
F1BE00
F19F00
F18F80
F18F80
F187C0
F007C0
F003E0
F001F0
F001F0
F000F8
ENDCHAR
STARTCHAR 049D
ENCODING 1181
SWIDTH 432 0
DWIDTH 18 0
BBX 15 22 3 0
BITMAP
E006
E03E
E07E
E678
E6E0
E6E0
E7E0
E7C0
E7C0
E780
FF00
FF00
E7C0
E7C0
E7E0
E6F0
E6F0
E678
E678
E03C
E01E
E01E
ENDCHAR
STARTCHAR 04A2
ENCODING 1186
SWIDTH 720 0
DWIDTH 30 0
BBX 26 38 3 -8
BITMAP
F0000F00
F0000F00
F0000F00
F0000F00
F0000F00
F0000F00
F0000F00
F0000F00
F0000F00
F0000F00
F0000F00
F0000F00
FFFFFF00
FFFFFF00
FFFFFF00
FFFFFF00
F0000F00
F0000F00
F0000F00
F0000F00
F0000F00
F0000F00
F0000F00
F0000F00
F0000F00
F0000F00
F0000FC0
F0000FC0
F0000FC0
F0000FC0
000001C0
000001C0
000001C0
000001C0
000001C0
000001C0
000001C0
000001C0
ENDCHAR
STARTCHAR 04A3
ENCODING 1187
SWIDTH 552 0
DWIDTH 23 0
BBX 20 28 3 -6
BITMAP
E00380
E00380
E00380
E00380
E00380
E00380
E00380
E00380
E00380
FFFF80
FFFF80
FFFF80
E00380
E00380
E00380
E00380
E00380
E00380
E00380
E003F0
E003F0
E003F0
000070
000070
000070
000070
000070
000070
ENDCHAR
STARTCHAR 04AE
ENCODING 1198
SWIDTH 552 0
DWIDTH 23 0
BBX 23 30 0 0
BITMAP
F0001E
78003C
78007C
3C0078
3C00F8
1E00F0
0F01E0
0F01E0
0783C0
0783C0
03C780
03C780
01EF00
00EE00
00FE00
007C00
007C00
003800
003800
003800
003800
003800
003800
003800
003800
003800
003800
003800
003800
003800
ENDCHAR
STARTCHAR 04AF
ENCODING 1199
SWIDTH 504 0
DWIDTH 21 0
BBX 20 30 0 -8
BITMAP
F000F0
7800F0
7800F0
3801E0
3C01E0
3C01E0
1E03C0
1E03C0
1E0380
0F0780
0F0780
070F00
078F00
078E00
039E00
03DE00
01DC00
01DC00
01FC00
00F800
00F800
00F000
007000
007000
007000
007000
007000
007000
007000
007000
ENDCHAR
STARTCHAR 04B0
ENCODING 1200
SWIDTH 552 0
DWIDTH 23 0
BBX 23 30 0 0
BITMAP
F0001E
78003C
78007C
3C0078
3C00F8
1E00F0
0F01E0
0F01E0
0783C0
0783C0
03C780
03C780
01EF00
00EE00
00FE00
7FFFFC
7FFFFC
7FFFFC
003800
003800
003800
003800
003800
003800
003800
003800
003800
003800
003800
003800
ENDCHAR
STARTCHAR 04B1
ENCODING 1201
SWIDTH 504 0
DWIDTH 21 0
BBX 20 30 0 -8
BITMAP
F000F0
7800F0
7800F0
3801E0
3C01E0
3C01E0
1E03C0
1E03C0
1E0380
0F0780
0F0780
070F00
078F00
078E00
039E00
03DE00
01DC00
01DC00
01FC00
00F800
00F800
00F000
3FFFE0
3FFFE0
3FFFE0
007000
007000
007000
007000
007000
ENDCHAR
STARTCHAR 04B2
ENCODING 1202
SWIDTH 672 0
DWIDTH 28 0
BBX 27 38 1 -8
BITMAP
78000780
7C000F80
3E000F00
1F001E00
0F003C00
0F807C00
07C07800
03C0F000
03E1F000
01F3E000
00FBC000
007F8000
007F8000
003F0000
001E0000
003F0000
007F8000
00FFC000
00F3C000
01E3E000
03E1F000
07C0F000
0780F800
0F807C00
1F003E00
1E003E00
3C001FE0
7C000FE0
F80007E0
F00007E0
000001E0
000001E0
000001E0
000001E0
000001E0
000001E0
000001E0
000001E0
ENDCHAR
STARTCHAR 04B3
ENCODING 1203
SWIDTH 504 0
DWIDTH 21 0
BBX 20 28 1 -6
BITMAP
F803E0
7803C0
7C0780
3E0F80
1E0F00
1F1E00
0F3C00
07BC00
03F800
03F000
01F000
01F000
03F800
07FC00
07BC00
0F1E00
1E1F00
3E0F00
3C0780
7807F0
F803F0
F001F0
000070
000070
000070
000070
000070
000070
ENDCHAR
STARTCHAR 04B8
ENCODING 1208
SWIDTH 672 0
DWIDTH 28 0
BBX 23 30 2 0
BITMAP
F0001E
F0001E
F0001E
F0001E
F0001E
F0001E
F0001E
F0301E
F0301E
F0301E
F0301E
F0301E
F0301E
F8301E
F8301E
7C30FE
7FFFFE
3FFFFE
0FFF9E
03F81E
00301E
00301E
00301E
00301E
00301E
00001E
00001E
00001E
00001E
00001E
ENDCHAR
STARTCHAR 04B9
ENCODING 1209
SWIDTH 528 0
DWIDTH 22 0
BBX 18 22 1 0
BITMAP
F003C0
F003C0
F003C0
F003C0
F003C0
F003C0
F0C3C0
F0C3C0
78C3C0
78C3C0
7CC7C0
3FFFC0
1FFFC0
0FFFC0
00C3C0
00C3C0
00C3C0
00C3C0
00C3C0
0003C0
0003C0
0003C0
ENDCHAR
STARTCHAR 04BA
ENCODING 1210
SWIDTH 672 0
DWIDTH 28 0
BBX 23 30 3 0
BITMAP
F00000
F00000
F00000
F00000
F00000
F00000
F00000
F00000
F00000
F00000
F01F00
F3FFE0
FFFFF0
FFFFF8
FE00FC
F0003C
F0003E
F0001E
F0001E
F0001E
F0001E
F0001E
F0001E
F0001E
F0001E
F0001E
F0001E
F0001E
F0001E
F0001E
ENDCHAR
STARTCHAR 04BB
ENCODING 1211
SWIDTH 552 0
DWIDTH 23 0
BBX 17 30 3 0
BITMAP
E00000
E00000
E00000
E00000
E00000
E00000
E00000
E00000
E1F800
E7FE00
EFFF00
FE1F80
F80780
F00780
F00380
F00380
F00380
E00380
E00380
E00380
E00380
E00380
E00380
E00380
E00380
E00380
E00380
E00380
E00380
E00380
ENDCHAR
STARTCHAR 04D8
ENCODING 1240
SWIDTH 744 0
DWIDTH 31 0
BBX 28 30 2 -1
BITMAP
007FE000
01FFF800
07FFFC00
0FE07E00
1F801F00
1F000F80
3E0007C0
3C0003C0
3C0003C0
000001E0
000001E0
000001E0
000001E0
FFFFFFE0
FFFFFFE0
FFFFFFF0
F00001E0
F00001E0
F00001E0
F80001E0
780001E0
780003E0
7C0003C0
3C0007C0
3E000F80
1F001F80
0FC03F00
07FFFE00
03FFFC00
00FFF000
ENDCHAR
STARTCHAR 04D9
ENCODING 1241
SWIDTH 552 0
DWIDTH 23 0
BBX 20 22 2 0
BITMAP
03F800
1FFE00
3FFF80
7E0FC0
7803C0
F803E0
F001E0
0001E0
0000F0
0000F0
FFFFF0
FFFFF0
FFFFF0
F000F0
F000E0
F001E0
7001E0
7803C0
3C07C0
3FFF80
1FFF00
07FC00
ENDCHAR
STARTCHAR 04E8
ENCODING 1256
SWIDTH 768 0
DWIDTH 32 0
BBX 28 30 2 -1
BITMAP
007FF000
01FFFC00
07FFFE00
0FE07F00
1F800F80
1F0007C0
3E0003C0
3C0001E0
780001E0
780000F0
780000F0
F00000F0
F00000F0
FFFFFFF0
FFFFFFF0
FFFFFFF0
FFFFFFF0
F00000F0
F00000F0
F80000F0
780000F0
780001E0
7C0001E0
3E0003E0
1E0007C0
1F800F80
0FE03F00
07FFFE00
01FFFC00
007FF000
ENDCHAR
STARTCHAR 04E9
ENCODING 1257
SWIDTH 552 0
DWIDTH 23 0
BBX 21 22 1 0
BITMAP
01FC00
07FF00
0FFFC0
1F07C0
3C01E0
7C01F0
7800F0
7800F0
700070
FFFFF8
FFFFF8
FFFFF8
F00078
700070
780070
7800F0
7800F0
3C01E0
3E03E0
1FFFC0
0FFF80
03FE00
ENDCHAR
STARTCHAR 05B0
ENCODING 1456
SWIDTH 336 0
DWIDTH 14 0
BBX 4 8 5 -9
BITMAP
60
F0
E0
00
20
F0
F0
60
ENDCHAR
STARTCHAR 05B1
ENCODING 1457
SWIDTH 336 0
DWIDTH 14 0
BBX 12 8 1 -9
BITMAP
E670
EF70
EE70
0000
1020
3870
3870
1020
ENDCHAR
STARTCHAR 05B2
ENCODING 1458
SWIDTH 336 0
DWIDTH 14 0
BBX 12 8 1 -9
BITMAP
FE60
FEF0
0070
0000
0020
0070
0070
0060
ENDCHAR
STARTCHAR 05B3
ENCODING 1459
SWIDTH 336 0
DWIDTH 14 0
BBX 12 8 1 -9
BITMAP
FE60
FEF0
3870
3800
3820
0070
0070
0060
ENDCHAR
STARTCHAR 05B4
ENCODING 1460
SWIDTH 336 0
DWIDTH 14 0
BBX 4 3 5 -8
BITMAP
60
F0
E0
ENDCHAR
STARTCHAR 05B5
ENCODING 1461
SWIDTH 336 0
DWIDTH 14 0
BBX 8 3 3 -8
BITMAP
C3
E7
E7
ENDCHAR
STARTCHAR 05B6
ENCODING 1462
SWIDTH 336 0
DWIDTH 14 0
BBX 8 8 3 -9
BITMAP
C7
E7
E7
00
08
3C
3C
18
ENDCHAR
STARTCHAR 05B7
ENCODING 1463
SWIDTH 336 0
DWIDTH 14 0
BBX 8 2 3 -6
BITMAP
FF
FF
ENDCHAR
STARTCHAR 05B8
ENCODING 1464
SWIDTH 336 0
DWIDTH 14 0
BBX 8 6 3 -9
BITMAP
FF
FF
18
18
18
18
ENDCHAR
STARTCHAR 05B9
ENCODING 1465
SWIDTH 336 0
DWIDTH 14 0
BBX 4 3 5 24
BITMAP
E0
F0
60
ENDCHAR
STARTCHAR 05BA
ENCODING 1466
SWIDTH 336 0
DWIDTH 14 0
BBX 4 3 5 24
BITMAP
E0
F0
60
ENDCHAR
STARTCHAR 05BB
ENCODING 1467
SWIDTH 336 0
DWIDTH 14 0
BBX 14 8 0 -9
BITMAP
6000
F000
F300
0780
0790
0338
003C
0018
ENDCHAR
STARTCHAR 05BC
ENCODING 1468
SWIDTH 336 0
DWIDTH 14 0
BBX 4 3 5 10
BITMAP
F0
F0
60
ENDCHAR
STARTCHAR 05BD
ENCODING 1469
SWIDTH 336 0
DWIDTH 14 0
BBX 2 8 6 -9
BITMAP
C0
C0
C0
C0
C0
C0
C0
C0
ENDCHAR
STARTCHAR 05BE
ENCODING 1470
SWIDTH 384 0
DWIDTH 16 0
BBX 10 4 3 18
BITMAP
FFC0
FFC0
FFC0
FFC0
ENDCHAR
STARTCHAR 05BF
ENCODING 1471
SWIDTH 336 0
DWIDTH 14 0
BBX 8 3 3 25
BITMAP
FF
FF
FF
ENDCHAR
STARTCHAR 05C0
ENCODING 1472
SWIDTH 264 0
DWIDTH 11 0
BBX 3 26 4 0
BITMAP
E0
E0
E0
E0
E0
E0
E0
E0
E0
E0
E0
E0
E0
E0
E0
E0
E0
E0
E0
E0
E0
E0
E0
E0
E0
E0
ENDCHAR
STARTCHAR 05C1
ENCODING 1473
SWIDTH 336 0
DWIDTH 14 0
BBX 3 3 16 24
BITMAP
E0
E0
E0
ENDCHAR
STARTCHAR 05C2
ENCODING 1474
SWIDTH 336 0
DWIDTH 14 0
BBX 3 3 -5 24
BITMAP
E0
E0
E0
ENDCHAR
STARTCHAR 05C3
ENCODING 1475
SWIDTH 288 0
DWIDTH 12 0
BBX 4 22 4 0
BITMAP
F0
F0
F0
F0
F0
00
00
00
00
00
00
00
00
00
00
00
00
00
F0
F0
F0
F0
ENDCHAR
STARTCHAR 05D0
ENCODING 1488
SWIDTH 552 0
DWIDTH 23 0
BBX 20 22 2 0
BITMAP
F801E0
7C01E0
3E01E0
3E01E0
1F03E0
0F83C0
0783C0
07C3C0
0FE3C0
1FF780
3FFF80
3CFF00
7C7C00
783C00
783E00
781F00
780F00
780F80
7807C0
F003E0
F003E0
F001F0
ENDCHAR
STARTCHAR 05D1
ENCODING 1489
SWIDTH 552 0
DWIDTH 23 0
BBX 21 22 1 0
BITMAP
3FC000
FFF800
7FFC00
7FFE00
003F00
000F00
000F80
000780
000780
000780
000780
000780
000780
000780
000780
000780
000780
000780
000780
FFFFF8
FFFFF8
FFFFF8
ENDCHAR
STARTCHAR 05D2
ENCODING 1490
SWIDTH 408 0
DWIDTH 17 0
BBX 14 22 1 0
BITMAP
1F00
3FC0
3FE0
3FF0
01F0
00F0
00F0
00F0
00F0
00F0
00F0
00F0
00F0
00F0
07F0
0FF0
1FF8
3E78
7C78
7838
F03C
F03C
ENDCHAR
STARTCHAR 05D3
ENCODING 1491
SWIDTH 504 0
DWIDTH 21 0
BBX 19 22 1 0
BITMAP
FFFFE0
FFFFE0
FFFFE0
FFFFE0
000F00
000F00
000F00
000F00
000F00
000F00
000F00
000F00
000F00
000F00
000F00
000F00
000F00
000F00
000F00
000F00
000F00
000F00
ENDCHAR
STARTCHAR 05D4
ENCODING 1492
SWIDTH 600 0
DWIDTH 25 0
BBX 19 22 3 0
BITMAP
3FE000
FFFE00
FFFF00
FFFF80
000FC0
0003C0
0003E0
0001E0
0001E0
0001E0
F001E0
F001E0
F001E0
F001E0
F001E0
F001E0
F001E0
F001E0
F001E0
F001E0
F001E0
F001E0
ENDCHAR
STARTCHAR 05D5
ENCODING 1493
SWIDTH 240 0
DWIDTH 10 0
BBX 4 22 3 0
BITMAP
F0
F0
F0
F0
F0
F0
F0
F0
F0
F0
F0
F0
F0
F0
F0
F0
F0
F0
F0
F0
F0
F0
ENDCHAR
STARTCHAR 05D6
ENCODING 1494
SWIDTH 384 0
DWIDTH 16 0
BBX 13 22 2 0
BITMAP
FFF8
FFF8
FFF8
FFE0
0780
0F00
1E00
1E00
1C00
1C00
1C00
1E00
1E00
1E00
1E00
1E00
1E00
1E00
1E00
1E00
1E00
1E00
ENDCHAR
STARTCHAR 05D7
ENCODING 1495
SWIDTH 600 0
DWIDTH 25 0
BBX 19 22 3 0
BITMAP
1FF000
FFFE00
FFFF00
FFFF80
F007C0
F003C0
F001E0
F001E0
F001E0
F001E0
F001E0
F001E0
F001E0
F001E0
F001E0
F001E0
F001E0
F001E0
F001E0
F001E0
F001E0
F001E0
ENDCHAR
STARTCHAR 05D8
ENCODING 1496
SWIDTH 600 0
DWIDTH 25 0
BBX 19 23 3 -1
BITMAP
F01F00
F07F80
F07FC0
F0F7C0
F0C3E0
F001E0
F001E0
F001E0
F001E0
F001E0
F001E0
F001E0
F001E0
F001E0
F001E0
F001E0
7801C0
7803C0
7C07C0
3FFF80
1FFF00
07FC00
004000
ENDCHAR
STARTCHAR 05D9
ENCODING 1497
SWIDTH 240 0
DWIDTH 10 0
BBX 4 12 3 10
BITMAP
F0
F0
F0
F0
F0
F0
F0
F0
F0
F0
F0
F0
ENDCHAR
STARTCHAR 05DA
ENCODING 1498
SWIDTH 504 0
DWIDTH 21 0
BBX 17 30 1 -8
BITMAP
7F8000
FFF800
FFFC00
FFFE00
003F00
000F80
000780
000780
000780
000780
000780
000780
000780
000780
000780
000780
000780
000780
000780
000780
000780
000780
000780
000780
000780
000780
000780
000780
000780
000780
ENDCHAR
STARTCHAR 05DB
ENCODING 1499
SWIDTH 456 0
DWIDTH 19 0
BBX 15 22 2 0
BITMAP
FF00
FFC0
FFF0
FFF8
00F8
007C
003E
001E
001E
001E
001E
001E
001E
001E
001E
003E
003C
007C
81F8
FFF0
FFE0
FF80
ENDCHAR
STARTCHAR 05DC
ENCODING 1500
SWIDTH 456 0
DWIDTH 19 0
BBX 16 30 1 0
BITMAP
F000
F000
F000
F000
F000
F000
F000
F000
FFFF
FFFF
FFFF
FFFF
000F
000F
000F
000F
000F
000F
001E
003E
003C
0078
00F8
00F0
00F0
00E0
00E0
01E0
01E0
01E0
ENDCHAR
STARTCHAR 05DD
ENCODING 1501
SWIDTH 600 0
DWIDTH 25 0
BBX 19 22 3 0
BITMAP
1FF000
FFFE00
FFFF00
FFFF80
F007C0
F003C0
F001E0
F001E0
F001E0
F001E0
F001E0
F001E0
F001E0
F001E0
F001E0
F001E0
F001E0
F001E0
F001E0
FFFFE0
FFFFE0
FFFFE0
ENDCHAR
STARTCHAR 05DE
ENCODING 1502
SWIDTH 600 0
DWIDTH 25 0
BBX 20 22 2 0
BITMAP
E03E00
F0FF80
F1FFC0
73FFE0
7FC1E0
7F81E0
3F00F0
3F00F0
1E00F0
1E00F0
1E00F0
3C00F0
3C00F0
3C00F0
3C00F0
3800F0
7800F0
7800F0
7800F0
787FF0
707FF0
F07FF0
ENDCHAR
STARTCHAR 05DF
ENCODING 1503
SWIDTH 240 0
DWIDTH 10 0
BBX 4 30 3 -8
BITMAP
F0
F0
F0
F0
F0
F0
F0
F0
F0
F0
F0
F0
F0
F0
F0
F0
F0
F0
F0
F0
F0
F0
F0
F0
F0
F0
F0
F0
F0
F0
ENDCHAR
STARTCHAR 05E0
ENCODING 1504
SWIDTH 360 0
DWIDTH 15 0
BBX 11 22 1 0
BITMAP
7E00
7F80
7F80
7FC0
03C0
03E0
01E0
01E0
01E0
01E0
01E0
01E0
01E0
01E0
01E0
01E0
01E0
01E0
01E0
FFE0
FFE0
FFE0
ENDCHAR
STARTCHAR 05E1
ENCODING 1505
SWIDTH 576 0
DWIDTH 24 0
BBX 20 23 2 -1
BITMAP
03FC00
0FFF00
1FFF80
3F0FC0
3C03C0
7801E0
7801E0
F801F0
F000F0
F000F0
F000F0
F000F0
F000F0
F000F0
F000F0
F801F0
7801E0
7C03E0
3E07C0
1FFF80
0FFF00
07FE00
00E000
ENDCHAR
STARTCHAR 05E2
ENCODING 1506
SWIDTH 528 0
DWIDTH 22 0
BBX 18 24 1 -2
BITMAP
3C03C0
3C03C0
3C03C0
3C03C0
3E03C0
1E03C0
1E03C0
1E03C0
1E03C0
1E03C0
0F03C0
0F03C0
0F03C0
0F0380
0F0780
070780
078F00
07BF00
07FE00
07FC00
FFF000
FFC000
FE0000
E00000
ENDCHAR
STARTCHAR 05E3
ENCODING 1507
SWIDTH 576 0
DWIDTH 24 0
BBX 19 30 2 -8
BITMAP
0FE000
FFFE00
FFFF00
FC7F80
F00FC0
F003C0
F003C0
F001E0
F001E0
F001E0
F001E0
7801E0
7F01E0
3F01E0
1F81E0
0001E0
0001E0
0001E0
0001E0
0001E0
0001E0
0001E0
0001E0
0001E0
0001E0
0001E0
0001E0
0001E0
0001E0
0001E0
ENDCHAR
STARTCHAR 05E4
ENCODING 1508
SWIDTH 552 0
DWIDTH 23 0
BBX 19 22 2 0
BITMAP
1FF000
FFFC00
FFFE00
F83F80
F00F80
F007C0
F003C0
F003E0
7001E0
7801E0
7F81E0
3F81E0
1F81E0
0001E0
0003E0
0003C0
0007C0
000F80
607F00
7FFE00
FFFC00
7FF000
ENDCHAR
STARTCHAR 05E5
ENCODING 1509
SWIDTH 456 0
DWIDTH 19 0
BBX 17 30 1 -8
BITMAP
F00780
F00F00
780F00
780F00
7C0F00
3C0F00
3E0F00
1E0F00
1F1F00
0F1E00
0FBE00
07FC00
07F800
03E000
03C000
03C000
03C000
03C000
03C000
03C000
03C000
03C000
03C000
03C000
03C000
03C000
03C000
03C000
03C000
03C000
ENDCHAR
STARTCHAR 05E6
ENCODING 1510
SWIDTH 480 0
DWIDTH 20 0
BBX 18 22 0 0
BITMAP
F803C0
7803C0
3C03C0
3E07C0
1E07C0
1F0780
0F0780
078780
07CF80
03DF00
01FE00
01FC00
00F000
007800
007C00
003C00
001E00
001E00
000F00
7FFF80
7FFF80
7FFF80
ENDCHAR
STARTCHAR 05E7
ENCODING 1511
SWIDTH 552 0
DWIDTH 23 0
BBX 18 30 3 -8
BITMAP
FFFFC0
FFFFC0
FFFFC0
FFFFC0
0003C0
0003C0
0003C0
0003C0
000380
000780
F00780
F00F00
F01F00
F01E00
F03C00
F03C00
F07800
F07800
F07800
F07800
F07800
F07800
F00000
F00000
F00000
F00000
F00000
F00000
F00000
F00000
ENDCHAR
STARTCHAR 05E8
ENCODING 1512
SWIDTH 504 0
DWIDTH 21 0
BBX 17 22 1 0
BITMAP
7FC000
FFF800
FFFE00
FFFE00
003F00
000F80
000780
000780
000780
000780
000780
000780
000780
000780
000780
000780
000780
000780
000780
000780
000780
000780
ENDCHAR
STARTCHAR 05E9
ENCODING 1513
SWIDTH 696 0
DWIDTH 29 0
BBX 25 23 2 -1
BITMAP
F01C0780
F01C0780
F03C0780
F03C0780
F03C0780
F03C0700
F03C0F00
F03C0F00
F03C0F00
F07C0F00
70F80F00
7FF80F00
7FF00F00
7FC00E00
78001E00
38001E00
3C003C00
1E007C00
1F00F800
0FFFF000
07FFE000
01FF8000
00180000
ENDCHAR
STARTCHAR 05EA
ENCODING 1514
SWIDTH 648 0
DWIDTH 27 0
BBX 23 22 1 0
BITMAP
1FFE00
7FFFE0
7FFFF0
7F9FF8
07807C
07803C
07803C
07801E
07801E
07801E
07801E
07801E
07801E
07801E
07801E
07801E
07801E
07801E
0F801E
FF801E
FF001E
FE001E
ENDCHAR
STARTCHAR 05F0
ENCODING 1520
SWIDTH 504 0
DWIDTH 21 0
BBX 14 22 3 0
BITMAP
F03C
F03C
F03C
F03C
F03C
F03C
F03C
F03C
F03C
F03C
F03C
F03C
F03C
F03C
F03C
F03C
F03C
F03C
F03C
F03C
F03C
F03C
ENDCHAR
STARTCHAR 05F1
ENCODING 1521
SWIDTH 504 0
DWIDTH 21 0
BBX 14 22 3 0
BITMAP
F03C
F03C
F03C
F03C
F03C
F03C
F03C
F03C
F03C
F03C
F03C
F03C
003C
003C
003C
003C
003C
003C
003C
003C
003C
003C
ENDCHAR
STARTCHAR 05F2
ENCODING 1522
SWIDTH 504 0
DWIDTH 21 0
BBX 14 12 3 10
BITMAP
F03C
F03C
F03C
F03C
F03C
F03C
F03C
F03C
F03C
F03C
F03C
F03C
ENDCHAR
STARTCHAR 05F3
ENCODING 1523
SWIDTH 240 0
DWIDTH 10 0
BBX 6 8 2 14
BITMAP
3C
38
78
78
70
70
E0
E0
ENDCHAR
STARTCHAR 05F4
ENCODING 1524
SWIDTH 408 0
DWIDTH 17 0
BBX 14 8 2 14
BITMAP
3C7C
3878
7878
7870
70F0
70E0
E0E0
E0C0
ENDCHAR
STARTCHAR 060C
ENCODING 1548
SWIDTH 312 0
DWIDTH 13 0
BBX 7 12 3 6
BITMAP
08
18
30
60
60
60
70
FC
7E
7E
7E
3C
ENDCHAR
STARTCHAR 061B
ENCODING 1563
SWIDTH 312 0
DWIDTH 13 0
BBX 7 19 3 6
BITMAP
08
38
30
60
40
C0
F0
FC
FE
7E
7E
3C
00
00
00
3C
3C
3C
3C
ENDCHAR
STARTCHAR 061F
ENCODING 1567
SWIDTH 360 0
DWIDTH 15 0
BBX 13 24 1 6
BITMAP
0300
1FE0
3870
7030
70F8
F8F8
F9F0
FCF0
7C60
7E00
3E00
1E00
0E00
0700
0300
0300
0200
0000
0000
0700
0F80
0F80
0F80
0700
ENDCHAR
STARTCHAR 0621
ENCODING 1569
SWIDTH 408 0
DWIDTH 17 0
BBX 12 14 3 3
BITMAP
0600
1F80
3F80
7F80
6080
C000
E010
F8F0
FFE0
7FE0
3F00
3800
3000
4000
ENDCHAR
STARTCHAR 0622
ENCODING 1570
SWIDTH 216 0
DWIDTH 9 0
BBX 7 28 1 5
BITMAP
FE
1C
00
00
10
10
30
38
38
38
38
18
18
18
18
18
1C
1C
1C
1C
1C
0C
0C
0C
0C
08
08
08
ENDCHAR
STARTCHAR 0623
ENCODING 1571
SWIDTH 216 0
DWIDTH 9 0
BBX 5 31 2 5
BITMAP
10
38
40
E0
78
E0
00
20
20
60
70
70
70
70
30
30
30
30
30
38
38
38
38
38
18
18
18
18
10
10
10
ENDCHAR
STARTCHAR 0624
ENCODING 1572
SWIDTH 432 0
DWIDTH 18 0
BBX 16 26 2 -3
BITMAP
00C0
01C0
0200
03E0
01C0
0200
0000
001C
003E
003F
0077
0063
0063
0079
007F
003F
001F
0003
0003
0006
000E
001C
003C
00F8
FFF0
1FC0
ENDCHAR
STARTCHAR 0625
ENCODING 1573
SWIDTH 216 0
DWIDTH 9 0
BBX 6 34 1 -3
BITMAP
10
10
30
38
38
38
38
18
18
18
18
18
1C
1C
1C
1C
1C
0C
0C
0C
0C
08
08
08
00
00
00
00
38
78
40
78
70
80
ENDCHAR
STARTCHAR 0626
ENCODING 1574
SWIDTH 648 0
DWIDTH 27 0
BBX 24 25 1 -2
BITMAP
180000
380000
600000
3C0000
38001E
40003F
00007F
0000E3
100181
100100
200200
200200
400600
4007FE
4007FE
C003FE
C00006
C0000E
C0001C
E0007C
F007F8
7FFFF0
7FFFC0
3FFF00
07F000
ENDCHAR
STARTCHAR 0627
ENCODING 1575
SWIDTH 216 0
DWIDTH 9 0
BBX 4 24 3 6
BITMAP
40
40
C0
E0
E0
E0
E0
60
60
60
60
60
70
70
70
70
70
30
30
30
30
20
20
20
ENDCHAR
STARTCHAR 0628
ENCODING 1576
SWIDTH 720 0
DWIDTH 30 0
BBX 29 21 1 -1
BITMAP
20000020
40000070
40000070
40000070
C0000038
C0000018
C0000018
E0000018
F8000018
7FC00018
3FFFFFF8
1FFFFFF8
07FFFFF8
00000000
00000000
00000000
00000000
00070000
00078000
00070000
00010000
ENDCHAR
STARTCHAR 0629
ENCODING 1577
SWIDTH 288 0
DWIDTH 12 0
BBX 11 22 0 5
BITMAP
0200
0300
4780
7780
F900
7000
0000
0000
0000
0800
0E00
0F80
1FC0
1FE0
11E0
3060
3060
3060
3FE0
3FC0
3F80
0C00
ENDCHAR
STARTCHAR 062A
ENCODING 1578
SWIDTH 720 0
DWIDTH 30 0
BBX 29 20 1 6
BITMAP
00018000
0001E000
001BE000
003CC000
003C0000
00180000
00000000
20000020
40000070
40000070
40000070
C0000038
C0000018
C0000018
E0000018
F8000018
7FC00018
3FFFFFF8
1FFFFFF8
07FFFFF8
ENDCHAR
STARTCHAR 062B
ENCODING 1579
SWIDTH 720 0
DWIDTH 30 0
BBX 29 23 1 7
BITMAP
001C0000
001E0000
001C0000
00058000
0001E000
001BE000
003CC000
003C0000
00180000
00000000
20000020
40000070
40000070
40000070
C0000038
C0000018
C0000018
E0000018
F8000018
7FC00018
3FFFFFF8
1FFFFFF8
07FFFFF8
ENDCHAR
STARTCHAR 062C
ENCODING 1580
SWIDTH 552 0
DWIDTH 23 0
BBX 20 27 1 -9
BITMAP
0FF000
3FFFE0
3FFFE0
7FFFE0
00FF00
03F000
078000
0E0000
180000
300000
200000
401000
401C00
C03C00
801C00
C00000
C00000
C00000
C00000
E00000
700000
7C0000
3F8000
1FFFF0
0FFFE0
03FFC0
003F00
ENDCHAR
STARTCHAR 062D
ENCODING 1581
SWIDTH 552 0
DWIDTH 23 0
BBX 20 27 1 -9
BITMAP
0FF000
3FFFE0
3FFFE0
7FFFE0
00FF00
03F000
078000
0E0000
180000
300000
200000
400000
400000
C00000
800000
C00000
C00000
C00000
C00000
E00000
700000
7C0000
3F8000
1FFFF0
0FFFE0
03FFC0
003F00
ENDCHAR
STARTCHAR 062E
ENCODING 1582
SWIDTH 552 0
DWIDTH 23 0
BBX 20 36 1 -9
BITMAP
004000
007000
00F800
00F000
002000
000000
000000
000000
000000
0FF000
3FFFE0
3FFFE0
7FFFE0
00FF00
03F000
078000
0E0000
180000
300000
200000
400000
400000
C00000
800000
C00000
C00000
C00000
C00000
E00000
700000
7C0000
3F8000
1FFFF0
0FFFE0
03FFC0
003F00
ENDCHAR
STARTCHAR 062F
ENCODING 1583
SWIDTH 336 0
DWIDTH 14 0
BBX 12 17 2 6
BITMAP
0200
0300
0380
03C0
01C0
00E0
0060
0030
0030
0030
0010
0010
8010
E010
FFF0
FFF0
7FF0
ENDCHAR
STARTCHAR 0630
ENCODING 1584
SWIDTH 336 0
DWIDTH 14 0
BBX 12 26 2 6
BITMAP
1000
1800
3C00
3C00
0800
0000
0000
0000
0000
0200
0300
0380
03C0
01C0
00E0
0060
0030
0030
0030
0010
0010
8010
E010
FFF0
FFF0
7FF0
ENDCHAR
STARTCHAR 0631
ENCODING 1585
SWIDTH 480 0
DWIDTH 20 0
BBX 18 21 2 -3
BITMAP
000300
000380
0003C0
0001C0
0000C0
0000C0
000040
000040
000040
000040
000040
0000C0
0001C0
0001C0
000380
000F80
001F00
007E00
FFFC00
1FF000
03C000
ENDCHAR
STARTCHAR 0632
ENCODING 1586
SWIDTH 480 0
DWIDTH 20 0
BBX 18 30 2 -3
BITMAP
001C00
001E00
001E00
000400
000000
000000
000000
000000
000000
000300
000380
0003C0
0001C0
0000C0
0000C0
000040
000040
000040
000040
000040
0000C0
0001C0
0001C0
000380
000F80
001F00
007E00
FFFC00
1FF000
03C000
ENDCHAR
STARTCHAR 0633
ENCODING 1587
SWIDTH 816 0
DWIDTH 34 0
BBX 33 20 1 -3
BITMAP
0000200100
0000300100
0000302380
1000781180
1000381080
2000381080
2000183880
200019FF80
40001FFF80
40000FFF80
40000FC780
C000180000
C000180000
C000300000
E000700000
F001E00000
7FFFE00000
7FFFC00000
3FFF000000
07F8000000
ENDCHAR
STARTCHAR 0634
ENCODING 1588
SWIDTH 816 0
DWIDTH 34 0
BBX 33 33 1 -3
BITMAP
0000008000
000000E000
000001E000
000001E000
0000004C00
0000001F00
0000019E00
000001EE00
000003C000
000000C000
0000000000
0000000000
0000000000
0000200100
0000300100
0000302380
1000781180
1000381080
2000381080
2000183880
200019FF80
40001FFF80
40000FFF80
40000FC780
C000180000
C000180000
C000300000
E000700000
F001E00000
7FFFE00000
7FFFC00000
3FFF000000
07F8000000
ENDCHAR
STARTCHAR 0635
ENCODING 1589
SWIDTH 1104 0
DWIDTH 46 0
BBX 45 20 1 -3
BITMAP
0000200007C0
000030003FE0
000030007FF0
10007801FFF0
10003803C0F8
2000380F0078
2000183C0078
20001FF007F8
40001FFFFFF8
40000FFFFFF8
40000FFFFFF8
C00010000000
C00010000000
C00030000000
E00070000000
F001E0000000
7FFFC0000000
7FFFC0000000
3FFF00000000
07F800000000
ENDCHAR
STARTCHAR 0636
ENCODING 1590
SWIDTH 1104 0
DWIDTH 46 0
BBX 45 27 1 -2
BITMAP
0000001C0000
0000001E0000
0000001C0000
000000040000
000000000000
000000000000
000000000000
0000200007C0
000030003FE0
000030007FF0
10007801FFF0
10003803C0F8
2000380F0078
2000183C0078
20001FF007F8
40001FFFFFF8
40000FFFFFF8
40000FFFFFF8
C00010000000
C00010000000
C00030000000
E00070000000
F001E0000000
7FFFC0000000
7FFFC0000000
3FFF00000000
07F800000000
ENDCHAR
STARTCHAR 0637
ENCODING 1591
SWIDTH 576 0
DWIDTH 24 0
BBX 25 27 -1 6
BITMAP
02000000
03800000
03E00000
03E00000
03E00000
01C00000
01800000
00C00000
00C00000
00C00000
00C00000
00600000
00600000
00600000
00600000
00600000
00607C00
0061FF00
0047FF80
005FFF80
007C0780
00F00380
01C00380
FF007F80
FFFFFF80
FFFFFF80
FFFFFF80
ENDCHAR
STARTCHAR 0638
ENCODING 1592
SWIDTH 576 0
DWIDTH 24 0
BBX 25 27 -1 6
BITMAP
02000000
03800000
03E00000
03E00000
03E00000
01C00000
01808000
00C0E000
00C1E000
00C1E000
00C04000
00600000
00600000
00600000
00600000
00600000
00607C00
0061FF00
0047FF80
005FFF80
007C0780
00F00380
01C00380
FF007F80
FFFFFF80
FFFFFF80
FFFFFF80
ENDCHAR
STARTCHAR 0639
ENCODING 1593
SWIDTH 552 0
DWIDTH 23 0
BBX 20 31 1 -9
BITMAP
0FC000
1FE000
3F1000
700000
C00000
C00000
C00180
F00F80
FC3F00
7FFE00
3FF000
1FC000
0F0000
1C0000
380000
700000
600000
400000
C00000
C00000
C00000
C00000
C00000
E00000
E00000
780000
7F0000
3FFFF0
1FFFE0
07FF80
007F00
ENDCHAR
STARTCHAR 063A
ENCODING 1594
SWIDTH 552 0
DWIDTH 23 0
BBX 20 39 1 -8
BITMAP
070000
078000
070000
010000
000000
000000
000000
000000
0FC000
1FE000
3F1000
700000
C00000
C00000
C00180
F00F80
FC3F00
7FFE00
3FF000
1FC000
0F0000
1C0000
380000
700000
600000
400000
C00000
C00000
C00000
C00000
C00000
E00000
E00000
780000
7F0000
3FFFF0
1FFFE0
07FF80
007F00
ENDCHAR
STARTCHAR 0640
ENCODING 1600
SWIDTH 216 0
DWIDTH 9 0
BBX 10 4 -1 6
BITMAP
FFC0
FFC0
FFC0
FFC0
ENDCHAR
STARTCHAR 0641
ENCODING 1601
SWIDTH 792 0
DWIDTH 33 0
BBX 32 22 1 6
BITMAP
000000C0
000001F0
000001E0
00000060
00000000
00000000
00000000
00000000
0000001C
4000003E
4000007E
4000007E
800000E7
800000E7
C00000E3
C00000F3
E000007F
F800003F
7FFC0007
3FFFFFFF
1FFFFFFF
03FFFFFF
ENDCHAR
STARTCHAR 0642
ENCODING 1602
SWIDTH 576 0
DWIDTH 24 0
BBX 23 31 1 -3
BITMAP
000060
0000F8
000EF0
000F30
000E00
000200
000000
000000
000000
000000
0000F8
0001F8
0001FC
00039C
10030E
10030E
2003FE
2003FE
6001FE
4000FE
400002
400002
400002
C00006
C0000E
60001E
78007C
7FFFFC
3FFFF0
1FFFE0
07FF00
ENDCHAR
STARTCHAR 0643
ENCODING 1603
SWIDTH 600 0
DWIDTH 25 0
BBX 24 26 1 6
BITMAP
000010
000018
00001E
00003E
00003E
00011E
00020C
00060C
000C0C
00100C
00100C
003F0C
003F86
001F86
000186
400306
400F06
43FC06
C00007
C00003
C00003
E00003
FF8003
7FFFFF
3FFFFF
0FFFFF
ENDCHAR
STARTCHAR 0644
ENCODING 1604
SWIDTH 504 0
DWIDTH 21 0
BBX 20 32 1 0
BITMAP
000080
0001C0
0001F0
0001F0
0001F0
0000E0
0000C0
0000C0
0000C0
000060
000060
000060
000060
000060
000060
080020
100030
100030
200030
200030
400030
400030
400030
400030
400030
E00030
6000F0
7803E0
7FFFE0
3FFFC0
1FFF00
01F000
ENDCHAR
STARTCHAR 0645
ENCODING 1605
SWIDTH 336 0
DWIDTH 14 0
BBX 13 23 1 -9
BITMAP
0700
0FC0
1FE0
19F0
1070
0038
0FF8
3FF8
7FF8
FC00
E000
C000
C000
C000
C000
C000
6000
6000
6000
2000
2000
2000
2000
ENDCHAR
STARTCHAR 0646
ENCODING 1606
SWIDTH 528 0
DWIDTH 22 0
BBX 21 26 1 -3
BITMAP
003000
007800
007800
003000
000000
000000
000010
000030
000030
100078
100038
200038
200018
200018
400018
400018
400018
400018
C00018
C00038
E00070
7001F0
7FFFE0
3FFFC0
1FFF80
07FC00
ENDCHAR
STARTCHAR 0647
ENCODING 1607
SWIDTH 288 0
DWIDTH 12 0
BBX 10 13 1 5
BITMAP
1000
1C00
3E00
3F80
3F80
63C0
41C0
40C0
E1C0
FF80
FF80
7F00
1800
ENDCHAR
STARTCHAR 0648
ENCODING 1608
SWIDTH 432 0
DWIDTH 18 0
BBX 16 19 2 -3
BITMAP
001C
003E
003F
0077
0063
0063
0079
007F
003F
001F
0003
0003
0006
000E
001C
003C
00F8
FFF0
1FC0
ENDCHAR
STARTCHAR 0649
ENCODING 1609
SWIDTH 648 0
DWIDTH 27 0
BBX 24 21 1 -2
BITMAP
00001E
00003F
00007F
0000E3
100181
100100
200200
200200
400600
4007FE
4007FE
C003FE
C00006
C0000E
C0001C
E0007C
F007F8
7FFFF0
7FFFC0
3FFF00
07F000
ENDCHAR
STARTCHAR 064A
ENCODING 1610
SWIDTH 648 0
DWIDTH 27 0
BBX 24 27 1 -9
BITMAP
00001E
00003F
00007F
0000E3
100181
100100
200200
200200
400600
4007FE
4007FE
C003FE
C00006
C0000E
C0001C
E0007C
F007F8
7FFFF0
7FFFC0
3FFF00
07F000
000400
000700
00CF00
00EF00
01E200
00E000
ENDCHAR
STARTCHAR 064B
ENCODING 1611
SWIDTH 192 0
DWIDTH 8 0
BBX 7 7 1 26
BITMAP
06
1C
60
86
1C
70
80
ENDCHAR
STARTCHAR 064C
ENCODING 1612
SWIDTH 240 0
DWIDTH 10 0
BBX 8 8 2 25
BITMAP
07
0B
CB
CE
66
4F
71
40
ENDCHAR
STARTCHAR 064D
ENCODING 1613
SWIDTH 192 0
DWIDTH 8 0
BBX 6 6 2 -4
BITMAP
1C
70
C0
1C
70
C0
ENDCHAR
STARTCHAR 064E
ENCODING 1614
SWIDTH 192 0
DWIDTH 8 0
BBX 6 4 2 28
BITMAP
04
38
E0
80
ENDCHAR
STARTCHAR 064F
ENCODING 1615
SWIDTH 216 0
DWIDTH 9 0
BBX 7 9 2 25
BITMAP
0C
1C
14
1C
1C
0E
12
20
C0
ENDCHAR
STARTCHAR 0650
ENCODING 1616
SWIDTH 192 0
DWIDTH 8 0
BBX 7 4 1 -1
BITMAP
06
1C
70
80
ENDCHAR
STARTCHAR 0651
ENCODING 1617
SWIDTH 216 0
DWIDTH 9 0
BBX 8 7 1 25
BITMAP
01
09
09
9F
FE
74
60
ENDCHAR
STARTCHAR 0652
ENCODING 1618
SWIDTH 168 0
DWIDTH 7 0
BBX 6 6 1 26
BITMAP
78
5C
8C
CC
78
70
ENDCHAR
STARTCHAR 0653
ENCODING 1619
SWIDTH 216 0
DWIDTH 9 0
BBX 7 2 1 29
BITMAP
F0
3E
ENDCHAR
STARTCHAR 0654
ENCODING 1620
SWIDTH 216 0
DWIDTH 9 0
BBX 5 6 2 31
BITMAP
10
38
40
E0
78
E0
ENDCHAR
STARTCHAR 0655
ENCODING 1621
SWIDTH 216 0
DWIDTH 9 0
BBX 5 6 2 -3
BITMAP
10
78
80
E0
38
C0
ENDCHAR
STARTCHAR 0660
ENCODING 1632
SWIDTH 528 0
DWIDTH 22 0
BBX 6 10 8 9
BITMAP
40
60
70
FC
FC
FC
FC
78
38
08
ENDCHAR
STARTCHAR 0661
ENCODING 1633
SWIDTH 528 0
DWIDTH 22 0
BBX 8 23 6 7
BITMAP
60
70
78
F8
7C
3C
3C
1E
1E
0E
0E
07
07
07
03
03
03
03
02
02
02
02
02
ENDCHAR
STARTCHAR 0662
ENCODING 1634
SWIDTH 528 0
DWIDTH 22 0
BBX 12 24 4 6
BITMAP
4010
4010
E010
F830
FFF0
7FF0
3FF0
3FE0
1E00
0E00
0F00
0700
0700
0700
0300
0380
0380
0180
0180
0180
0180
0180
0080
0080
ENDCHAR
STARTCHAR 0663
ENCODING 1635
SWIDTH 528 0
DWIDTH 22 0
BBX 17 24 3 6
BITMAP
002080
402180
E07180
F0FF80
FFFF00
FFFF00
7FBE00
7E0000
380000
3C0000
1C0000
0E0000
0E0000
0E0000
060000
060000
060000
060000
020000
020000
020000
020000
020000
020000
ENDCHAR
STARTCHAR 0664
ENCODING 1636
SWIDTH 528 0
DWIDTH 22 0
BBX 10 23 6 7
BITMAP
0100
0300
0700
0E00
1800
2000
6000
7800
FF00
FF80
7F00
1F00
0200
0400
1800
1000
3000
7000
7F00
7FC0
7FC0
3FC0
0F80
ENDCHAR
STARTCHAR 0665
ENCODING 1637
SWIDTH 528 0
DWIDTH 22 0
BBX 14 16 4 10
BITMAP
0780
0FE0
1FF0
1FF8
31F8
207C
401C
400C
400C
C004
C00C
F038
FFF8
FFF0
7FC0
1F00
ENDCHAR
STARTCHAR 0666
ENCODING 1638
SWIDTH 528 0
DWIDTH 22 0
BBX 13 22 4 8
BITMAP
8000
E3C0
FFC0
FFC0
FFC0
FFC0
00C0
00C0
00C0
00C0
00C0
00C0
00C0
00C0
00E0
00E0
00F0
0078
0078
0078
0038
0010
ENDCHAR
STARTCHAR 0667
ENCODING 1639
SWIDTH 528 0
DWIDTH 22 0
BBX 16 23 3 7
BITMAP
8001
C001
E003
E007
F007
F80F
F80E
7C1C
3C18
1E18
0E30
0E30
0720
0720
0340
03C0
01C0
01C0
0180
0180
0080
0080
0080
ENDCHAR
STARTCHAR 0668
ENCODING 1640
SWIDTH 528 0
DWIDTH 22 0
BBX 17 22 3 7
BITMAP
010000
018000
018000
018000
018000
03C000
02C000
02E000
06E000
04E000
047000
0C7800
0C3800
183C00
383E00
381F00
701F80
F00F80
E00700
E00700
C00300
800100
ENDCHAR
STARTCHAR 0669
ENCODING 1641
SWIDTH 528 0
DWIDTH 22 0
BBX 13 24 4 6
BITMAP
0780
1FC0
1FC0
3FC0
70C0
60E0
4060
6060
FFE0
7FE0
7FE0
3F60
0060
0060
0060
0060
0070
0070
0070
0078
0078
0038
0030
0010
ENDCHAR
STARTCHAR 066A
ENCODING 1642
SWIDTH 528 0
DWIDTH 22 0
BBX 16 28 3 4
BITMAP
7803
7C06
7C06
7C0C
380C
0018
0018
0030
0030
0060
0060
00C0
00C0
0180
0180
0300
0300
0600
0600
0C00
0C00
1800
1800
301C
303E
603E
603E
C01E
ENDCHAR
STARTCHAR 066B
ENCODING 1643
SWIDTH 312 0
DWIDTH 13 0
BBX 6 10 4 1
BITMAP
70
F8
FC
FC
78
18
30
30
E0
80
ENDCHAR
STARTCHAR 066C
ENCODING 1644
SWIDTH 312 0
DWIDTH 13 0
BBX 7 12 3 6
BITMAP
08
18
30
60
60
60
70
FC
7E
7E
7E
3C
ENDCHAR
STARTCHAR 066D
ENCODING 1645
SWIDTH 528 0
DWIDTH 22 0
BBX 14 14 4 17
BITMAP
0300
0700
7770
7B70
3AE0
0E80
F57C
FDFC
0780
1AE0
3B70
7370
2720
0700
ENDCHAR
STARTCHAR 066E
ENCODING 1646
SWIDTH 720 0
DWIDTH 30 0
BBX 29 13 1 7
BITMAP
20000020
40000070
40000070
40000070
C0000038
C0000018
C0000018
E0000018
F8000018
7FC00018
3FFFFFF8
1FFFFFF8
07FFFFF8
ENDCHAR
STARTCHAR 066F
ENCODING 1647
SWIDTH 576 0
DWIDTH 24 0
BBX 23 21 1 -2
BITMAP
0000F8
0001F8
0001FC
00039C
10030E
10030E
2003FE
2003FE
6001FE
4000FE
400002
400002
400002
C00006
C0000E
60001E
78007C
7FFFFC
3FFFF0
1FFFE0
07FF00
ENDCHAR
STARTCHAR 0670
ENCODING 1648
SWIDTH 0 0
DWIDTH 0 0
BBX 2 11 -1 23
BITMAP
80
80
80
C0
C0
40
40
40
40
40
40
ENDCHAR
STARTCHAR 0671
ENCODING 1649
SWIDTH 216 0
DWIDTH 9 0
BBX 9 31 0 5
BITMAP
0700
0980
1180
7F00
FE00
8000
0000
0800
0800
1800
1C00
1C00
1C00
1C00
0C00
0C00
0C00
0C00
0C00
0E00
0E00
0E00
0E00
0E00
0600
0600
0600
0600
0400
0400
0400
ENDCHAR
STARTCHAR 0672
ENCODING 1650
SWIDTH 216 0
DWIDTH 9 0
BBX 7 31 0 5
BITMAP
0E
1C
10
1E
5C
A0
00
08
08
18
1C
1C
1C
1C
0C
0C
0C
0C
0C
0E
0E
0E
0E
0E
06
06
06
06
04
04
04
ENDCHAR
STARTCHAR 0673
ENCODING 1651
SWIDTH 216 0
DWIDTH 9 0
BBX 7 33 1 -3
BITMAP
10
10
30
38
38
38
38
18
18
18
18
18
1C
1C
1C
1C
1C
0C
0C
0C
0C
08
08
08
00
00
00
00
0C
30
30
1E
F8
ENDCHAR
STARTCHAR 0674
ENCODING 1652
SWIDTH 216 0
DWIDTH 9 0
BBX 5 6 2 31
BITMAP
10
38
40
E0
78
E0
ENDCHAR
STARTCHAR 0675
ENCODING 1653
SWIDTH 216 0
DWIDTH 9 0
BBX 9 25 3 5
BITMAP
0100
4300
4400
CC00
E780
EE00
E000
E000
6000
6000
6000
6000
6000
7000
7000
7000
7000
7000
3000
3000
3000
3000
2000
2000
2000
ENDCHAR
STARTCHAR 0676
ENCODING 1654
SWIDTH 432 0
DWIDTH 18 0
BBX 19 28 2 -3
BITMAP
0000C0
0001C0
000200
000380
0001E0
000300
000000
000000
000000
001C00
003E00
003F00
007700
006300
006300
007900
007F00
003F00
001F00
000300
000300
000600
000E00
001C00
003C00
00F800
FFF000
1FC000
ENDCHAR
STARTCHAR 0677
ENCODING 1655
SWIDTH 432 0
DWIDTH 18 0
BBX 19 29 2 -3
BITMAP
004000
01C0C0
0161C0
014200
01C380
00E1E0
01E300
030000
060000
080000
001C00
003E00
003F00
007700
006300
006300
007900
007F00
003F00
001F00
000300
000300
000600
000E00
001C00
003C00
00F800
FFF000
1FC000
ENDCHAR
STARTCHAR 0678
ENCODING 1656
SWIDTH 648 0
DWIDTH 27 0
BBX 26 30 1 -1
BITMAP
000001C0
00000240
00000300
000003C0
00000300
00000000
00000000
00000000
00000000
00001E00
00003F00
00007F00
0000E300
10018100
10010000
20020000
20020000
40060000
4007FE00
4007FE00
C003FE00
C0000600
C0000E00
C0001C00
E0007C00
F007F800
7FFFF000
7FFFC000
3FFF0000
07F00000
ENDCHAR
STARTCHAR 0679
ENCODING 1657
SWIDTH 720 0
DWIDTH 30 0
BBX 29 28 1 7
BITMAP
001C0000
00180000
00080000
00080000
00080000
00080000
00040000
0008E000
000BF000
000E1000
00183000
00FFF000
00000000
00000000
00000000
20000020
40000070
40000070
40000070
C0000038
C0000018
C0000018
E0000018
F8000018
7FC00018
3FFFFFF8
1FFFFFF8
07FFFFF8
ENDCHAR
STARTCHAR 067A
ENCODING 1658
SWIDTH 720 0
DWIDTH 30 0
BBX 29 25 1 6
BITMAP
000E0000
000F0000
001F0000
00060000
00000000
00060000
00078000
000F8000
00030000
00000000
00000000
00000000
20000020
40000070
40000070
40000070
C0000038
C0000018
C0000018
E0000018
F8000018
7FC00018
3FFFFFF8
1FFFFFF8
07FFFFF8
ENDCHAR
STARTCHAR 067B
ENCODING 1659
SWIDTH 720 0
DWIDTH 30 0
BBX 29 26 1 -6
BITMAP
20000020
40000070
40000070
40000070
C0000038
C0000018
C0000018
E0000018
F8000018
7FC00018
3FFFFFF8
1FFFFFF8
07FFFFF8
00000000
00000000
00000000
00020000
00078000
00078000
00078000
00010000
00010000
0003C000
0003C000
0003C000
00008000
ENDCHAR
STARTCHAR 067C
ENCODING 1660
SWIDTH 720 0
DWIDTH 30 0
BBX 29 25 1 1
BITMAP
00018000
0001E000
001BE000
003CC000
003C0000
00180000
00000000
20000020
40000070
40000070
40000070
C0000038
C0000018
C0000018
E0000018
F8000018
7FC00018
3FFFFFF8
1FFFFFF8
07FFFFF8
0004C000
00084000
00044000
00078000
00030000
ENDCHAR
STARTCHAR 067D
ENCODING 1661
SWIDTH 720 0
DWIDTH 30 0
BBX 29 25 1 6
BITMAP
00018000
0001E000
001BC000
003CC000
003C0000
00090000
0003C000
0003C000
00038000
00008000
00000000
00000000
20000020
40000070
40000070
40000070
C0000038
C0000018
C0000018
E0000018
F8000018
7FC00018
3FFFFFF8
1FFFFFF8
07FFFFF8
ENDCHAR
STARTCHAR 067E
ENCODING 1662
SWIDTH 720 0
DWIDTH 30 0
BBX 29 26 1 -6
BITMAP
20000020
40000070
40000070
40000070
C0000038
C0000018
C0000018
E0000018
F8000018
7FC00018
3FFFFFF8
1FFFFFF8
07FFFFF8
00000000
00000000
00000000
00008000
0000E000
0009E000
001EE000
003E0000
001C0000
00058000
0001E000
0003C000
0000C000
ENDCHAR
STARTCHAR 067F
ENCODING 1663
SWIDTH 720 0
DWIDTH 30 0
BBX 29 25 1 6
BITMAP
00018000
0023C000
0033C000
007D8000
00780000
0018C000
0001E000
0019E000
001EC000
003C0000
000C0000
00000000
20000020
40000070
40000070
40000070
C0000038
C0000018
C0000018
E0000018
F8000018
7FC00018
3FFFFFF8
1FFFFFF8
07FFFFF8
ENDCHAR
STARTCHAR 0680
ENCODING 1664
SWIDTH 720 0
DWIDTH 30 0
BBX 29 27 1 -8
BITMAP
20000020
40000070
40000070
40000070
C0000038
C0000018
C0000018
E0000018
F8000018
7FC00018
3FFFFFF8
1FFFFFF8
07FFFFF8
00000000
00000000
00000000
00008000
0001E000
0011E000
001DC000
003C4000
001C0000
0000E000
0008F000
000EE000
001E2000
000E0000
ENDCHAR
STARTCHAR 0681
ENCODING 1665
SWIDTH 552 0
DWIDTH 23 0
BBX 20 37 1 -8
BITMAP
001C00
002000
002000
003C00
003000
004000
000000
000000
000000
000000
0FF000
3FFFE0
3FFFE0
7FFFE0
00FF00
03F000
078000
0E0000
180000
300000
200000
400000
400000
C00000
800000
C00000
C00000
C00000
C00000
E00000
700000
7C0000
3F8000
1FFFF0
0FFFE0
03FFC0
003F00
ENDCHAR
STARTCHAR 0682
ENCODING 1666
SWIDTH 552 0
DWIDTH 23 0
BBX 20 40 1 -9
BITMAP
00C000
00F000
01F000
006000
000000
006000
007800
00F800
003000
000000
000000
000000
000000
0FF000
3FFFE0
3FFFE0
7FFFE0
00FF00
03F000
078000
0E0000
180000
300000
200000
400000
400000
C00000
800000
C00000
C00000
C00000
C00000
E00000
700000
7C0000
3F8000
1FFFF0
0FFFE0
03FFC0
003F00
ENDCHAR
STARTCHAR 0683
ENCODING 1667
SWIDTH 552 0
DWIDTH 23 0
BBX 20 27 1 -9
BITMAP
0FF000
3FFFE0
3FFFE0
7FFFE0
00FF00
03F000
078000
0E0000
180000
300000
200000
400400
400700
C0CF00
80F700
C1F000
C0E000
C00000
C00000
E00000
700000
7C0000
3F8000
1FFFF0
0FFFE0
03FFC0
003F00
ENDCHAR
STARTCHAR 0684
ENCODING 1668
SWIDTH 552 0
DWIDTH 23 0
BBX 20 27 1 -9
BITMAP
0FF000
3FFFE0
3FFFE0
7FFFE0
00FF00
03F000
078000
0E0000
180000
300000
203000
403C00
407800
C03800
800000
C01800
C01C00
C03C00
C01C00
E00000
700000
7C0000
3F8000
1FFFF0
0FFFE0
03FFC0
003F00
ENDCHAR
STARTCHAR 0685
ENCODING 1669
SWIDTH 552 0
DWIDTH 23 0
BBX 20 40 1 -9
BITMAP
00C000
00F000
01E000
006000
000E00
009F00
01EE00
01E200
01C000
004000
000000
000000
000000
0FF000
3FFFE0
3FFFE0
7FFFE0
00FF00
03F000
078000
0E0000
180000
300000
200000
400000
400000
C00000
800000
C00000
C00000
C00000
C00000
E00000
700000
7C0000
3F8000
1FFFF0
0FFFE0
03FFC0
003F00
ENDCHAR
STARTCHAR 0686
ENCODING 1670
SWIDTH 552 0
DWIDTH 23 0
BBX 20 27 1 -9
BITMAP
0FF000
3FFFE0
3FFFE0
7FFFE0
00FF00
03F000
078000
0E0000
180000
300400
200F00
40CF00
40F600
C1E000
80E800
C00E00
C01F00
C01E00
C00600
E00000
700000
7C0000
3F8000
1FFFF0
0FFFE0
03FFC0
003F00
ENDCHAR
STARTCHAR 0687
ENCODING 1671
SWIDTH 552 0
DWIDTH 23 0
BBX 20 27 1 -9
BITMAP
0FF000
3FFFE0
3FFFE0
7FFFE0
00FF00
03F000
078000
0E0000
180400
300700
204F80
40F700
40F300
C0E200
802380
C007C0
C07780
C07980
C07000
E01000
700000
7C0000
3F8000
1FFFF0
0FFFE0
03FFC0
003F00
ENDCHAR
STARTCHAR 0688
ENCODING 1672
SWIDTH 336 0
DWIDTH 14 0
BBX 13 31 1 6
BITMAP
1000
1800
0800
0800
0800
0800
0800
0800
09F0
0F30
0810
FFF0
FFF0
0000
0100
0180
01C0
01E0
00E0
0070
0030
0018
0018
0018
0008
0008
4008
7008
7FF8
7FF8
3FF8
ENDCHAR
STARTCHAR 0689
ENCODING 1673
SWIDTH 336 0
DWIDTH 14 0
BBX 12 22 2 1
BITMAP
0200
0300
0380
03C0
01C0
00E0
0060
0030
0030
0030
0010
0010
8010
E010
FFF0
FFF0
7FF0
0980
0880
0C80
0F80
0600
ENDCHAR
STARTCHAR 068A
ENCODING 1674
SWIDTH 336 0
DWIDTH 14 0
BBX 12 25 2 -2
BITMAP
0200
0300
0380
03C0
01C0
00E0
0060
0030
0030
0030
0010
0010
8010
E010
FFF0
FFF0
7FF0
0000
0000
0000
0400
0700
0F80
0700
0300
ENDCHAR
STARTCHAR 068B
ENCODING 1675
SWIDTH 336 0
DWIDTH 14 0
BBX 13 39 1 -2
BITMAP
1000
1800
0800
0800
0800
0800
0800
0800
09F0
0F30
0810
FFF0
FFF0
0000
0100
0180
01C0
01E0
00E0
0070
0030
0018
0018
0018
0008
0008
4008
7008
7FF8
7FF8
3FF8
0000
0000
0000
0200
0380
07C0
0380
0180
ENDCHAR
STARTCHAR 068C
ENCODING 1676
SWIDTH 336 0
DWIDTH 14 0
BBX 12 25 2 6
BITMAP
0300
0780
6780
FB00
F000
3000
0000
0000
0200
0300
0380
03C0
01C0
00E0
0060
0030
0030
0030
0010
0010
8010
E010
FFF0
FFF0
7FF0
ENDCHAR
STARTCHAR 068D
ENCODING 1677
SWIDTH 336 0
DWIDTH 14 0
BBX 12 27 2 -4
BITMAP
0200
0300
0380
03C0
01C0
00E0
0060
0030
0030
0030
0010
0010
8010
E010
FFF0
FFF0
7FF0
0000
0000
0000
0100
01C0
33C0
3DC0
7C00
3800
0800
ENDCHAR
STARTCHAR 068E
ENCODING 1678
SWIDTH 336 0
DWIDTH 14 0
BBX 12 29 2 6
BITMAP
3800
3C00
7800
1800
0380
23C0
7B80
7880
7800
1000
0000
0000
0200
0300
0380
03C0
01C0
00E0
0060
0030
0030
0030
0010
0010
8010
E010
FFF0
FFF0
7FF0
ENDCHAR
STARTCHAR 068F
ENCODING 1679
SWIDTH 336 0
DWIDTH 14 0
BBX 13 29 1 6
BITMAP
0300
07C0
7780
7980
F000
3600
0700
0F80
0700
0100
0000
0000
0100
0180
01C0
01E0
00E0
0070
0030
0018
0018
0018
0008
0008
4008
7008
7FF8
7FF8
3FF8
ENDCHAR
STARTCHAR 0690
ENCODING 1680
SWIDTH 336 0
DWIDTH 14 0
BBX 12 29 2 6
BITMAP
0600
0780
EF00
F300
F000
2300
03C0
7780
7980
F800
3000
0000
0200
0300
0380
03C0
01C0
00E0
0060
0030
0030
0030
0010
0010
8010
E010
FFF0
FFF0
7FF0
ENDCHAR
STARTCHAR 0691
ENCODING 1681
SWIDTH 480 0
DWIDTH 20 0
BBX 18 38 2 -3
BITMAP
00E000
00C000
004000
004000
004000
004000
004000
004700
005F80
007080
00C180
07FF80
000000
000000
000000
000000
000000
000300
000380
0003C0
0001C0
0000C0
0000C0
000040
000040
000040
000040
000040
0000C0
0001C0
0001C0
000380
000F80
001F00
007E00
FFFC00
1FF000
03C000
ENDCHAR
STARTCHAR 0692
ENCODING 1682
SWIDTH 480 0
DWIDTH 20 0
BBX 18 30 2 -4
BITMAP
003300
001600
001C00
000C00
000000
000000
000000
000000
000000
000300
000380
0003C0
0001C0
0000C0
0000C0
000040
000040
000040
000040
000040
0000C0
0001C0
0001C0
000380
000F80
001F00
007E00
FFFC00
1FF000
03C000
ENDCHAR
STARTCHAR 0693
ENCODING 1683
SWIDTH 480 0
DWIDTH 20 0
BBX 18 22 2 -4
BITMAP
000300
000380
0003C0
0001C0
0000C0
0000C0
000040
000040
000040
000040
000040
0000C0
0001C0
0001C0
000380
000F80
001F80
007FC0
FFFCC0
1FF440
03C7C0
000780
ENDCHAR
STARTCHAR 0694
ENCODING 1684
SWIDTH 480 0
DWIDTH 20 0
BBX 19 23 2 -5
BITMAP
000300
000380
0003C0
0001C0
0000C0
0000C0
000040
000040
000040
000040
000040
0000C0
0001C0
0001C0
000380
000F80
001F00
007E00
FFFC00
1FF1C0
03C1E0
0001C0
000040
ENDCHAR
STARTCHAR 0695
ENCODING 1685
SWIDTH 480 0
DWIDTH 20 0
BBX 18 25 2 -7
BITMAP
000300
000380
0003C0
0001C0
0000C0
0000C0
000040
000040
000040
000040
000040
0000C0
0001C0
0001C0
000380
000F80
001F00
007E00
FFFC00
1FF000
03C8C0
000CC0
000580
000700
000300
ENDCHAR
STARTCHAR 0696
ENCODING 1686
SWIDTH 480 0
DWIDTH 20 0
BBX 19 23 2 -5
BITMAP
000300
000380
0003C0
0001C0
0000C0
0000C0
000040
000040
000040
038040
03C040
0380C0
0081C0
0001C0
000380
000F80
001F00
007E00
FFFC00
1FF1C0
03C1E0
0001C0
000040
ENDCHAR
STARTCHAR 0697
ENCODING 1687
SWIDTH 480 0
DWIDTH 20 0
BBX 18 30 2 -3
BITMAP
000E00
000F00
01DE00
01E600
01E000
004000
000000
000000
000000
000300
000380
0003C0
0001C0
0000C0
0000C0
000040
000040
000040
000040
000040
0000C0
0001C0
0001C0
000380
000F80
001F00
007E00
FFFC00
1FF000
03C000
ENDCHAR
STARTCHAR 0698
ENCODING 1688
SWIDTH 480 0
DWIDTH 20 0
BBX 18 34 2 -4
BITMAP
003000
003C00
007800
003A00
000300
0007C0
007780
007980
007000
001000
000000
000000
000000
000300
000380
0003C0
0001C0
0000C0
0000C0
000040
000040
000040
000040
000040
0000C0
0001C0
0001C0
000380
000F80
001F00
007E00
FFFC00
1FF000
03C000
ENDCHAR
STARTCHAR 0699
ENCODING 1689
SWIDTH 480 0
DWIDTH 20 0
BBX 18 35 2 -3
BITMAP
001C00
011E00
03BC00
03CC00
03C000
008E00
000F00
01DE00
01E600
01E000
004000
000000
000000
000000
000300
000380
0003C0
0001C0
0000C0
0000C0
000040
000040
000040
000040
000040
0000C0
0001C0
0001C0
000380
000F80
001F00
007E00
FFFC00
1FF000
03C000
ENDCHAR
STARTCHAR 069A
ENCODING 1690
SWIDTH 816 0
DWIDTH 34 0
BBX 33 28 1 -3
BITMAP
0000008000
000001C000
000001E000
000001E000
0000004000
0000000000
0000000000
0000000000
0000200100
0000300100
0000302380
1000781180
1000381080
2000381080
2000183880
200019FF80
40001FFF80
40000FFF80
40000FC780
C000180000
C000180000
C000300000
E000700800
F001E00E00
7FFFE01E00
7FFFC01E00
3FFF000400
07F8000000
ENDCHAR
STARTCHAR 069B
ENCODING 1691
SWIDTH 816 0
DWIDTH 34 0
BBX 33 24 1 -7
BITMAP
0000200100
0000300100
0000302380
1000781180
1000381080
2000381080
2000183880
200019FF80
40001FFF80
40000FFF80
40000FC780
C000180000
C000180000
C000300000
E000700200
F001E00780
7FFFE04780
7FFFC07700
3FFF00F100
07F8007000
0000000600
0000000F80
0000000F00
0000000200
ENDCHAR
STARTCHAR 069C
ENCODING 1692
SWIDTH 816 0
DWIDTH 34 0
BBX 33 37 1 -7
BITMAP
0000020000
0000078000
0000078000
0000030000
0000003000
0000047800
0000077800
00000F9000
00000F0000
0000020000
0000000000
0000000000
0000000000
0000200100
0000300100
0000302380
1000781180
1000381080
2000381080
2000183880
200019FF80
40001FFF80
40000FFF80
40000FC780
C000180000
C000180000
C000300000
E000700200
F001E00780
7FFFE04780
7FFFC07700
3FFF00F100
07F8007000
0000000600
0000000F80
0000000F00
0000000200
ENDCHAR
STARTCHAR 069D
ENCODING 1693
SWIDTH 1104 0
DWIDTH 46 0
BBX 45 20 1 -4
BITMAP
0000200007C0
000030003FE0
000030007FF0
10007801FFF0
10003803C0F8
2000380F0078
2000183C0078
20001FF007F8
40001FFFFFF8
40000FFFFFF8
40000FFFFFF8
C00010000000
C00010000000
C00030000000
E00070002000
F001E0007800
7FFFC0047800
7FFFC0077800
3FFF000F1000
07F800070000
ENDCHAR
ENDFONT
